PublicSans-BlackItalic.ufo
<glyph name="exclam" format="2">
  <advance width="618"/>
  <unicode hex="0021"/>
  <outline>
    <contour>
      <point x="169" y="518" type="line"/>
      <point x="407" y="518" type="line"/>
      <point x="649" y="1446" type="line"/>
      <point x="201" y="1446" type="line"/>
    </contour>
    <contour>
      <point x="1" y="0" type="line"/>
      <point x="409" y="0" type="line"/>
      <point x="467" y="384" type="line"/>
      <point x="61" y="384" type="line"/>
    </contour>
  </outline>
</glyph>
<glyph name="numbersign" format="2">
  <advance width="1224"/>
  <unicode hex="0023"/>
  <outline>
    <contour>
      <point x="842" y="-6" type="line"/>
      <point x="1050" y="1432" type="line"/>
      <point x="862" y="1450" type="line"/>
      <point x="652" y="18" type="line"/>
    </contour>
    <contour>
      <point x="54" y="432" type="line"/>
      <point x="1146" y="432" type="line"/>
      <point x="1146" y="620" type="line"/>
      <point x="54" y="620" type="line"/>
    </contour>
    <contour>
      <point x="404" y="-6" type="line"/>
      <point x="612" y="1432" type="line"/>
      <point x="426" y="1450" type="line"/>
      <point x="216" y="18" type="line"/>
    </contour>
    <contour>
      <point x="118" y="842" type="line"/>
      <point x="1210" y="842" type="line"/>
      <point x="1210" y="1030" type="line"/>
      <point x="118" y="1030" type="line"/>
    </contour>
  </outline>
</glyph>
<glyph name="dollar" format="2">
  <advance width="1394"/>
  <unicode hex="0024"/>
  <outline>
    <contour>
      <point x="649" y="-20" type="curve" smooth="yes"/>
      <point x="1009" y="-20"/>
      <point x="1259" y="144"/>
      <point x="1299" y="410" type="curve" smooth="yes"/>
      <point x="1335" y="654"/>
      <point x="1241" y="820"/>
      <point x="973" y="878" type="curve" smooth="yes"/>
      <point x="755" y="924" type="line" smooth="yes"/>
      <point x="633" y="950"/>
      <point x="607" y="984"/>
      <point x="617" y="1050" type="curve" smooth="yes"/>
      <point x="625" y="1102"/>
      <point x="679" y="1164"/>
      <point x="831" y="1164" type="curve" smooth="yes"/>
      <point x="965" y="1164"/>
      <point x="979" y="1096"/>
      <point x="973" y="1008" type="curve"/>
      <point x="1365" y="1008" type="line"/>
      <point x="1419" y="1266"/>
      <point x="1219" y="1464"/>
      <point x="869" y="1464" type="curve" smooth="yes"/>
      <point x="537" y="1464"/>
      <point x="237" y="1294"/>
      <point x="197" y="1002" type="curve" smooth="yes"/>
      <point x="163" y="756"/>
      <point x="289" y="612"/>
      <point x="509" y="576" type="curve" smooth="yes"/>
      <point x="727" y="538" type="line" smooth="yes"/>
      <point x="845" y="518"/>
      <point x="903" y="498"/>
      <point x="889" y="410" type="curve" smooth="yes"/>
      <point x="879" y="340"/>
      <point x="813" y="278"/>
      <point x="693" y="278" type="curve" smooth="yes"/>
      <point x="557" y="278"/>
      <point x="477" y="338"/>
      <point x="471" y="440" type="curve"/>
      <point x="69" y="440" type="line"/>
      <point x="45" y="118"/>
      <point x="267" y="-20"/>
    </contour>
    <contour>
      <point x="459" y="-174" type="line"/>
      <point x="783" y="-174" type="line"/>
      <point x="823" y="86" type="line"/>
      <point x="499" y="86" type="line"/>
    </contour>
    <contour>
      <point x="695" y="1384" type="line"/>
      <point x="1019" y="1384" type="line"/>
      <point x="1059" y="1644" type="line"/>
      <point x="735" y="1644" type="line"/>
    </contour>
  </outline>
</glyph>
<glyph name="percent" format="2">
  <advance width="1802"/>
  <unicode hex="0025"/>
  <outline>
    <contour>
      <point x="417" y="-8" type="line"/>
      <point x="1608" y="1462" type="line"/>
      <point x="1400" y="1462" type="line"/>
      <point x="207" y="-4" type="line"/>
    </contour>
    <contour>
      <point x="457" y="652" type="curve" smooth="yes"/>
      <point x="705" y="652"/>
      <point x="871" y="917"/>
      <point x="871" y="1115" type="curve" smooth="yes"/>
      <point x="871" y="1305"/>
      <point x="748" y="1468"/>
      <point x="571" y="1468" type="curve" smooth="yes"/>
      <point x="282" y="1468"/>
      <point x="151" y="1135"/>
      <point x="151" y="996" type="curve" smooth="yes"/>
      <point x="151" y="810"/>
      <point x="272" y="652"/>
    </contour>
    <contour>
      <point x="481" y="842" type="curve" smooth="yes"/>
      <point x="427" y="842"/>
      <point x="406" y="880"/>
      <point x="406" y="954" type="curve" smooth="yes"/>
      <point x="406" y="1037"/>
      <point x="428" y="1280"/>
      <point x="543" y="1280" type="curve" smooth="yes"/>
      <point x="595" y="1280"/>
      <point x="616" y="1239"/>
      <point x="616" y="1161" type="curve" smooth="yes"/>
      <point x="616" y="1077"/>
      <point x="600" y="842"/>
    </contour>
    <contour>
      <point x="1271" y="-20" type="curve" smooth="yes"/>
      <point x="1521" y="-20"/>
      <point x="1687" y="247"/>
      <point x="1687" y="446" type="curve" smooth="yes"/>
      <point x="1687" y="633"/>
      <point x="1565" y="798"/>
      <point x="1385" y="798" type="curve" smooth="yes"/>
      <point x="1140" y="798"/>
      <point x="967" y="522"/>
      <point x="967" y="323" type="curve" smooth="yes"/>
      <point x="967" y="138"/>
      <point x="1089" y="-20"/>
    </contour>
    <contour>
      <point x="1295" y="172" type="curve" smooth="yes"/>
      <point x="1243" y="172"/>
      <point x="1223" y="210"/>
      <point x="1223" y="283" type="curve" smooth="yes"/>
      <point x="1223" y="363"/>
      <point x="1244" y="608"/>
      <point x="1357" y="608" type="curve" smooth="yes"/>
      <point x="1409" y="608"/>
      <point x="1430" y="567"/>
      <point x="1430" y="489" type="curve" smooth="yes"/>
      <point x="1430" y="405"/>
      <point x="1414" y="172"/>
    </contour>
  </outline>
</glyph>
<glyph name="ampersand" format="2">
  <advance width="1689"/>
  <unicode hex="0026"/>
  <outline>
    <contour>
      <point x="512" y="-10" type="curve" smooth="yes"/>
      <point x="648" y="-10"/>
      <point x="828" y="18"/>
      <point x="1008" y="124" type="curve"/>
      <point x="1096" y="0" type="line"/>
      <point x="1536" y="0" type="line"/>
      <point x="1272" y="378" type="line"/>
      <point x="1374" y="530"/>
      <point x="1548" y="708"/>
      <point x="1640" y="860" type="curve"/>
      <point x="1238" y="860" type="line"/>
      <point x="1206" y="774"/>
      <point x="1154" y="664"/>
      <point x="1126" y="598" type="curve"/>
      <point x="1010" y="768" type="line"/>
      <point x="1188" y="876"/>
      <point x="1342" y="996"/>
      <point x="1366" y="1148" type="curve" smooth="yes"/>
      <point x="1394" y="1336"/>
      <point x="1208" y="1468"/>
      <point x="934" y="1468" type="curve" smooth="yes"/>
      <point x="652" y="1468"/>
      <point x="438" y="1316"/>
      <point x="406" y="1112" type="curve" smooth="yes"/>
      <point x="386" y="984"/>
      <point x="450" y="922"/>
      <point x="528" y="814" type="curve"/>
      <point x="256" y="680"/>
      <point x="108" y="568"/>
      <point x="78" y="362" type="curve" smooth="yes"/>
      <point x="44" y="146"/>
      <point x="164" y="-10"/>
    </contour>
    <contour>
      <point x="656" y="280" type="curve" smooth="yes"/>
      <point x="602" y="280"/>
      <point x="526" y="312"/>
      <point x="518" y="390" type="curve" smooth="yes"/>
      <point x="510" y="482"/>
      <point x="598" y="554"/>
      <point x="680" y="598" type="curve"/>
      <point x="858" y="348" type="line"/>
      <point x="796" y="298"/>
      <point x="702" y="280"/>
    </contour>
    <contour>
      <point x="882" y="954" type="curve"/>
      <point x="844" y="1002" type="line"/>
      <point x="798" y="1062"/>
      <point x="784" y="1104"/>
      <point x="790" y="1140" type="curve"/>
      <point x="798" y="1198"/>
      <point x="850" y="1240"/>
      <point x="918" y="1244" type="curve" smooth="yes"/>
      <point x="992" y="1248"/>
      <point x="1042" y="1206"/>
      <point x="1030" y="1128" type="curve" smooth="yes"/>
      <point x="1022" y="1068"/>
      <point x="980" y="1016"/>
    </contour>
  </outline>
</glyph>
<glyph name="quotesingle" format="2">
  <advance width="544"/>
  <unicode hex="0027"/>
  <outline>
    <contour>
      <point x="215" y="802" type="line"/>
      <point x="397" y="802" type="line"/>
      <point x="585" y="1446" type="line"/>
      <point x="221" y="1446" type="line"/>
    </contour>
  </outline>
</glyph>
<glyph name="parenright" format="2">
  <advance width="729"/>
  <unicode hex="0029"/>
  <outline>
    <contour>
      <point x="-108" y="-322" type="curve"/>
      <point x="168" y="-322" type="line"/>
      <point x="378" y="-72"/>
      <point x="534" y="234"/>
      <point x="586" y="568" type="curve" smooth="yes"/>
      <point x="638" y="912"/>
      <point x="560" y="1164"/>
      <point x="434" y="1446" type="curve"/>
      <point x="160" y="1446" type="line"/>
      <point x="260" y="1142"/>
      <point x="298" y="876"/>
      <point x="252" y="570" type="curve" smooth="yes"/>
      <point x="204" y="250"/>
      <point x="70" y="-60"/>
    </contour>
  </outline>
</glyph>
<glyph name="asterisk" format="2">
  <advance width="1090"/>
  <unicode hex="002A"/>
  <outline>
    <contour>
      <point x="430" y="544" type="line"/>
      <point x="604" y="840" type="line"/>
      <point x="778" y="548" type="line"/>
      <point x="978" y="686" type="line"/>
      <point x="760" y="942" type="line"/>
      <point x="1072" y="1026" type="line"/>
      <point x="1002" y="1246" type="line"/>
      <point x="694" y="1108" type="line"/>
      <point x="728" y="1446" type="line"/>
      <point x="488" y="1446" type="line"/>
      <point x="514" y="1110" type="line"/>
      <point x="212" y="1248" type="line"/>
      <point x="132" y="1030" type="line"/>
      <point x="454" y="942" type="line"/>
      <point x="232" y="684" type="line"/>
    </contour>
  </outline>
</glyph>
<glyph name="plus" format="2">
  <advance width="1235"/>
  <unicode hex="002B"/>
  <outline>
    <contour>
      <point x="434" y="220" type="line"/>
      <point x="708" y="220" type="line"/>
      <point x="862" y="1238" type="line"/>
      <point x="588" y="1238" type="line"/>
    </contour>
    <contour>
      <point x="120" y="590" type="line"/>
      <point x="1132" y="590" type="line"/>
      <point x="1174" y="866" type="line"/>
      <point x="162" y="866" type="line"/>
    </contour>
  </outline>
</glyph>
<glyph name="comma" format="2">
  <advance width="623"/>
  <unicode hex="002C"/>
  <outline>
    <contour>
      <point x="-16" y="-306" type="line"/>
      <point x="112" y="-306" type="line"/>
      <point x="392" y="40" type="line"/>
      <point x="438" y="340" type="line"/>
      <point x="86" y="340" type="line"/>
      <point x="34" y="2" type="line"/>
      <point x="148" y="-12" type="line"/>
    </contour>
  </outline>
</glyph>
<glyph name="hyphen" format="2">
  <advance width="811"/>
  <unicode hex="002D"/>
  <outline>
    <contour>
      <point x="97" y="376" type="line"/>
      <point x="673" y="376" type="line"/>
      <point x="713" y="650" type="line"/>
      <point x="137" y="650" type="line"/>
    </contour>
  </outline>
</glyph>
<glyph name="period" format="2">
  <advance width="621"/>
  <unicode hex="002E"/>
  <outline>
    <contour>
      <point x="17" y="0" type="line"/>
      <point x="423" y="0" type="line"/>
      <point x="483" y="392" type="line"/>
      <point x="77" y="392" type="line"/>
    </contour>
  </outline>
</glyph>
<glyph name="slash" format="2">
  <advance width="830"/>
  <unicode hex="002F"/>
  <outline>
    <contour>
      <point x="-53" y="0" type="line"/>
      <point x="205" y="0" type="line"/>
      <point x="931" y="1446" type="line"/>
      <point x="673" y="1446" type="line"/>
    </contour>
  </outline>
</glyph>
<glyph name="zero" format="2">
  <advance width="1349"/>
  <unicode hex="0030"/>
  <outline>
    <contour>
      <point x="601" y="-22" type="curve" smooth="yes"/>
      <point x="979" y="-22"/>
      <point x="1232" y="252"/>
      <point x="1298" y="720" type="curve" smooth="yes"/>
      <point x="1364" y="1190"/>
      <point x="1183" y="1466"/>
      <point x="811" y="1466" type="curve" smooth="yes"/>
      <point x="437" y="1466"/>
      <point x="175" y="1190"/>
      <point x="109" y="720" type="curve" smooth="yes"/>
      <point x="43" y="252"/>
      <point x="221" y="-22"/>
    </contour>
    <contour>
      <point x="643" y="288" type="curve" smooth="yes"/>
      <point x="500" y="288"/>
      <point x="466" y="404"/>
      <point x="510" y="718" type="curve" smooth="yes"/>
      <point x="556" y="1042"/>
      <point x="626" y="1168"/>
      <point x="767" y="1168" type="curve" smooth="yes"/>
      <point x="907" y="1168"/>
      <point x="940" y="1044"/>
      <point x="894" y="718" type="curve" smooth="yes"/>
      <point x="850" y="402"/>
      <point x="786" y="288"/>
    </contour>
  </outline>
</glyph>
<glyph name="one" format="2">
  <advance width="896"/>
  <unicode hex="0031"/>
  <outline>
    <contour>
      <point x="233" y="0" type="line"/>
      <point x="622" y="0" type="line"/>
      <point x="842" y="1446" type="line"/>
      <point x="594" y="1446" type="line"/>
      <point x="554" y="1316"/>
      <point x="420" y="1226"/>
      <point x="182" y="1226" type="curve"/>
      <point x="151" y="1022" type="line"/>
      <point x="390" y="1022" type="line"/>
    </contour>
  </outline>
</glyph>
<glyph name="two" format="2">
  <advance width="1339"/>
  <unicode hex="0032"/>
  <outline>
    <contour>
      <point x="29" y="0" type="line"/>
      <point x="1177" y="0" type="line"/>
      <point x="1222" y="320" type="line"/>
      <point x="508" y="320" type="line"/>
      <point x="508" y="320" type="line" smooth="yes"/>
      <point x="541" y="552"/>
      <point x="1257" y="500"/>
      <point x="1328" y="1006" type="curve" smooth="yes"/>
      <point x="1367" y="1280"/>
      <point x="1179" y="1466"/>
      <point x="823" y="1466" type="curve" smooth="yes"/>
      <point x="409" y="1466"/>
      <point x="181" y="1236"/>
      <point x="139" y="936" type="curve"/>
      <point x="505" y="936" type="line"/>
      <point x="557" y="1096"/>
      <point x="665" y="1152"/>
      <point x="771" y="1152" type="curve" smooth="yes"/>
      <point x="877" y="1152"/>
      <point x="932" y="1088"/>
      <point x="920" y="1002" type="curve" smooth="yes"/>
      <point x="885" y="756"/>
      <point x="137" y="768"/>
      <point x="66" y="260" type="curve" smooth="yes"/>
      <point x="53" y="172" type="line"/>
    </contour>
  </outline>
</glyph>
<glyph name="four" format="2">
  <advance width="1358"/>
  <unicode hex="0034"/>
  <outline>
    <contour>
      <point x="650" y="0" type="line"/>
      <point x="1018" y="0" type="line"/>
      <point x="1060" y="276" type="line"/>
      <point x="1268" y="276" type="line"/>
      <point x="1316" y="594" type="line"/>
      <point x="1110" y="594" type="line"/>
      <point x="1238" y="1446" type="line"/>
      <point x="864" y="1446" type="line"/>
      <point x="92" y="580" type="line"/>
      <point x="46" y="276" type="line"/>
      <point x="694" y="276" type="line"/>
    </contour>
    <contour>
      <point x="446" y="594" type="line"/>
      <point x="806" y="996" type="line"/>
      <point x="746" y="594" type="line"/>
    </contour>
  </outline>
</glyph>
<glyph name="five" format="2">
  <advance width="1411"/>
  <unicode hex="0035"/>
  <outline>
    <contour>
      <point x="658" y="-22" type="curve" smooth="yes"/>
      <point x="1027" y="-22"/>
      <point x="1282" y="162"/>
      <point x="1325" y="472" type="curve" smooth="yes"/>
      <point x="1367" y="770"/>
      <point x="1178" y="944"/>
      <point x="865" y="944" type="curve" smooth="yes"/>
      <point x="764" y="944"/>
      <point x="694" y="926"/>
      <point x="574" y="894" type="curve"/>
      <point x="628" y="1134" type="line"/>
      <point x="1302" y="1134" type="line"/>
      <point x="1362" y="1446" type="line"/>
      <point x="374" y="1446" type="line"/>
      <point x="206" y="728" type="line"/>
      <point x="449" y="586" type="line" smooth="yes"/>
      <point x="476" y="572"/>
      <point x="478" y="572"/>
      <point x="507" y="584" type="curve" smooth="yes"/>
      <point x="600" y="622"/>
      <point x="648" y="636"/>
      <point x="710" y="636" type="curve" smooth="yes"/>
      <point x="861" y="636"/>
      <point x="931" y="548"/>
      <point x="918" y="458" type="curve" smooth="yes"/>
      <point x="905" y="362"/>
      <point x="799" y="284"/>
      <point x="656" y="284" type="curve" smooth="yes"/>
      <point x="499" y="284"/>
      <point x="436" y="376"/>
      <point x="365" y="486" type="curve"/>
      <point x="48" y="290" type="line"/>
      <point x="130" y="112"/>
      <point x="357" y="-22"/>
    </contour>
  </outline>
</glyph>
<glyph name="six" format="2">
  <advance width="1388"/>
  <unicode hex="0036"/>
  <outline>
    <contour>
      <point x="640" y="-22" type="curve" smooth="yes"/>
      <point x="982" y="-22"/>
      <point x="1263" y="194"/>
      <point x="1302" y="472" type="curve" smooth="yes"/>
      <point x="1338" y="726"/>
      <point x="1159" y="902"/>
      <point x="858" y="902" type="curve" smooth="yes"/>
      <point x="753" y="902"/>
      <point x="644" y="884"/>
      <point x="559" y="836" type="curve"/>
      <point x="552" y="1004"/>
      <point x="660" y="1166"/>
      <point x="824" y="1166" type="curve" smooth="yes"/>
      <point x="927" y="1166"/>
      <point x="984" y="1120"/>
      <point x="1002" y="1012" type="curve"/>
      <point x="1353" y="1012" type="line"/>
      <point x="1393" y="1298"/>
      <point x="1157" y="1466"/>
      <point x="858" y="1466" type="curve" smooth="yes"/>
      <point x="465" y="1466"/>
      <point x="172" y="1176"/>
      <point x="104" y="690" type="curve" smooth="yes"/>
      <point x="44" y="270"/>
      <point x="239" y="-22"/>
    </contour>
    <contour>
      <point x="664" y="266" type="curve" smooth="yes"/>
      <point x="553" y="266"/>
      <point x="486" y="348"/>
      <point x="510" y="516" type="curve"/>
      <point x="515" y="552"/>
      <point x="626" y="622"/>
      <point x="716" y="622" type="curve" smooth="yes"/>
      <point x="809" y="622"/>
      <point x="908" y="578"/>
      <point x="890" y="454" type="curve" smooth="yes"/>
      <point x="875" y="346"/>
      <point x="767" y="266"/>
    </contour>
  </outline>
</glyph>
<glyph name="seven" format="2">
  <advance width="1295"/>
  <unicode hex="0037"/>
  <outline>
    <contour>
      <point x="257" y="0" type="curve"/>
      <point x="673" y="0" type="line"/>
      <point x="720" y="356"/>
      <point x="1064" y="910"/>
      <point x="1297" y="1134" type="curve"/>
      <point x="1346" y="1446" type="line"/>
      <point x="213" y="1446" type="line"/>
      <point x="167" y="1134" type="line"/>
      <point x="903" y="1134" type="line"/>
      <point x="478" y="696"/>
      <point x="289" y="208"/>
    </contour>
  </outline>
</glyph>
<glyph name="eight" format="2">
  <advance width="1384"/>
  <unicode hex="0038"/>
  <outline>
    <contour>
      <point x="617" y="-21" type="curve" smooth="yes"/>
      <point x="983" y="-21"/>
      <point x="1252" y="144"/>
      <point x="1289" y="410" type="curve" smooth="yes"/>
      <point x="1312" y="574"/>
      <point x="1195" y="720"/>
      <point x="1077" y="748" type="curve"/>
      <point x="1190" y="804"/>
      <point x="1297" y="906"/>
      <point x="1317" y="1048" type="curve" smooth="yes"/>
      <point x="1355" y="1320"/>
      <point x="1139" y="1466"/>
      <point x="825" y="1466" type="curve" smooth="yes"/>
      <point x="511" y="1466"/>
      <point x="255" y="1320"/>
      <point x="217" y="1048" type="curve" smooth="yes"/>
      <point x="197" y="906"/>
      <point x="274" y="804"/>
      <point x="373" y="748" type="curve"/>
      <point x="247" y="720"/>
      <point x="88" y="574"/>
      <point x="65" y="410" type="curve" smooth="yes"/>
      <point x="28" y="144"/>
      <point x="251" y="-21"/>
    </contour>
    <contour>
      <point x="657" y="264" type="curve" smooth="yes"/>
      <point x="530" y="264"/>
      <point x="466" y="328"/>
      <point x="479" y="424" type="curve" smooth="yes"/>
      <point x="493" y="522"/>
      <point x="575" y="588"/>
      <point x="702" y="588" type="curve" smooth="yes"/>
      <point x="830" y="588"/>
      <point x="893" y="522"/>
      <point x="879" y="424" type="curve" smooth="yes"/>
      <point x="866" y="328"/>
      <point x="785" y="264"/>
    </contour>
    <contour>
      <point x="745" y="892" type="curve" smooth="yes"/>
      <point x="653" y="892"/>
      <point x="588" y="954"/>
      <point x="602" y="1054" type="curve" smooth="yes"/>
      <point x="616" y="1154"/>
      <point x="698" y="1216"/>
      <point x="790" y="1216" type="curve" smooth="yes"/>
      <point x="882" y="1216"/>
      <point x="948" y="1154"/>
      <point x="934" y="1054" type="curve" smooth="yes"/>
      <point x="920" y="954"/>
      <point x="837" y="892"/>
    </contour>
  </outline>
</glyph>
<glyph name="nine" format="2">
  <advance width="1380"/>
  <unicode hex="0039"/>
  <outline>
    <contour>
      <point x="577" y="-22" type="curve" smooth="yes"/>
      <point x="970" y="-22"/>
      <point x="1258" y="214"/>
      <point x="1334" y="760" type="curve" smooth="yes"/>
      <point x="1394" y="1182"/>
      <point x="1198" y="1466"/>
      <point x="798" y="1466" type="curve" smooth="yes"/>
      <point x="455" y="1466"/>
      <point x="184" y="1258"/>
      <point x="145" y="978" type="curve" smooth="yes"/>
      <point x="107" y="706"/>
      <point x="302" y="528"/>
      <point x="604" y="528" type="curve" smooth="yes"/>
      <point x="746" y="528"/>
      <point x="851" y="564"/>
      <point x="924" y="630" type="curve"/>
      <point x="913" y="366"/>
      <point x="767" y="278"/>
      <point x="603" y="278" type="curve" smooth="yes"/>
      <point x="501" y="278"/>
      <point x="446" y="344"/>
      <point x="443" y="438" type="curve"/>
      <point x="77" y="438" type="line"/>
      <point x="41" y="164"/>
      <point x="278" y="-22"/>
    </contour>
    <contour>
      <point x="722" y="828" type="curve" smooth="yes"/>
      <point x="630" y="828"/>
      <point x="548" y="884"/>
      <point x="564" y="996" type="curve" smooth="yes"/>
      <point x="579" y="1106"/>
      <point x="672" y="1182"/>
      <point x="774" y="1182" type="curve" smooth="yes"/>
      <point x="886" y="1182"/>
      <point x="953" y="1104"/>
      <point x="929" y="934" type="curve"/>
      <point x="924" y="898"/>
      <point x="812" y="828"/>
    </contour>
  </outline>
</glyph>
<glyph name="colon" format="2">
  <advance width="629"/>
  <unicode hex="003A"/>
  <outline>
    <contour>
      <point x="114" y="640" type="line"/>
      <point x="522" y="640" type="line"/>
      <point x="580" y="1024" type="line"/>
      <point x="172" y="1024" type="line"/>
    </contour>
    <contour>
      <point x="18" y="6" type="line"/>
      <point x="426" y="6" type="line"/>
      <point x="484" y="390" type="line"/>
      <point x="76" y="390" type="line"/>
    </contour>
  </outline>
</glyph>
<glyph name="semicolon" format="2">
  <advance width="637"/>
  <unicode hex="003B"/>
  <outline>
    <contour>
      <point x="-29" y="-330" type="line"/>
      <point x="123" y="-330" type="line"/>
      <point x="441" y="44" type="line"/>
      <point x="493" y="386" type="line"/>
      <point x="85" y="386" type="line"/>
      <point x="27" y="0" type="line"/>
      <point x="165" y="0" type="line"/>
    </contour>
    <contour>
      <point x="121" y="626" type="line"/>
      <point x="529" y="626" type="line"/>
      <point x="587" y="1018" type="line"/>
      <point x="181" y="1018" type="line"/>
    </contour>
  </outline>
</glyph>
<glyph name="less" format="2">
  <advance width="1212"/>
  <unicode hex="003C"/>
  <outline>
    <contour>
      <point x="1039" y="144" type="line"/>
      <point x="1087" y="468" type="line"/>
      <point x="543" y="678" type="line"/>
      <point x="1153" y="898" type="line"/>
      <point x="1201" y="1218" type="line"/>
      <point x="157" y="836" type="line"/>
      <point x="111" y="526" type="line"/>
    </contour>
  </outline>
</glyph>
<glyph name="equal" format="2">
  <advance width="1242"/>
  <unicode hex="003D"/>
  <outline>
    <contour>
      <point x="153" y="778" type="line"/>
      <point x="1165" y="778" type="line"/>
      <point x="1207" y="1054" type="line"/>
      <point x="195" y="1054" type="line"/>
    </contour>
    <contour>
      <point x="81" y="308" type="line"/>
      <point x="1093" y="308" type="line"/>
      <point x="1135" y="584" type="line"/>
      <point x="123" y="584" type="line"/>
    </contour>
  </outline>
</glyph>
<glyph name="greater" format="2">
  <advance width="1215"/>
  <unicode hex="003E"/>
  <outline>
    <contour>
      <point x="58" y="144" type="line"/>
      <point x="1104" y="526" type="line"/>
      <point x="1150" y="836" type="line"/>
      <point x="220" y="1218" type="line"/>
      <point x="172" y="898" type="line"/>
      <point x="718" y="678" type="line"/>
      <point x="108" y="468" type="line"/>
    </contour>
  </outline>
</glyph>
<glyph name="question" format="2">
  <advance width="1088"/>
  <unicode hex="003F"/>
  <outline>
    <contour>
      <point x="358" y="524" type="curve"/>
      <point x="660" y="524" type="line"/>
      <point x="704" y="804"/>
      <point x="1078" y="818"/>
      <point x="1124" y="1132" type="curve" smooth="yes"/>
      <point x="1152" y="1308"/>
      <point x="974" y="1466"/>
      <point x="674" y="1466" type="curve" smooth="yes"/>
      <point x="406" y="1466"/>
      <point x="204" y="1340"/>
      <point x="82" y="1102" type="curve"/>
      <point x="394" y="1032" type="line"/>
      <point x="456" y="1148"/>
      <point x="544" y="1212"/>
      <point x="632" y="1212" type="curve" smooth="yes"/>
      <point x="700" y="1212"/>
      <point x="754" y="1172"/>
      <point x="744" y="1110" type="curve" smooth="yes"/>
      <point x="720" y="956"/>
      <point x="414" y="884"/>
    </contour>
    <contour>
      <point x="226" y="0" type="line"/>
      <point x="634" y="0" type="line"/>
      <point x="692" y="384" type="line"/>
      <point x="284" y="384" type="line"/>
    </contour>
  </outline>
</glyph>
<glyph name="at" format="2">
  <advance width="1641"/>
  <unicode hex="0040"/>
  <outline>
    <contour>
      <point x="713" y="-220" type="curve" smooth="yes"/>
      <point x="943" y="-220"/>
      <point x="1135" y="-144"/>
      <point x="1233" y="-68" type="curve"/>
      <point x="1151" y="74" type="line"/>
      <point x="1045" y="10"/>
      <point x="954" y="-40"/>
      <point x="775" y="-40" type="curve" smooth="yes"/>
      <point x="427" y="-40"/>
      <point x="223" y="144"/>
      <point x="279" y="516" type="curve" smooth="yes"/>
      <point x="326" y="826"/>
      <point x="527" y="1092"/>
      <point x="956" y="1092" type="curve" smooth="yes"/>
      <point x="1219" y="1092"/>
      <point x="1441" y="990"/>
      <point x="1389" y="648" type="curve" smooth="yes"/>
      <point x="1357" y="444"/>
      <point x="1263" y="360"/>
      <point x="1195" y="360" type="curve" smooth="yes"/>
      <point x="1160" y="360"/>
      <point x="1139" y="382"/>
      <point x="1164" y="458" type="curve" smooth="yes"/>
      <point x="1297" y="876" type="line"/>
      <point x="1091" y="876" type="line"/>
      <point x="1083" y="852" type="line" smooth="yes"/>
      <point x="1078" y="838"/>
      <point x="1071" y="836"/>
      <point x="1065" y="844" type="curve" smooth="yes"/>
      <point x="1025" y="886"/>
      <point x="985" y="926"/>
      <point x="875" y="926" type="curve" smooth="yes"/>
      <point x="625" y="926"/>
      <point x="439" y="708"/>
      <point x="405" y="476" type="curve" smooth="yes"/>
      <point x="370" y="266"/>
      <point x="481" y="130"/>
      <point x="658" y="130" type="curve" smooth="yes"/>
      <point x="763" y="130"/>
      <point x="859" y="176"/>
      <point x="927" y="240" type="curve" smooth="yes"/>
      <point x="941" y="254"/>
      <point x="943" y="256"/>
      <point x="952" y="242" type="curve" smooth="yes"/>
      <point x="973" y="214"/>
      <point x="1015" y="158"/>
      <point x="1137" y="158" type="curve" smooth="yes"/>
      <point x="1368" y="158"/>
      <point x="1555" y="364"/>
      <point x="1601" y="660" type="curve" smooth="yes"/>
      <point x="1667" y="1102"/>
      <point x="1347" y="1288"/>
      <point x="987" y="1288" type="curve" smooth="yes"/>
      <point x="483" y="1288"/>
      <point x="122" y="930"/>
      <point x="59" y="510" type="curve" smooth="yes"/>
      <point x="-2" y="108"/>
      <point x="233" y="-220"/>
    </contour>
    <contour>
      <point x="763" y="348" type="curve" smooth="yes"/>
      <point x="677" y="348"/>
      <point x="651" y="426"/>
      <point x="662" y="504" type="curve" smooth="yes"/>
      <point x="681" y="620"/>
      <point x="775" y="710"/>
      <point x="863" y="710" type="curve" smooth="yes"/>
      <point x="947" y="710"/>
      <point x="977" y="630"/>
      <point x="965" y="552" type="curve" smooth="yes"/>
      <point x="949" y="452"/>
      <point x="861" y="348"/>
    </contour>
  </outline>
</glyph>
<glyph name="A" format="2">
  <advance width="1474"/>
  <unicode hex="0041"/>
  <anchor x="665" y="0" name="bottom"/>
  <anchor x="1327" y="10" name="ogonek"/>
  <anchor x="885" y="1446" name="top"/>
  <outline>
    <contour>
      <point x="-43" y="0" type="line"/>
      <point x="343" y="0" type="line"/>
      <point x="483" y="280" type="line"/>
      <point x="937" y="280" type="line"/>
      <point x="989" y="0" type="line"/>
      <point x="1371" y="0" type="line"/>
      <point x="1081" y="1446" type="line"/>
      <point x="687" y="1446" type="line"/>
    </contour>
    <contour>
      <point x="615" y="612" type="line"/>
      <point x="829" y="1074" type="line"/>
      <point x="899" y="612" type="line"/>
    </contour>
  </outline>
</glyph>
<glyph name="B" format="2">
  <advance width="1392"/>
  <unicode hex="0042"/>
  <outline>
    <contour>
      <point x="62" y="0" type="line"/>
      <point x="669" y="0" type="line" smooth="yes"/>
      <point x="1085" y="0"/>
      <point x="1265" y="124"/>
      <point x="1307" y="394" type="curve"/>
      <point x="1323" y="502"/>
      <point x="1335" y="668"/>
      <point x="1093" y="744" type="curve"/>
      <point x="1283" y="832"/>
      <point x="1354" y="930"/>
      <point x="1375" y="1064" type="curve" smooth="yes"/>
      <point x="1411" y="1310"/>
      <point x="1257" y="1446"/>
      <point x="856" y="1446" type="curve" smooth="yes"/>
      <point x="281" y="1446" type="line"/>
    </contour>
    <contour>
      <point x="495" y="292" type="line"/>
      <point x="539" y="582" type="line"/>
      <point x="781" y="582" type="line"/>
      <point x="877" y="582"/>
      <point x="933" y="522"/>
      <point x="921" y="442" type="curve" smooth="yes"/>
      <point x="909" y="366"/>
      <point x="839" y="292"/>
      <point x="727" y="292" type="curve"/>
    </contour>
    <contour>
      <point x="583" y="882" type="line"/>
      <point x="625" y="1154" type="line"/>
      <point x="852" y="1154" type="line" smooth="yes"/>
      <point x="945" y="1154"/>
      <point x="1009" y="1100"/>
      <point x="995" y="1014" type="curve" smooth="yes"/>
      <point x="982" y="938"/>
      <point x="917" y="882"/>
      <point x="827" y="882" type="curve" smooth="yes"/>
    </contour>
  </outline>
</glyph>
<glyph name="D" format="2">
  <advance width="1488"/>
  <unicode hex="0044"/>
  <anchor x="527" y="0" name="bottom"/>
  <anchor x="777" y="724" name="center"/>
  <anchor x="988" y="1446" name="top"/>
  <outline>
    <contour>
      <point x="62" y="0" type="line"/>
      <point x="586" y="0" type="line" smooth="yes"/>
      <point x="1312" y="0"/>
      <point x="1441" y="585"/>
      <point x="1441" y="856" type="curve" smooth="yes"/>
      <point x="1441" y="1427"/>
      <point x="966" y="1446"/>
      <point x="465" y="1446" type="curve" smooth="yes"/>
      <point x="372" y="1446"/>
      <point x="293" y="1446"/>
      <point x="273" y="1446" type="curve"/>
    </contour>
    <contour>
      <point x="497" y="306" type="line"/>
      <point x="623" y="1140" type="line"/>
      <point x="771" y="1140" type="line" smooth="yes"/>
      <point x="940" y="1140"/>
      <point x="1042" y="1044"/>
      <point x="1042" y="854" type="curve" smooth="yes"/>
      <point x="1042" y="564"/>
      <point x="858" y="306"/>
      <point x="626" y="306" type="curve" smooth="yes"/>
    </contour>
  </outline>
</glyph>
<glyph name="E" format="2">
  <advance width="1302"/>
  <unicode hex="0045"/>
  <anchor x="593" y="0" name="bottom"/>
  <anchor x="1077" y="20" name="ogonek"/>
  <anchor x="791" y="1446" name="top"/>
  <outline>
    <contour>
      <point x="62" y="0" type="line"/>
      <point x="1125" y="0" type="line"/>
      <point x="1175" y="324" type="line"/>
      <point x="499" y="324" type="line"/>
      <point x="537" y="570" type="line"/>
      <point x="1099" y="570" type="line"/>
      <point x="1146" y="884" type="line"/>
      <point x="587" y="884" type="line"/>
      <point x="623" y="1124" type="line"/>
      <point x="1293" y="1124" type="line"/>
      <point x="1343" y="1446" type="line"/>
      <point x="283" y="1446" type="line"/>
    </contour>
  </outline>
</glyph>
<glyph name="F" format="2">
  <advance width="1272"/>
  <unicode hex="0046"/>
  <outline>
    <contour>
      <point x="62" y="0" type="line"/>
      <point x="451" y="0" type="line"/>
      <point x="535" y="558" type="line"/>
      <point x="1089" y="558" type="line"/>
      <point x="1137" y="868" type="line"/>
      <point x="581" y="868" type="line"/>
      <point x="621" y="1128" type="line"/>
      <point x="1285" y="1128" type="line"/>
      <point x="1335" y="1446" type="line"/>
      <point x="283" y="1446" type="line"/>
    </contour>
  </outline>
</glyph>
<glyph name="G" format="2">
  <advance width="1557"/>
  <unicode hex="0047"/>
  <anchor x="687" y="0" name="bottom"/>
  <anchor x="915" y="1446" name="top"/>
  <outline>
    <contour>
      <point x="680" y="-20" type="curve" smooth="yes"/>
      <point x="917" y="-20"/>
      <point x="1033" y="86"/>
      <point x="1117" y="160" type="curve"/>
      <point x="1094" y="0" type="line"/>
      <point x="1348" y="0" type="line"/>
      <point x="1464" y="764" type="line"/>
      <point x="806" y="768" type="line"/>
      <point x="766" y="506" type="line"/>
      <point x="1016" y="506" type="line"/>
      <point x="991" y="454" type="line"/>
      <point x="961" y="388"/>
      <point x="871" y="318"/>
      <point x="762" y="318" type="curve" smooth="yes"/>
      <point x="638" y="318"/>
      <point x="481" y="376"/>
      <point x="535" y="730" type="curve" smooth="yes"/>
      <point x="583" y="1042"/>
      <point x="727" y="1144"/>
      <point x="871" y="1144" type="curve" smooth="yes"/>
      <point x="1006" y="1144"/>
      <point x="1065" y="1054"/>
      <point x="1073" y="936" type="curve"/>
      <point x="1477" y="936" type="line"/>
      <point x="1514" y="1206"/>
      <point x="1315" y="1466"/>
      <point x="930" y="1466" type="curve" smooth="yes"/>
      <point x="516" y="1466"/>
      <point x="182" y="1168"/>
      <point x="113" y="718" type="curve" smooth="yes"/>
      <point x="45" y="282"/>
      <point x="271" y="-20"/>
    </contour>
  </outline>
</glyph>
<glyph name="H" format="2">
  <advance width="1547"/>
  <unicode hex="0048"/>
  <anchor x="694" y="0" name="bottom"/>
  <anchor x="914" y="1446" name="top"/>
  <outline>
    <contour>
      <point x="62" y="0" type="line"/>
      <point x="451" y="0" type="line"/>
      <point x="533" y="580" type="line"/>
      <point x="1032" y="580" type="line"/>
      <point x="950" y="0" type="line"/>
      <point x="1339" y="0" type="line"/>
      <point x="1543" y="1446" type="line"/>
      <point x="1154" y="1446" type="line"/>
      <point x="1077" y="898" type="line"/>
      <point x="578" y="898" type="line"/>
      <point x="655" y="1446" type="line"/>
      <point x="266" y="1446" type="line"/>
    </contour>
  </outline>
</glyph>
<glyph name="I" format="2">
  <advance width="673"/>
  <unicode hex="0049"/>
  <anchor x="277" y="0" name="bottom"/>
  <anchor x="403" y="9" name="ogonek"/>
  <anchor x="477" y="1446" name="top"/>
  <outline>
    <contour>
      <point x="62" y="0" type="line"/>
      <point x="451" y="0" type="line"/>
      <point x="669" y="1446" type="line"/>
      <point x="281" y="1446" type="line"/>
    </contour>
  </outline>
</glyph>
<glyph name="J" format="2">
  <advance width="838"/>
  <unicode hex="004A"/>
  <anchor x="659" y="1446" name="top"/>
  <outline>
    <contour>
      <point x="215" y="-20" type="curve" smooth="yes"/>
      <point x="561" y="-20"/>
      <point x="663" y="138"/>
      <point x="711" y="458" type="curve" smooth="yes"/>
      <point x="861" y="1446" type="line"/>
      <point x="475" y="1446" type="line"/>
      <point x="339" y="558" type="line" smooth="yes"/>
      <point x="317" y="408"/>
      <point x="273" y="340"/>
      <point x="135" y="340" type="curve" smooth="yes"/>
      <point x="93" y="340"/>
      <point x="45" y="346"/>
      <point x="9" y="350" type="curve"/>
      <point x="-43" y="0" type="line"/>
      <point x="15" y="-12"/>
      <point x="133" y="-20"/>
    </contour>
  </outline>
</glyph>
<glyph name="K" format="2">
  <advance width="1490"/>
  <unicode hex="004B"/>
  <anchor x="644" y="0" name="bottom"/>
  <anchor x="889" y="1446" name="top"/>
  <outline>
    <contour>
      <point x="62" y="0" type="line"/>
      <point x="465" y="0" type="line"/>
      <point x="522" y="378" type="line"/>
      <point x="737" y="610" type="line"/>
      <point x="965" y="0" type="line"/>
      <point x="1379" y="0" type="line"/>
      <point x="1055" y="894" type="line"/>
      <point x="1535" y="1446" type="line"/>
      <point x="1101" y="1446" type="line"/>
      <point x="597" y="862" type="line"/>
      <point x="685" y="1446" type="line"/>
      <point x="283" y="1446" type="line"/>
    </contour>
  </outline>
</glyph>
<glyph name="L" format="2">
  <advance width="1155"/>
  <unicode hex="004C"/>
  <anchor x="537" y="0" name="bottom"/>
  <anchor x="800" y="1446" name="caron"/>
  <anchor x="467" y="1446" name="top"/>
  <outline>
    <contour>
      <point x="62" y="0" type="line"/>
      <point x="1024" y="0" type="line"/>
      <point x="1073" y="320" type="line"/>
      <point x="499" y="320" type="line"/>
      <point x="669" y="1446" type="line"/>
      <point x="283" y="1446" type="line"/>
    </contour>
  </outline>
</glyph>
<glyph name="M" format="2">
  <advance width="1898"/>
  <unicode hex="004D"/>
  <guideline x="477" y="261" angle="255"/>
  <guideline x="477" y="261" angle="105"/>
  <outline>
    <contour>
      <point x="62" y="0" type="line"/>
      <point x="449" y="0" type="line"/>
      <point x="608" y="1048" type="line"/>
      <point x="730" y="0" type="line"/>
      <point x="1009" y="0" type="line"/>
      <point x="1447" y="1048" type="line"/>
      <point x="1289" y="0" type="line"/>
      <point x="1677" y="0" type="line"/>
      <point x="1894" y="1446" type="line"/>
      <point x="1323" y="1446" type="line"/>
      <point x="955" y="564" type="line"/>
      <point x="856" y="1446" type="line"/>
      <point x="281" y="1446" type="line"/>
    </contour>
  </outline>
</glyph>
<glyph name="N" format="2">
  <advance width="1625"/>
  <unicode hex="004E"/>
  <anchor x="730" y="0" name="bottom"/>
  <anchor x="951" y="1446" name="top"/>
  <outline>
    <contour>
      <point x="62" y="0" type="line"/>
      <point x="451" y="0" type="line"/>
      <point x="581" y="862" type="line"/>
      <point x="1051" y="0" type="line"/>
      <point x="1400" y="0" type="line"/>
      <point x="1621" y="1446" type="line"/>
      <point x="1232" y="1446" type="line"/>
      <point x="1111" y="640" type="line"/>
      <point x="673" y="1446" type="line"/>
      <point x="283" y="1446" type="line"/>
    </contour>
  </outline>
</glyph>
<glyph name="O" format="2">
  <advance width="1564"/>
  <unicode hex="004F"/>
  <anchor x="704" y="0" name="bottom"/>
  <anchor x="1354" y="1094" name="horn"/>
  <anchor x="885" y="20" name="ogonek"/>
  <anchor x="902" y="1446" name="top"/>
  <outline>
    <contour>
      <point x="700" y="-20" type="curve" smooth="yes"/>
      <point x="1122" y="-20"/>
      <point x="1438" y="272"/>
      <point x="1507" y="720" type="curve" smooth="yes"/>
      <point x="1574" y="1172"/>
      <point x="1343" y="1466"/>
      <point x="925" y="1466" type="curve" smooth="yes"/>
      <point x="507" y="1466"/>
      <point x="183" y="1172"/>
      <point x="114" y="720" type="curve" smooth="yes"/>
      <point x="46" y="270"/>
      <point x="272" y="-20"/>
    </contour>
    <contour>
      <point x="746" y="292" type="curve" smooth="yes"/>
      <point x="588" y="292"/>
      <point x="488" y="402"/>
      <point x="534" y="714" type="curve" smooth="yes"/>
      <point x="584" y="1036"/>
      <point x="719" y="1154"/>
      <point x="878" y="1154" type="curve" smooth="yes"/>
      <point x="1036" y="1154"/>
      <point x="1135" y="1036"/>
      <point x="1084" y="714" type="curve" smooth="yes"/>
      <point x="1038" y="402"/>
      <point x="906" y="292"/>
    </contour>
  </outline>
</glyph>
<glyph name="Q" format="2">
  <advance width="1587"/>
  <unicode hex="0051"/>
  <outline>
    <contour>
      <point x="1360" y="-250" type="curve"/>
      <point x="1406" y="54" type="line"/>
      <point x="1309" y="54"/>
      <point x="1227" y="104"/>
      <point x="1221" y="160" type="curve"/>
      <point x="1370" y="300"/>
      <point x="1473" y="486"/>
      <point x="1509" y="720" type="curve" smooth="yes"/>
      <point x="1576" y="1172"/>
      <point x="1345" y="1466"/>
      <point x="925" y="1466" type="curve" smooth="yes"/>
      <point x="507" y="1466"/>
      <point x="183" y="1172"/>
      <point x="114" y="720" type="curve" smooth="yes"/>
      <point x="46" y="270"/>
      <point x="272" y="-20"/>
      <point x="700" y="-20" type="curve" smooth="yes"/>
      <point x="750" y="-20"/>
      <point x="790" y="-18"/>
      <point x="860" y="-10" type="curve"/>
      <point x="998" y="-226"/>
      <point x="1130" y="-250"/>
    </contour>
    <contour>
      <point x="746" y="292" type="curve" smooth="yes"/>
      <point x="576" y="292"/>
      <point x="490" y="402"/>
      <point x="536" y="716" type="curve" smooth="yes"/>
      <point x="586" y="1038"/>
      <point x="710" y="1154"/>
      <point x="878" y="1154" type="curve" smooth="yes"/>
      <point x="1044" y="1154"/>
      <point x="1135" y="1038"/>
      <point x="1086" y="716" type="curve" smooth="yes"/>
      <point x="1038" y="402"/>
      <point x="918" y="292"/>
    </contour>
  </outline>
</glyph>
<glyph name="R" format="2">
  <advance width="1420"/>
  <unicode hex="0052"/>
  <anchor x="643" y="0" name="bottom"/>
  <anchor x="843" y="1446" name="top"/>
  <outline>
    <contour>
      <point x="62" y="0" type="line"/>
      <point x="449" y="0" type="line"/>
      <point x="524" y="498" type="line"/>
      <point x="728" y="498" type="line"/>
      <point x="861" y="0" type="line"/>
      <point x="1257" y="0" type="line"/>
      <point x="1089" y="560" type="line"/>
      <point x="1234" y="642"/>
      <point x="1347" y="758"/>
      <point x="1381" y="980" type="curve" smooth="yes"/>
      <point x="1421" y="1242"/>
      <point x="1307" y="1446"/>
      <point x="933" y="1446" type="curve" smooth="yes"/>
      <point x="281" y="1446" type="line"/>
    </contour>
    <contour>
      <point x="569" y="788" type="line"/>
      <point x="625" y="1158" type="line"/>
      <point x="847" y="1158" type="line" smooth="yes"/>
      <point x="933" y="1158"/>
      <point x="1007" y="1076"/>
      <point x="991" y="976" type="curve" smooth="yes"/>
      <point x="977" y="882"/>
      <point x="889" y="788"/>
      <point x="791" y="788" type="curve" smooth="yes"/>
    </contour>
  </outline>
</glyph>
<glyph name="S" format="2">
  <advance width="1441"/>
  <unicode hex="0053"/>
  <anchor x="650" y="0" name="bottom"/>
  <anchor x="870" y="1446" name="top"/>
  <outline>
    <contour>
      <point x="654" y="-20" type="curve" smooth="yes"/>
      <point x="1015" y="-20"/>
      <point x="1312" y="164"/>
      <point x="1349" y="410" type="curve" smooth="yes"/>
      <point x="1370" y="554"/>
      <point x="1385" y="814"/>
      <point x="978" y="886" type="curve" smooth="yes"/>
      <point x="761" y="924" type="line" smooth="yes"/>
      <point x="639" y="946"/>
      <point x="612" y="984"/>
      <point x="622" y="1050" type="curve" smooth="yes"/>
      <point x="630" y="1102"/>
      <point x="685" y="1164"/>
      <point x="836" y="1164" type="curve" smooth="yes"/>
      <point x="971" y="1164"/>
      <point x="1044" y="1120"/>
      <point x="1038" y="1008" type="curve"/>
      <point x="1431" y="1008" type="line"/>
      <point x="1440" y="1246"/>
      <point x="1225" y="1464"/>
      <point x="872" y="1464" type="curve" smooth="yes"/>
      <point x="542" y="1464"/>
      <point x="242" y="1294"/>
      <point x="200" y="1002" type="curve" smooth="yes"/>
      <point x="168" y="756"/>
      <point x="294" y="612"/>
      <point x="515" y="576" type="curve" smooth="yes"/>
      <point x="732" y="538" type="line" smooth="yes"/>
      <point x="851" y="518"/>
      <point x="967" y="498"/>
      <point x="954" y="410" type="curve" smooth="yes"/>
      <point x="938" y="308"/>
      <point x="818" y="278"/>
      <point x="696" y="278" type="curve" smooth="yes"/>
      <point x="562" y="278"/>
      <point x="482" y="338"/>
      <point x="476" y="440" type="curve"/>
      <point x="74" y="440" type="line"/>
      <point x="51" y="118"/>
      <point x="352" y="-20"/>
    </contour>
  </outline>
</glyph>
<glyph name="T" format="2">
  <advance width="1269"/>
  <unicode hex="0054"/>
  <anchor x="564" y="0" name="bottom"/>
  <anchor x="784" y="1446" name="top"/>
  <outline>
    <contour>
      <point x="352" y="0" type="line"/>
      <point x="738" y="0" type="line"/>
      <point x="906" y="1104" type="line"/>
      <point x="1318" y="1104" type="line"/>
      <point x="1370" y="1446" type="line"/>
      <point x="164" y="1446" type="line"/>
      <point x="112" y="1104" type="line"/>
      <point x="518" y="1104" type="line"/>
    </contour>
  </outline>
</glyph>
<glyph name="U" format="2">
  <advance width="1492"/>
  <unicode hex="0055"/>
  <anchor x="675" y="0" name="bottom"/>
  <anchor x="1394" y="1094" name="horn"/>
  <anchor x="797" y="0" name="ogonek"/>
  <anchor x="894" y="1446" name="top"/>
  <outline>
    <contour>
      <point x="673" y="-20" type="curve" smooth="yes"/>
      <point x="1135" y="-20"/>
      <point x="1331" y="230"/>
      <point x="1387" y="598" type="curve" smooth="yes"/>
      <point x="1515" y="1446" type="line"/>
      <point x="1123" y="1446" type="line"/>
      <point x="993" y="582" type="line" smooth="yes"/>
      <point x="963" y="382"/>
      <point x="841" y="306"/>
      <point x="723" y="306" type="curve" smooth="yes"/>
      <point x="601" y="306"/>
      <point x="504" y="382"/>
      <point x="535" y="582" type="curve" smooth="yes"/>
      <point x="667" y="1446" type="line"/>
      <point x="274" y="1446" type="line"/>
      <point x="146" y="598" type="line" smooth="yes"/>
      <point x="90" y="230"/>
      <point x="209" y="-20"/>
    </contour>
  </outline>
</glyph>
<glyph name="V" format="2">
  <advance width="1456"/>
  <unicode hex="0056"/>
  <guideline x="385" y="211" angle="251.38"/>
  <outline>
    <contour>
      <point x="427" y="0" type="line"/>
      <point x="851" y="0" type="line"/>
      <point x="1557" y="1446" type="line"/>
      <point x="1190" y="1446" type="line"/>
      <point x="709" y="456" type="line"/>
      <point x="525" y="1446" type="line"/>
      <point x="161" y="1446" type="line"/>
    </contour>
  </outline>
</glyph>
<glyph name="W" format="2">
  <advance width="1952"/>
  <unicode hex="0057"/>
  <anchor x="1106" y="1446" name="top"/>
  <outline>
    <contour>
      <point x="375" y="0" type="line"/>
      <point x="659" y="0" type="line"/>
      <point x="1007" y="786" type="line"/>
      <point x="1115" y="0" type="line"/>
      <point x="1403" y="0" type="line"/>
      <point x="2053" y="1446" type="line"/>
      <point x="1679" y="1446" type="line"/>
      <point x="1347" y="670" type="line"/>
      <point x="1241" y="1446" type="line"/>
      <point x="971" y="1446" type="line"/>
      <point x="639" y="670" type="line"/>
      <point x="535" y="1446" type="line"/>
      <point x="161" y="1446" type="line"/>
    </contour>
  </outline>
</glyph>
<glyph name="X" format="2">
  <advance width="1476"/>
  <unicode hex="0058"/>
  <outline>
    <contour>
      <point x="-43" y="0" type="line"/>
      <point x="369" y="0" type="line"/>
      <point x="695" y="454" type="line"/>
      <point x="891" y="0" type="line"/>
      <point x="1373" y="0" type="line"/>
      <point x="987" y="786" type="line"/>
      <point x="1515" y="1446" type="line"/>
      <point x="1111" y="1446" type="line"/>
      <point x="831" y="1054" type="line"/>
      <point x="667" y="1446" type="line"/>
      <point x="189" y="1446" type="line"/>
      <point x="537" y="730" type="line"/>
    </contour>
  </outline>
</glyph>
<glyph name="Y" format="2">
  <advance width="1436"/>
  <unicode hex="0059"/>
  <anchor x="627" y="0" name="bottom"/>
  <anchor x="829" y="1446" name="top"/>
  <outline>
    <contour>
      <point x="434" y="0" type="line"/>
      <point x="819" y="0" type="line"/>
      <point x="911" y="602" type="line"/>
      <point x="1552" y="1446" type="line"/>
      <point x="1129" y="1446" type="line"/>
      <point x="770" y="932" type="line"/>
      <point x="563" y="1446" type="line"/>
      <point x="146" y="1446" type="line"/>
      <point x="523" y="602" type="line"/>
    </contour>
  </outline>
</glyph>
<glyph name="Z" format="2">
  <advance width="1408"/>
  <unicode hex="005A"/>
  <anchor x="639" y="0" name="bottom"/>
  <anchor x="905" y="1446" name="top"/>
  <outline>
    <contour>
      <point x="17" y="0" type="line"/>
      <point x="1239" y="0" type="line"/>
      <point x="1288" y="324" type="line"/>
      <point x="609" y="324" type="line"/>
      <point x="1445" y="1276" type="line"/>
      <point x="1471" y="1446" type="line"/>
      <point x="301" y="1446" type="line"/>
      <point x="250" y="1126" type="line"/>
      <point x="865" y="1126" type="line"/>
      <point x="44" y="178" type="line"/>
    </contour>
  </outline>
</glyph>
<glyph name="bracketleft" format="2">
  <advance width="751"/>
  <unicode hex="005B"/>
  <outline>
    <contour>
      <point x="2" y="-322" type="line"/>
      <point x="534" y="-322" type="line"/>
      <point x="566" y="-114" type="line"/>
      <point x="342" y="-114" type="line"/>
      <point x="546" y="1238" type="line"/>
      <point x="770" y="1238" type="line"/>
      <point x="802" y="1446" type="line"/>
      <point x="270" y="1446" type="line"/>
    </contour>
  </outline>
</glyph>
<glyph name="backslash" format="2">
  <advance width="798"/>
  <unicode hex="005C"/>
  <outline>
    <contour>
      <point x="439" y="0" type="line"/>
      <point x="695" y="0" type="line"/>
      <point x="407" y="1446" type="line"/>
      <point x="151" y="1446" type="line"/>
    </contour>
  </outline>
</glyph>
<glyph name="bracketright" format="2">
  <advance width="751"/>
  <unicode hex="005D"/>
  <outline>
    <contour>
      <point x="-38" y="-322" type="line"/>
      <point x="494" y="-322" type="line"/>
      <point x="762" y="1446" type="line"/>
      <point x="230" y="1446" type="line"/>
      <point x="198" y="1238" type="line"/>
      <point x="422" y="1238" type="line"/>
      <point x="218" y="-114" type="line"/>
      <point x="-6" y="-114" type="line"/>
    </contour>
  </outline>
</glyph>
<glyph name="asciicircum" format="2">
  <advance width="982"/>
  <unicode hex="005E"/>
  <outline>
    <contour>
      <point x="620" y="234" type="line"/>
      <point x="862" y="234" type="line"/>
      <point x="658" y="984" type="line" smooth="yes"/>
      <point x="630" y="1078"/>
      <point x="498" y="1072"/>
      <point x="444" y="982" type="curve" smooth="yes"/>
      <point x="10" y="234" type="line"/>
      <point x="254" y="234" type="line"/>
      <point x="504" y="678" type="line"/>
    </contour>
  </outline>
</glyph>
<glyph name="underscore" format="2">
  <advance width="1167"/>
  <unicode hex="005F"/>
  <outline>
    <contour>
      <point x="-7" y="-312" type="line"/>
      <point x="927" y="-312" type="line"/>
      <point x="969" y="-40" type="line"/>
      <point x="35" y="-40" type="line"/>
    </contour>
  </outline>
</glyph>
<glyph name="a" format="2">
  <advance width="1158"/>
  <unicode hex="0061"/>
  <anchor x="520" y="0" name="bottom"/>
  <anchor x="934" y="20" name="ogonek"/>
  <anchor x="680" y="1034" name="top"/>
  <outline>
    <contour>
      <point x="344" y="-20" type="curve" smooth="yes"/>
      <point x="482" y="-20"/>
      <point x="573" y="24"/>
      <point x="657" y="164" type="curve"/>
      <point x="666" y="0" type="line"/>
      <point x="986" y="0" type="line"/>
      <point x="1098" y="732" type="line" smooth="yes"/>
      <point x="1126" y="922"/>
      <point x="1037" y="1054"/>
      <point x="682" y="1054" type="curve" smooth="yes"/>
      <point x="416" y="1054"/>
      <point x="188" y="956"/>
      <point x="138" y="712" type="curve"/>
      <point x="451" y="712" type="line"/>
      <point x="493" y="782"/>
      <point x="571" y="800"/>
      <point x="626" y="802" type="curve" smooth="yes"/>
      <point x="701" y="804"/>
      <point x="734" y="774"/>
      <point x="724" y="708" type="curve" smooth="yes"/>
      <point x="718" y="664" type="line"/>
      <point x="638" y="664" type="line" smooth="yes"/>
      <point x="264" y="664"/>
      <point x="71" y="534"/>
      <point x="37" y="310" type="curve" smooth="yes"/>
      <point x="6" y="96"/>
      <point x="148" y="-20"/>
    </contour>
    <contour>
      <point x="516" y="226" type="curve" smooth="yes"/>
      <point x="449" y="226"/>
      <point x="396" y="272"/>
      <point x="407" y="350" type="curve" smooth="yes"/>
      <point x="422" y="452"/>
      <point x="566" y="480"/>
      <point x="628" y="480" type="curve" smooth="yes"/>
      <point x="690" y="480" type="line"/>
      <point x="670" y="350" type="line"/>
      <point x="657" y="284"/>
      <point x="592" y="226"/>
    </contour>
  </outline>
</glyph>
<glyph name="b" format="2">
  <advance width="1238"/>
  <unicode hex="0062"/>
  <outline>
    <contour>
      <point x="658" y="-20" type="curve" smooth="yes"/>
      <point x="944" y="-20"/>
      <point x="1132" y="194"/>
      <point x="1179" y="524" type="curve" smooth="yes"/>
      <point x="1224" y="850"/>
      <point x="1105" y="1054"/>
      <point x="851" y="1054" type="curve" smooth="yes"/>
      <point x="748" y="1054"/>
      <point x="625" y="1022"/>
      <point x="546" y="916" type="curve"/>
      <point x="626" y="1486" type="line"/>
      <point x="236" y="1486" type="line"/>
      <point x="27" y="0" type="line"/>
      <point x="302" y="0" type="line"/>
      <point x="378" y="212" type="line"/>
      <point x="405" y="68"/>
      <point x="490" y="-20"/>
    </contour>
    <contour>
      <point x="604" y="252" type="curve"/>
      <point x="513" y="252"/>
      <point x="462" y="320"/>
      <point x="491" y="524" type="curve" smooth="yes"/>
      <point x="516" y="708"/>
      <point x="588" y="780"/>
      <point x="679" y="780" type="curve" smooth="yes"/>
      <point x="767" y="780"/>
      <point x="830" y="716"/>
      <point x="803" y="524" type="curve" smooth="yes"/>
      <point x="774" y="320"/>
      <point x="692" y="252"/>
    </contour>
  </outline>
</glyph>
<glyph name="c" format="2">
  <advance width="1096"/>
  <unicode hex="0063"/>
  <anchor x="496" y="0" name="bottom"/>
  <anchor x="657" y="1034" name="top"/>
  <outline>
    <contour>
      <point x="496" y="-20" type="curve" smooth="yes"/>
      <point x="777" y="-20"/>
      <point x="973" y="180"/>
      <point x="1005" y="400" type="curve"/>
      <point x="700" y="400" type="line"/>
      <point x="689" y="358"/>
      <point x="645" y="248"/>
      <point x="547" y="248" type="curve" smooth="yes"/>
      <point x="449" y="248"/>
      <point x="389" y="346"/>
      <point x="414" y="516" type="curve" smooth="yes"/>
      <point x="441" y="682"/>
      <point x="519" y="766"/>
      <point x="618" y="766" type="curve" smooth="yes"/>
      <point x="717" y="766"/>
      <point x="731" y="670"/>
      <point x="729" y="612" type="curve"/>
      <point x="1043" y="612" type="line"/>
      <point x="1073" y="844"/>
      <point x="950" y="1054"/>
      <point x="658" y="1054" type="curve" smooth="yes"/>
      <point x="361" y="1054"/>
      <point x="107" y="832"/>
      <point x="59" y="512" type="curve" smooth="yes"/>
      <point x="11" y="196"/>
      <point x="202" y="-20"/>
    </contour>
  </outline>
</glyph>
<glyph name="d" format="2">
  <advance width="1238"/>
  <unicode hex="0064"/>
  <anchor x="553" y="0" name="bottom"/>
  <anchor x="1274" y="1486" name="caron"/>
  <anchor x="631" y="516" name="center"/>
  <outline>
    <contour>
      <point x="428" y="-20" type="curve" smooth="yes"/>
      <point x="596" y="-20"/>
      <point x="707" y="68"/>
      <point x="774" y="212" type="curve"/>
      <point x="790" y="0" type="line"/>
      <point x="1065" y="0" type="line"/>
      <point x="1274" y="1486" type="line"/>
      <point x="884" y="1486" type="line"/>
      <point x="804" y="916" type="line"/>
      <point x="755" y="1022"/>
      <point x="640" y="1054"/>
      <point x="537" y="1054" type="curve" smooth="yes"/>
      <point x="283" y="1054"/>
      <point x="106" y="850"/>
      <point x="61" y="524" type="curve" smooth="yes"/>
      <point x="14" y="194"/>
      <point x="142" y="-20"/>
    </contour>
    <contour>
      <point x="558" y="252" type="curve"/>
      <point x="470" y="252"/>
      <point x="408" y="320"/>
      <point x="437" y="524" type="curve" smooth="yes"/>
      <point x="464" y="716"/>
      <point x="545" y="780"/>
      <point x="633" y="780" type="curve" smooth="yes"/>
      <point x="724" y="780"/>
      <point x="774" y="708"/>
      <point x="749" y="524" type="curve" smooth="yes"/>
      <point x="720" y="320"/>
      <point x="649" y="252"/>
    </contour>
  </outline>
</glyph>
<glyph name="e" format="2">
  <advance width="1161"/>
  <unicode hex="0065"/>
  <anchor x="518" y="0" name="bottom"/>
  <anchor x="774" y="50" name="ogonek"/>
  <anchor x="667" y="1034" name="top"/>
  <outline>
    <contour>
      <point x="522" y="-20" type="curve" smooth="yes"/>
      <point x="751" y="-20"/>
      <point x="1006" y="122"/>
      <point x="1072" y="352" type="curve"/>
      <point x="730" y="352" type="line"/>
      <point x="686" y="272"/>
      <point x="625" y="252"/>
      <point x="554" y="252" type="curve" smooth="yes"/>
      <point x="470" y="252"/>
      <point x="409" y="304"/>
      <point x="432" y="428" type="curve"/>
      <point x="1079" y="428" type="line"/>
      <point x="1094" y="518" type="line"/>
      <point x="1140" y="824"/>
      <point x="1006" y="1054"/>
      <point x="669" y="1054" type="curve" smooth="yes"/>
      <point x="340" y="1054"/>
      <point x="108" y="800"/>
      <point x="64" y="504" type="curve" smooth="yes"/>
      <point x="16" y="190"/>
      <point x="201" y="-20"/>
    </contour>
    <contour>
      <point x="461" y="646" type="line"/>
      <point x="474" y="724"/>
      <point x="550" y="792"/>
      <point x="629" y="792" type="curve" smooth="yes"/>
      <point x="728" y="792"/>
      <point x="768" y="724"/>
      <point x="756" y="646" type="curve"/>
    </contour>
  </outline>
</glyph>
<glyph name="f" format="2">
  <advance width="795"/>
  <unicode hex="0066"/>
  <outline>
    <contour>
      <point x="114" y="0" type="line"/>
      <point x="500" y="0" type="line"/>
      <point x="618" y="770" type="line"/>
      <point x="805" y="770" type="line"/>
      <point x="845" y="1034" type="line"/>
      <point x="650" y="1034" type="line"/>
      <point x="658" y="1094" type="line" smooth="yes"/>
      <point x="671" y="1170"/>
      <point x="696" y="1194"/>
      <point x="761" y="1194" type="curve" smooth="yes"/>
      <point x="879" y="1194" type="line"/>
      <point x="916" y="1446" type="line"/>
      <point x="641" y="1446" type="line" smooth="yes"/>
      <point x="452" y="1446"/>
      <point x="318" y="1342"/>
      <point x="292" y="1172" type="curve" smooth="yes"/>
      <point x="271" y="1034" type="line"/>
      <point x="106" y="1034" type="line"/>
      <point x="66" y="770" type="line"/>
      <point x="231" y="770" type="line"/>
    </contour>
  </outline>
</glyph>
<glyph name="g" format="2">
  <advance width="1267"/>
  <unicode hex="0067"/>
  <anchor x="772" y="1034" name="top"/>
  <outline>
    <contour>
      <point x="516" y="-342" type="curve" smooth="yes"/>
      <point x="899" y="-342"/>
      <point x="1107" y="-205"/>
      <point x="1134" y="-16" type="curve" smooth="yes"/>
      <point x="1158" y="155"/>
      <point x="1043" y="295"/>
      <point x="750" y="314" type="curve" smooth="yes"/>
      <point x="672" y="321"/>
      <point x="591" y="323"/>
      <point x="546" y="327" type="curve" smooth="yes"/>
      <point x="474" y="333"/>
      <point x="413" y="343"/>
      <point x="406" y="375" type="curve" smooth="yes"/>
      <point x="403" y="389"/>
      <point x="421" y="381"/>
      <point x="451" y="379" type="curve"/>
      <point x="476" y="377"/>
      <point x="547" y="374"/>
      <point x="588" y="374" type="curve" smooth="yes"/>
      <point x="907" y="374"/>
      <point x="1096" y="543"/>
      <point x="1120" y="708" type="curve" smooth="yes"/>
      <point x="1123" y="731"/>
      <point x="1122" y="769"/>
      <point x="1118" y="799" type="curve"/>
      <point x="1302" y="834" type="line"/>
      <point x="1334" y="1114" type="line"/>
      <point x="1214" y="1066"/>
      <point x="1058" y="1010"/>
      <point x="967" y="975" type="curve"/>
      <point x="904" y="1011"/>
      <point x="829" y="1050"/>
      <point x="672" y="1050" type="curve" smooth="yes"/>
      <point x="368" y="1050"/>
      <point x="147" y="930"/>
      <point x="121" y="750" type="curve" smooth="yes"/>
      <point x="104" y="629"/>
      <point x="165" y="490"/>
      <point x="297" y="426" type="curve"/>
      <point x="123" y="400"/>
      <point x="47" y="331"/>
      <point x="37" y="260" type="curve" smooth="yes"/>
      <point x="19" y="135"/>
      <point x="136" y="85"/>
      <point x="156" y="73" type="curve"/>
      <point x="131" y="64"/>
      <point x="-54" y="41"/>
      <point x="-72" y="-82" type="curve" smooth="yes"/>
      <point x="-92" y="-225"/>
      <point x="99" y="-342"/>
    </contour>
    <contour>
      <point x="569" y="-138" type="curve" smooth="yes"/>
      <point x="380" y="-138"/>
      <point x="299" y="-126"/>
      <point x="307" y="-71" type="curve" smooth="yes"/>
      <point x="313" y="-26"/>
      <point x="355" y="23"/>
      <point x="463" y="17" type="curve" smooth="yes"/>
      <point x="650" y="5" type="line" smooth="yes"/>
      <point x="729" y="-1"/>
      <point x="765" y="-19"/>
      <point x="761" y="-52" type="curve" smooth="yes"/>
      <point x="754" y="-101"/>
      <point x="714" y="-138"/>
    </contour>
    <contour>
      <point x="593" y="578" type="curve" smooth="yes"/>
      <point x="528" y="578"/>
      <point x="494" y="625"/>
      <point x="503" y="692" type="curve" smooth="yes"/>
      <point x="516" y="781"/>
      <point x="586" y="860"/>
      <point x="669" y="860" type="curve" smooth="yes"/>
      <point x="734" y="860"/>
      <point x="767" y="803"/>
      <point x="757" y="736" type="curve" smooth="yes"/>
      <point x="745" y="647"/>
      <point x="676" y="578"/>
    </contour>
  </outline>
</glyph>
<glyph name="h" format="2">
  <advance width="1216"/>
  <unicode hex="0068"/>
  <anchor x="539" y="0" name="bottom"/>
  <anchor x="436" y="1446" name="top"/>
  <outline>
    <contour>
      <point x="27" y="0" type="line"/>
      <point x="415" y="0" type="line"/>
      <point x="514" y="642" type="line"/>
      <point x="522" y="700"/>
      <point x="591" y="740"/>
      <point x="649" y="740" type="curve" smooth="yes"/>
      <point x="707" y="740"/>
      <point x="766" y="704"/>
      <point x="755" y="646" type="curve" smooth="yes"/>
      <point x="657" y="0" type="line"/>
      <point x="1045" y="0" type="line"/>
      <point x="1151" y="692" type="line" smooth="yes"/>
      <point x="1182" y="898"/>
      <point x="1035" y="1034"/>
      <point x="843" y="1034" type="curve" smooth="yes"/>
      <point x="682" y="1034"/>
      <point x="609" y="966"/>
      <point x="554" y="906" type="curve"/>
      <point x="642" y="1486" type="line"/>
      <point x="253" y="1486" type="line"/>
    </contour>
  </outline>
</glyph>
<glyph name="i" format="2">
  <advance width="571"/>
  <unicode hex="0069"/>
  <anchor x="212" y="0" name="bottom"/>
  <anchor x="363" y="18" name="ogonek"/>
  <outline>
    <contour>
      <point x="27" y="0" type="line"/>
      <point x="397" y="0" type="line"/>
      <point x="543" y="1034" type="line"/>
      <point x="173" y="1034" type="line"/>
    </contour>
    <contour>
      <point x="185" y="1118" type="line"/>
      <point x="555" y="1118" type="line"/>
      <point x="601" y="1446" type="line"/>
      <point x="231" y="1446" type="line"/>
    </contour>
  </outline>
</glyph>
<glyph name="j" format="2">
  <advance width="639"/>
  <unicode hex="006A"/>
  <outline>
    <contour>
      <point x="-7" y="-332" type="curve"/>
      <point x="267" y="-332"/>
      <point x="419" y="-200"/>
      <point x="457" y="56" type="curve" smooth="yes"/>
      <point x="606" y="1034" type="line"/>
      <point x="219" y="1034" type="line"/>
      <point x="70" y="56" type="line"/>
      <point x="64" y="14"/>
      <point x="41" y="-12"/>
      <point x="-35" y="-28" type="curve"/>
      <point x="-98" y="-38" type="line"/>
      <point x="-135" y="-298" type="line"/>
      <point x="-135" y="-298"/>
      <point x="-109" y="-332"/>
    </contour>
    <contour>
      <point x="236" y="1158" type="line"/>
      <point x="625" y="1158" type="line"/>
      <point x="675" y="1486" type="line"/>
      <point x="287" y="1486" type="line"/>
    </contour>
  </outline>
</glyph>
<glyph name="k" format="2">
  <advance width="1194"/>
  <unicode hex="006B"/>
  <anchor x="529" y="0" name="bottom"/>
  <outline>
    <contour>
      <point x="27" y="0" type="line"/>
      <point x="413" y="0" type="line"/>
      <point x="459" y="292" type="line"/>
      <point x="547" y="380" type="line"/>
      <point x="726" y="0" type="line"/>
      <point x="1102" y="0" type="line"/>
      <point x="815" y="606" type="line"/>
      <point x="1257" y="1034" type="line"/>
      <point x="854" y="1034" type="line"/>
      <point x="518" y="686" type="line"/>
      <point x="640" y="1486" type="line"/>
      <point x="251" y="1486" type="line"/>
    </contour>
  </outline>
</glyph>
<glyph name="l" format="2">
  <advance width="701"/>
  <unicode hex="006C"/>
  <anchor x="190" y="0" name="bottom"/>
  <anchor x="629" y="1486" name="caron"/>
  <anchor x="449" y="1530" name="top"/>
  <outline>
    <contour>
      <point x="413" y="-22" type="curve" smooth="yes"/>
      <point x="461" y="-22"/>
      <point x="514" y="-8"/>
      <point x="562" y="10" type="curve"/>
      <point x="598" y="246" type="line"/>
      <point x="558" y="250" type="line"/>
      <point x="455" y="264"/>
      <point x="451" y="314"/>
      <point x="459" y="364" type="curve" smooth="yes"/>
      <point x="629" y="1486" type="line"/>
      <point x="249" y="1486" type="line"/>
      <point x="71" y="312" type="line"/>
      <point x="49" y="160"/>
      <point x="33" y="-22"/>
    </contour>
  </outline>
</glyph>
<glyph name="m" format="2">
  <advance width="1843"/>
  <unicode hex="006D"/>
  <outline>
    <contour>
      <point x="27" y="0" type="line"/>
      <point x="413" y="0" type="line"/>
      <point x="518" y="682" type="line"/>
      <point x="527" y="742"/>
      <point x="596" y="778"/>
      <point x="653" y="778" type="curve" smooth="yes"/>
      <point x="711" y="778"/>
      <point x="770" y="742"/>
      <point x="759" y="682" type="curve" smooth="yes"/>
      <point x="655" y="0" type="line"/>
      <point x="1041" y="0" type="line"/>
      <point x="1135" y="620" type="line" smooth="yes"/>
      <point x="1151" y="716"/>
      <point x="1173" y="778"/>
      <point x="1285" y="778" type="curve" smooth="yes"/>
      <point x="1343" y="778"/>
      <point x="1399" y="742"/>
      <point x="1390" y="682" type="curve" smooth="yes"/>
      <point x="1285" y="0" type="line"/>
      <point x="1673" y="0" type="line"/>
      <point x="1783" y="728" type="line" smooth="yes"/>
      <point x="1815" y="934"/>
      <point x="1657" y="1054"/>
      <point x="1497" y="1054" type="curve" smooth="yes"/>
      <point x="1388" y="1054"/>
      <point x="1249" y="998"/>
      <point x="1163" y="910" type="curve"/>
      <point x="1113" y="1018"/>
      <point x="1001" y="1054"/>
      <point x="901" y="1054" type="curve" smooth="yes"/>
      <point x="741" y="1054"/>
      <point x="625" y="992"/>
      <point x="545" y="910" type="curve"/>
      <point x="565" y="1034" type="line"/>
      <point x="184" y="1034" type="line"/>
    </contour>
  </outline>
</glyph>
<glyph name="n" format="2">
  <advance width="1218"/>
  <unicode hex="006E"/>
  <anchor x="537" y="0" name="bottom"/>
  <anchor x="693" y="1034" name="top"/>
  <outline>
    <contour>
      <point x="27" y="0" type="line"/>
      <point x="415" y="0" type="line"/>
      <point x="514" y="646" type="line"/>
      <point x="522" y="704"/>
      <point x="596" y="740"/>
      <point x="653" y="740" type="curve" smooth="yes"/>
      <point x="709" y="740"/>
      <point x="768" y="704"/>
      <point x="757" y="646" type="curve" smooth="yes"/>
      <point x="659" y="0" type="line"/>
      <point x="1047" y="0" type="line"/>
      <point x="1153" y="698" type="line" smooth="yes"/>
      <point x="1184" y="892"/>
      <point x="1025" y="1038"/>
      <point x="846" y="1038" type="curve" smooth="yes"/>
      <point x="684" y="1038"/>
      <point x="623" y="976"/>
      <point x="549" y="910" type="curve"/>
      <point x="567" y="1034" type="line"/>
      <point x="186" y="1034" type="line"/>
    </contour>
  </outline>
</glyph>
<glyph name="p" format="2">
  <advance width="1236"/>
  <unicode hex="0070"/>
  <outline>
    <contour>
      <point x="-18" y="-322" type="line"/>
      <point x="371" y="-322" type="line"/>
      <point x="434" y="126" type="line"/>
      <point x="487" y="20"/>
      <point x="593" y="-20"/>
      <point x="678" y="-20" type="curve" smooth="yes"/>
      <point x="898" y="-20"/>
      <point x="1120" y="126"/>
      <point x="1176" y="520" type="curve" smooth="yes"/>
      <point x="1227" y="886"/>
      <point x="1087" y="1054"/>
      <point x="871" y="1054" type="curve" smooth="yes"/>
      <point x="774" y="1054"/>
      <point x="640" y="1020"/>
      <point x="547" y="914" type="curve"/>
      <point x="564" y="1034" type="line"/>
      <point x="173" y="1034" type="line"/>
    </contour>
    <contour>
      <point x="615" y="258" type="curve"/>
      <point x="501" y="258"/>
      <point x="472" y="393"/>
      <point x="490" y="520" type="curve" smooth="yes"/>
      <point x="509" y="660"/>
      <point x="574" y="780"/>
      <point x="688" y="780" type="curve" smooth="yes"/>
      <point x="774" y="780"/>
      <point x="839" y="688"/>
      <point x="816" y="520" type="curve" smooth="yes"/>
      <point x="790" y="334"/>
      <point x="701" y="258"/>
    </contour>
  </outline>
</glyph>
<glyph name="q" format="2">
  <advance width="1234"/>
  <unicode hex="0071"/>
  <outline>
    <contour>
      <point x="627" y="-322" type="line"/>
      <point x="1016" y="-322" type="line"/>
      <point x="1207" y="1034" type="line"/>
      <point x="816" y="1034" type="line"/>
      <point x="799" y="914" type="line"/>
      <point x="736" y="1020"/>
      <point x="612" y="1054"/>
      <point x="515" y="1054" type="curve" smooth="yes"/>
      <point x="299" y="1054"/>
      <point x="111" y="886"/>
      <point x="60" y="520" type="curve" smooth="yes"/>
      <point x="4" y="126"/>
      <point x="186" y="-20"/>
      <point x="406" y="-20" type="curve" smooth="yes"/>
      <point x="491" y="-20"/>
      <point x="607" y="20"/>
      <point x="690" y="126" type="curve"/>
    </contour>
    <contour>
      <point x="547" y="258" type="curve"/>
      <point x="461" y="258"/>
      <point x="394" y="334"/>
      <point x="420" y="520" type="curve" smooth="yes"/>
      <point x="443" y="688"/>
      <point x="534" y="780"/>
      <point x="620" y="780" type="curve" smooth="yes"/>
      <point x="734" y="780"/>
      <point x="765" y="660"/>
      <point x="746" y="520" type="curve"/>
      <point x="728" y="393"/>
      <point x="661" y="258"/>
    </contour>
  </outline>
</glyph>
<glyph name="r" format="2">
  <advance width="849"/>
  <unicode hex="0072"/>
  <anchor x="217" y="0" name="bottom"/>
  <anchor x="556" y="1034" name="top"/>
  <outline>
    <contour>
      <point x="28" y="0" type="line"/>
      <point x="417" y="0" type="line"/>
      <point x="487" y="496" type="line" smooth="yes"/>
      <point x="502" y="604"/>
      <point x="564" y="718"/>
      <point x="850" y="688" type="curve"/>
      <point x="856" y="687"/>
      <point x="858" y="687"/>
      <point x="862" y="686" type="curve"/>
      <point x="914" y="1054" type="line"/>
      <point x="914" y="1054"/>
      <point x="908" y="1054"/>
      <point x="899" y="1054" type="curve"/>
      <point x="707" y="1054"/>
      <point x="579" y="914"/>
      <point x="509" y="748" type="curve"/>
      <point x="549" y="1034" type="line"/>
      <point x="173" y="1034" type="line"/>
    </contour>
  </outline>
</glyph>
<glyph name="s" format="2">
  <advance width="1092"/>
  <unicode hex="0073"/>
  <anchor x="478" y="0" name="bottom"/>
  <anchor x="635" y="1034" name="top"/>
  <outline>
    <contour>
      <point x="481" y="-20" type="curve" smooth="yes"/>
      <point x="745" y="-20"/>
      <point x="967" y="98"/>
      <point x="998" y="320" type="curve" smooth="yes"/>
      <point x="1010" y="406"/>
      <point x="989" y="580"/>
      <point x="732" y="644" type="curve"/>
      <point x="602" y="668" type="line"/>
      <point x="494" y="686"/>
      <point x="453" y="706"/>
      <point x="458" y="742" type="curve" smooth="yes"/>
      <point x="463" y="782"/>
      <point x="523" y="804"/>
      <point x="595" y="804" type="curve" smooth="yes"/>
      <point x="666" y="804"/>
      <point x="724" y="774"/>
      <point x="730" y="712" type="curve"/>
      <point x="1047" y="712" type="line"/>
      <point x="1077" y="922"/>
      <point x="917" y="1054"/>
      <point x="635" y="1054" type="curve" smooth="yes"/>
      <point x="333" y="1054"/>
      <point x="142" y="902"/>
      <point x="117" y="710" type="curve" smooth="yes"/>
      <point x="93" y="524"/>
      <point x="212" y="430"/>
      <point x="405" y="394" type="curve"/>
      <point x="554" y="370" type="line"/>
      <point x="645" y="356"/>
      <point x="674" y="336"/>
      <point x="668" y="298" type="curve" smooth="yes"/>
      <point x="662" y="256"/>
      <point x="601" y="236"/>
      <point x="515" y="236" type="curve" smooth="yes"/>
      <point x="481" y="236"/>
      <point x="378" y="248"/>
      <point x="366" y="348" type="curve"/>
      <point x="36" y="348" type="line"/>
      <point x="43" y="84"/>
      <point x="265" y="-20"/>
    </contour>
  </outline>
</glyph>
<glyph name="t" format="2">
  <advance width="880"/>
  <unicode hex="0074"/>
  <anchor x="425" y="18" name="bottom"/>
  <anchor x="675" y="1586" name="caron"/>
  <anchor x="429" y="516" name="center"/>
  <outline>
    <contour>
      <point x="519" y="-16" type="curve" smooth="yes"/>
      <point x="643" y="-16"/>
      <point x="698" y="2"/>
      <point x="729" y="16" type="curve"/>
      <point x="763" y="246" type="line"/>
      <point x="603" y="246" type="line" smooth="yes"/>
      <point x="568" y="246"/>
      <point x="542" y="256"/>
      <point x="549" y="302" type="curve" smooth="yes"/>
      <point x="618" y="770" type="line"/>
      <point x="843" y="770" type="line"/>
      <point x="883" y="1036" type="line"/>
      <point x="658" y="1036" type="line"/>
      <point x="706" y="1356" type="line"/>
      <point x="393" y="1356" type="line"/>
      <point x="286" y="1034" type="line"/>
      <point x="106" y="1034" type="line"/>
      <point x="66" y="770" type="line"/>
      <point x="232" y="770" type="line"/>
      <point x="158" y="284" type="line" smooth="yes"/>
      <point x="133" y="118"/>
      <point x="194" y="-16"/>
    </contour>
  </outline>
</glyph>
<glyph name="u" format="2">
  <advance width="1218"/>
  <unicode hex="0075"/>
  <anchor x="522" y="0" name="bottom"/>
  <anchor x="1074" y="714" name="horn"/>
  <anchor x="993" y="20" name="ogonek"/>
  <anchor x="677" y="1034" name="top"/>
  <outline>
    <contour>
      <point x="406" y="-20" type="curve" smooth="yes"/>
      <point x="506" y="-20"/>
      <point x="674" y="6"/>
      <point x="741" y="212" type="curve"/>
      <point x="757" y="0" type="line"/>
      <point x="1045" y="0" type="line"/>
      <point x="1190" y="1034" type="line"/>
      <point x="804" y="1034" type="line"/>
      <point x="709" y="360" type="line"/>
      <point x="701" y="300"/>
      <point x="646" y="254"/>
      <point x="568" y="254" type="curve" smooth="yes"/>
      <point x="489" y="254"/>
      <point x="450" y="300"/>
      <point x="458" y="360" type="curve" smooth="yes"/>
      <point x="553" y="1034" type="line"/>
      <point x="163" y="1034" type="line"/>
      <point x="61" y="306" type="line" smooth="yes"/>
      <point x="32" y="98"/>
      <point x="239" y="-20"/>
    </contour>
  </outline>
</glyph>
<glyph name="v" format="2">
  <advance width="1063"/>
  <unicode hex="0076"/>
  <outline>
    <contour>
      <point x="323" y="0" type="line"/>
      <point x="571" y="0" type="line"/>
      <point x="1129" y="1034" type="line"/>
      <point x="779" y="1034" type="line"/>
      <point x="525" y="506" type="line"/>
      <point x="525" y="506" type="line"/>
      <point x="425" y="1034" type="line"/>
      <point x="81" y="1034" type="line"/>
    </contour>
  </outline>
</glyph>
<glyph name="w" format="2">
  <advance width="1585"/>
  <unicode hex="0077"/>
  <anchor x="873" y="1034" name="top"/>
  <outline>
    <contour>
      <point x="273" y="0" type="line"/>
      <point x="537" y="0" type="line"/>
      <point x="777" y="502" type="line"/>
      <point x="854" y="0" type="line"/>
      <point x="1129" y="0" type="line"/>
      <point x="1649" y="1034" type="line"/>
      <point x="1306" y="1034" type="line"/>
      <point x="1069" y="530" type="line"/>
      <point x="1069" y="530" type="line"/>
      <point x="999" y="1034" type="line"/>
      <point x="731" y="1034" type="line"/>
      <point x="503" y="532" type="line"/>
      <point x="503" y="532" type="line"/>
      <point x="419" y="1034" type="line"/>
      <point x="83" y="1034" type="line"/>
    </contour>
  </outline>
</glyph>
<glyph name="x" format="2">
  <advance width="1211"/>
  <unicode hex="0078"/>
  <guideline x="226" y="478" angle="306.2069"/>
  <guideline x="38" y="0" angle="53.793"/>
  <outline>
    <contour>
      <point x="-63" y="0" type="line"/>
      <point x="336" y="0" type="line"/>
      <point x="576" y="274" type="line"/>
      <point x="732" y="0" type="line"/>
      <point x="1128" y="0" type="line"/>
      <point x="818" y="540" type="line"/>
      <point x="1254" y="1034" type="line"/>
      <point x="856" y="1034" type="line"/>
      <point x="660" y="810" type="line"/>
      <point x="528" y="1034" type="line"/>
      <point x="132" y="1034" type="line"/>
      <point x="414" y="540" type="line"/>
    </contour>
  </outline>
</glyph>
<glyph name="y" format="2">
  <advance width="1169"/>
  <unicode hex="0079"/>
  <anchor x="645" y="1034" name="top"/>
  <outline>
    <contour>
      <point x="179" y="-330" type="curve" smooth="yes"/>
      <point x="357" y="-330"/>
      <point x="503" y="-266"/>
      <point x="688" y="60" type="curve" smooth="yes"/>
      <point x="1235" y="1034" type="line"/>
      <point x="857" y="1034" type="line"/>
      <point x="569" y="472" type="line"/>
      <point x="461" y="1034" type="line"/>
      <point x="81" y="1034" type="line"/>
      <point x="333" y="60" type="line"/>
      <point x="325" y="40" type="line"/>
      <point x="319" y="28"/>
      <point x="297" y="-62"/>
      <point x="97" y="-46" type="curve" smooth="yes"/>
      <point x="-1" y="-40" type="line"/>
      <point x="-37" y="-286" type="line" smooth="yes"/>
      <point x="-37" y="-286"/>
      <point x="22" y="-330"/>
    </contour>
  </outline>
</glyph>
<glyph name="z" format="2">
  <advance width="1025"/>
  <unicode hex="007A"/>
  <anchor x="414" y="0" name="bottom"/>
  <anchor x="598" y="1034" name="top"/>
  <outline>
    <contour>
      <point x="-20" y="0" type="line"/>
      <point x="900" y="0" type="line"/>
      <point x="938" y="266" type="line"/>
      <point x="495" y="266" type="line"/>
      <point x="1019" y="828" type="line"/>
      <point x="1044" y="1034" type="line"/>
      <point x="152" y="1034" type="line"/>
      <point x="115" y="768" type="line"/>
      <point x="529" y="768" type="line"/>
      <point x="6" y="206" type="line"/>
    </contour>
  </outline>
</glyph>
<glyph name="braceleft" format="2">
  <advance width="878"/>
  <unicode hex="007B"/>
  <outline>
    <contour>
      <point x="481" y="-322" type="curve" smooth="yes"/>
      <point x="659" y="-322" type="line"/>
      <point x="691" y="-114" type="line"/>
      <point x="591" y="-114" type="line" smooth="yes"/>
      <point x="495" y="-114"/>
      <point x="471" y="-84"/>
      <point x="483" y="-10" type="curve" smooth="yes"/>
      <point x="539" y="364" type="line" smooth="yes"/>
      <point x="559" y="528"/>
      <point x="437" y="560"/>
      <point x="349" y="568" type="curve" smooth="yes"/>
      <point x="333" y="570"/>
      <point x="335" y="578"/>
      <point x="351" y="580" type="curve" smooth="yes"/>
      <point x="445" y="590"/>
      <point x="575" y="632"/>
      <point x="601" y="764" type="curve" smooth="yes"/>
      <point x="657" y="1134" type="line" smooth="yes"/>
      <point x="665" y="1186"/>
      <point x="673" y="1238"/>
      <point x="795" y="1238" type="curve" smooth="yes"/>
      <point x="897" y="1238" type="line"/>
      <point x="929" y="1446" type="line"/>
      <point x="743" y="1446" type="line" smooth="yes"/>
      <point x="591" y="1446"/>
      <point x="383" y="1364"/>
      <point x="355" y="1182" type="curve" smooth="yes"/>
      <point x="301" y="828" type="line" smooth="yes"/>
      <point x="285" y="712"/>
      <point x="215" y="664"/>
      <point x="53" y="664" type="curve"/>
      <point x="25" y="484" type="line"/>
      <point x="187" y="484"/>
      <point x="241" y="422"/>
      <point x="225" y="328" type="curve" smooth="yes"/>
      <point x="167" y="-56" type="line" smooth="yes"/>
      <point x="139" y="-242"/>
      <point x="323" y="-322"/>
    </contour>
  </outline>
</glyph>
<glyph name="braceright" format="2">
  <advance width="869"/>
  <unicode hex="007D"/>
  <outline>
    <contour>
      <point x="-98" y="-322" type="line"/>
      <point x="88" y="-322" type="line" smooth="yes"/>
      <point x="240" y="-322"/>
      <point x="448" y="-240"/>
      <point x="476" y="-58" type="curve" smooth="yes"/>
      <point x="530" y="296" type="line" smooth="yes"/>
      <point x="546" y="412"/>
      <point x="616" y="460"/>
      <point x="778" y="460" type="curve"/>
      <point x="806" y="640" type="line"/>
      <point x="644" y="640"/>
      <point x="590" y="702"/>
      <point x="606" y="796" type="curve" smooth="yes"/>
      <point x="664" y="1180" type="line" smooth="yes"/>
      <point x="692" y="1366"/>
      <point x="508" y="1446"/>
      <point x="350" y="1446" type="curve" smooth="yes"/>
      <point x="172" y="1446" type="line"/>
      <point x="140" y="1238" type="line"/>
      <point x="240" y="1238" type="line" smooth="yes"/>
      <point x="336" y="1238"/>
      <point x="360" y="1208"/>
      <point x="348" y="1134" type="curve" smooth="yes"/>
      <point x="292" y="760" type="line" smooth="yes"/>
      <point x="272" y="596"/>
      <point x="394" y="564"/>
      <point x="482" y="556" type="curve" smooth="yes"/>
      <point x="498" y="554"/>
      <point x="496" y="546"/>
      <point x="480" y="544" type="curve" smooth="yes"/>
      <point x="386" y="534"/>
      <point x="256" y="492"/>
      <point x="230" y="360" type="curve" smooth="yes"/>
      <point x="174" y="-10" type="line" smooth="yes"/>
      <point x="166" y="-62"/>
      <point x="158" y="-114"/>
      <point x="36" y="-114" type="curve" smooth="yes"/>
      <point x="-66" y="-114" type="line"/>
    </contour>
  </outline>
</glyph>
<glyph name="asciitilde" format="2">
  <advance width="1299"/>
  <unicode hex="007E"/>
  <outline>
    <contour>
      <point x="217" y="510" type="line"/>
      <point x="301" y="594"/>
      <point x="381" y="678"/>
      <point x="483" y="678" type="curve" smooth="yes"/>
      <point x="615" y="678"/>
      <point x="681" y="538"/>
      <point x="843" y="538" type="curve" smooth="yes"/>
      <point x="957" y="538"/>
      <point x="1097" y="608"/>
      <point x="1203" y="762" type="curve"/>
      <point x="1119" y="942" type="line"/>
      <point x="1053" y="848"/>
      <point x="963" y="774"/>
      <point x="871" y="774" type="curve" smooth="yes"/>
      <point x="749" y="774"/>
      <point x="695" y="912"/>
      <point x="525" y="912" type="curve" smooth="yes"/>
      <point x="385" y="912"/>
      <point x="271" y="820"/>
      <point x="135" y="694" type="curve"/>
    </contour>
  </outline>
</glyph>
<glyph name="exclamdown" format="2">
  <advance width="622"/>
  <unicode hex="00A1"/>
  <outline>
    <contour>
      <point x="-48" y="-322" type="line"/>
      <point x="404" y="-322" type="line"/>
      <point x="416" y="514" type="line"/>
      <point x="180" y="514" type="line"/>
    </contour>
    <contour>
      <point x="110" y="650" type="line"/>
      <point x="520" y="650" type="line"/>
      <point x="574" y="1034" type="line"/>
      <point x="164" y="1034" type="line"/>
    </contour>
  </outline>
</glyph>
<glyph name="cent" format="2">
  <advance width="1229"/>
  <unicode hex="00A2"/>
  <anchor x="603.6800000000001" y="222" name="bottom"/>
  <anchor x="777.5600000000001" y="1256" name="top"/>
  <outline>
    <contour>
      <point x="625" y="1064" type="line"/>
      <point x="867" y="1064" type="line"/>
      <point x="925" y="1446" type="line"/>
      <point x="683" y="1446" type="line"/>
    </contour>
    <contour>
      <point x="428" y="0" type="line"/>
      <point x="670" y="0" type="line"/>
      <point x="728" y="382" type="line"/>
      <point x="486" y="382" type="line"/>
    </contour>
    <component base="c" xScale="1.08" xOffset="68" yOffset="222"/>
  </outline>
</glyph>
<glyph name="sterling" format="2">
  <advance width="1356"/>
  <unicode hex="00A3"/>
  <outline>
    <contour>
      <point x="-23" y="0" type="line"/>
      <point x="719" y="0" type="line" smooth="yes"/>
      <point x="987" y="0"/>
      <point x="1165" y="140"/>
      <point x="1271" y="412" type="curve"/>
      <point x="957" y="476" type="line"/>
      <point x="899" y="362"/>
      <point x="857" y="320"/>
      <point x="737" y="320" type="curve" smooth="yes"/>
      <point x="539" y="320" type="line"/>
      <point x="619" y="382"/>
      <point x="649" y="410"/>
      <point x="679" y="474" type="curve" smooth="yes"/>
      <point x="707" y="534"/>
      <point x="717" y="580"/>
      <point x="727" y="668" type="curve"/>
      <point x="965" y="668" type="line"/>
      <point x="995" y="870" type="line"/>
      <point x="731" y="870" type="line"/>
      <point x="731" y="962"/>
      <point x="731" y="1008"/>
      <point x="737" y="1046" type="curve" smooth="yes"/>
      <point x="749" y="1122"/>
      <point x="791" y="1166"/>
      <point x="851" y="1166" type="curve" smooth="yes"/>
      <point x="907" y="1166"/>
      <point x="927" y="1132"/>
      <point x="953" y="1038" type="curve"/>
      <point x="1301" y="1134" type="line"/>
      <point x="1241" y="1354"/>
      <point x="1073" y="1466"/>
      <point x="835" y="1466" type="curve" smooth="yes"/>
      <point x="573" y="1466"/>
      <point x="309" y="1332"/>
      <point x="289" y="1064" type="curve" smooth="yes"/>
      <point x="269" y="870" type="line"/>
      <point x="109" y="870" type="line"/>
      <point x="77" y="668" type="line"/>
      <point x="283" y="668" type="line"/>
      <point x="279" y="564"/>
      <point x="279" y="522"/>
      <point x="269" y="462" type="curve" smooth="yes"/>
      <point x="253" y="356"/>
      <point x="183" y="318"/>
      <point x="87" y="318" type="curve" smooth="yes"/>
      <point x="25" y="318" type="line"/>
    </contour>
  </outline>
</glyph>
<glyph name="currency" format="2">
  <advance width="1228"/>
  <unicode hex="00A4"/>
  <outline>
    <contour>
      <point x="150" y="178" type="line"/>
      <point x="300" y="306" type="line" smooth="yes"/>
      <point x="308" y="314"/>
      <point x="322" y="318"/>
      <point x="334" y="310" type="curve" smooth="yes"/>
      <point x="400" y="268"/>
      <point x="480" y="246"/>
      <point x="564" y="246" type="curve" smooth="yes"/>
      <point x="654" y="246"/>
      <point x="742" y="274"/>
      <point x="826" y="322" type="curve"/>
      <point x="930" y="196" type="line"/>
      <point x="1106" y="352" type="line"/>
      <point x="1002" y="472" type="line" smooth="yes"/>
      <point x="1000" y="474"/>
      <point x="1002" y="478"/>
      <point x="1004" y="482" type="curve" smooth="yes"/>
      <point x="1062" y="552"/>
      <point x="1098" y="642"/>
      <point x="1110" y="728" type="curve" smooth="yes"/>
      <point x="1124" y="820"/>
      <point x="1112" y="902"/>
      <point x="1076" y="980" type="curve"/>
      <point x="1220" y="1104" type="line"/>
      <point x="1092" y="1260" type="line"/>
      <point x="962" y="1144" type="line" smooth="yes"/>
      <point x="954" y="1138"/>
      <point x="946" y="1138"/>
      <point x="940" y="1142" type="curve" smooth="yes"/>
      <point x="870" y="1186"/>
      <point x="788" y="1210"/>
      <point x="702" y="1210" type="curve" smooth="yes"/>
      <point x="616" y="1210"/>
      <point x="524" y="1180"/>
      <point x="442" y="1134" type="curve"/>
      <point x="318" y="1280" type="line"/>
      <point x="144" y="1122" type="line"/>
      <point x="250" y="994" type="line" smooth="yes"/>
      <point x="262" y="982"/>
      <point x="260" y="976"/>
      <point x="250" y="960" type="curve" smooth="yes"/>
      <point x="198" y="888"/>
      <point x="168" y="814"/>
      <point x="154" y="726" type="curve" smooth="yes"/>
      <point x="140" y="626"/>
      <point x="152" y="556"/>
      <point x="188" y="476" type="curve"/>
      <point x="24" y="334" type="line"/>
    </contour>
    <contour>
      <point x="596" y="488" type="curve" smooth="yes"/>
      <point x="460" y="488"/>
      <point x="374" y="600"/>
      <point x="394" y="728" type="curve" smooth="yes"/>
      <point x="412" y="854"/>
      <point x="534" y="968"/>
      <point x="668" y="968" type="curve" smooth="yes"/>
      <point x="806" y="968"/>
      <point x="890" y="854"/>
      <point x="870" y="728" type="curve" smooth="yes"/>
      <point x="850" y="600"/>
      <point x="732" y="488"/>
    </contour>
  </outline>
</glyph>
<glyph name="yen" format="2">
  <advance width="1394"/>
  <unicode hex="00A5"/>
  <outline>
    <contour>
      <point x="397" y="0" type="line"/>
      <point x="835" y="0" type="line"/>
      <point x="933" y="638" type="line"/>
      <point x="1555" y="1446" type="line"/>
      <point x="1153" y="1446" type="line"/>
      <point x="803" y="942" type="line"/>
      <point x="603" y="1446" type="line"/>
      <point x="101" y="1446" type="line"/>
      <point x="487" y="602" type="line"/>
    </contour>
    <contour>
      <point x="135" y="186" type="line"/>
      <point x="1155" y="186" type="line"/>
      <point x="1183" y="382" type="line"/>
      <point x="165" y="382" type="line"/>
    </contour>
    <contour>
      <point x="185" y="516" type="line"/>
      <point x="1205" y="516" type="line"/>
      <point x="1235" y="714" type="line"/>
      <point x="215" y="714" type="line"/>
    </contour>
  </outline>
</glyph>
<glyph name="section" format="2">
  <advance width="1061"/>
  <unicode hex="00A7"/>
  <outline>
    <contour>
      <point x="425" y="-166" type="curve" smooth="yes"/>
      <point x="735" y="-166"/>
      <point x="913" y="-20"/>
      <point x="945" y="190" type="curve" smooth="yes"/>
      <point x="963" y="300"/>
      <point x="929" y="374"/>
      <point x="819" y="442" type="curve"/>
      <point x="921" y="502"/>
      <point x="987" y="586"/>
      <point x="1005" y="706" type="curve" smooth="yes"/>
      <point x="1031" y="876"/>
      <point x="941" y="962"/>
      <point x="721" y="1050" type="curve"/>
      <point x="583" y="1104" type="line"/>
      <point x="561" y="1112"/>
      <point x="515" y="1132"/>
      <point x="521" y="1170" type="curve"/>
      <point x="527" y="1214"/>
      <point x="569" y="1242"/>
      <point x="629" y="1242" type="curve" smooth="yes"/>
      <point x="723" y="1242"/>
      <point x="773" y="1178"/>
      <point x="819" y="1122" type="curve"/>
      <point x="1065" y="1232" type="line"/>
      <point x="1029" y="1352"/>
      <point x="879" y="1466"/>
      <point x="655" y="1466" type="curve" smooth="yes"/>
      <point x="387" y="1466"/>
      <point x="205" y="1320"/>
      <point x="177" y="1132" type="curve" smooth="yes"/>
      <point x="163" y="1038"/>
      <point x="191" y="964"/>
      <point x="279" y="898" type="curve"/>
      <point x="171" y="846"/>
      <point x="99" y="756"/>
      <point x="81" y="634" type="curve" smooth="yes"/>
      <point x="55" y="464"/>
      <point x="145" y="378"/>
      <point x="367" y="290" type="curve" smooth="yes"/>
      <point x="495" y="240" type="line" smooth="yes"/>
      <point x="585" y="204"/>
      <point x="607" y="176"/>
      <point x="601" y="136" type="curve" smooth="yes"/>
      <point x="593" y="82"/>
      <point x="533" y="58"/>
      <point x="449" y="58" type="curve" smooth="yes"/>
      <point x="315" y="58"/>
      <point x="265" y="122"/>
      <point x="225" y="180" type="curve"/>
      <point x="-23" y="68" type="line"/>
      <point x="15" y="-50"/>
      <point x="167" y="-166"/>
    </contour>
    <contour>
      <point x="591" y="552" type="curve"/>
      <point x="515" y="584" type="line" smooth="yes"/>
      <point x="407" y="626"/>
      <point x="387" y="646"/>
      <point x="393" y="692" type="curve" smooth="yes"/>
      <point x="401" y="738"/>
      <point x="431" y="778"/>
      <point x="505" y="784" type="curve"/>
      <point x="573" y="756" type="line" smooth="yes"/>
      <point x="655" y="724"/>
      <point x="689" y="692"/>
      <point x="693" y="654" type="curve" smooth="yes"/>
      <point x="693" y="594"/>
      <point x="653" y="544"/>
    </contour>
  </outline>
</glyph>
<glyph name="copyright" format="2">
  <advance width="1678"/>
  <unicode hex="00A9"/>
  <outline>
    <contour>
      <point x="745" y="-20" type="curve" smooth="yes"/>
      <point x="1151" y="-20"/>
      <point x="1533" y="310"/>
      <point x="1597" y="724" type="curve" smooth="yes"/>
      <point x="1659" y="1132"/>
      <point x="1377" y="1466"/>
      <point x="969" y="1466" type="curve" smooth="yes"/>
      <point x="563" y="1466"/>
      <point x="181" y="1132"/>
      <point x="119" y="724" type="curve" smooth="yes"/>
      <point x="57" y="310"/>
      <point x="337" y="-20"/>
    </contour>
    <contour>
      <point x="801" y="314" type="curve" smooth="yes"/>
      <point x="1047" y="314"/>
      <point x="1179" y="508"/>
      <point x="1205" y="594" type="curve"/>
      <point x="1027" y="630" type="line"/>
      <point x="981" y="558"/>
      <point x="941" y="502"/>
      <point x="855" y="502" type="curve" smooth="yes"/>
      <point x="769" y="502"/>
      <point x="729" y="560"/>
      <point x="755" y="728" type="curve" smooth="yes"/>
      <point x="779" y="888"/>
      <point x="833" y="950"/>
      <point x="905" y="950" type="curve" smooth="yes"/>
      <point x="979" y="950"/>
      <point x="985" y="880"/>
      <point x="983" y="832" type="curve"/>
      <point x="1245" y="846" type="line"/>
      <point x="1241" y="978"/>
      <point x="1145" y="1138"/>
      <point x="925" y="1138" type="curve" smooth="yes"/>
      <point x="691" y="1138"/>
      <point x="491" y="972"/>
      <point x="453" y="724" type="curve" smooth="yes"/>
      <point x="417" y="482"/>
      <point x="565" y="314"/>
    </contour>
    <contour>
      <point x="775" y="178" type="curve" smooth="yes"/>
      <point x="455" y="178"/>
      <point x="285" y="390"/>
      <point x="337" y="724" type="curve" smooth="yes"/>
      <point x="387" y="1054"/>
      <point x="621" y="1272"/>
      <point x="941" y="1272" type="curve" smooth="yes"/>
      <point x="1257" y="1272"/>
      <point x="1429" y="1054"/>
      <point x="1379" y="724" type="curve" smooth="yes"/>
      <point x="1329" y="390"/>
      <point x="1091" y="178"/>
    </contour>
  </outline>
</glyph>
<glyph name="ordfeminine" format="2">
  <advance width="756"/>
  <unicode hex="00AA"/>
  <outline>
    <contour>
      <point x="299" y="796" type="curve" smooth="yes"/>
      <point x="368" y="796"/>
      <point x="413" y="820"/>
      <point x="483" y="864" type="curve"/>
      <point x="489" y="808" type="line"/>
      <point x="707" y="808" type="line"/>
      <point x="700" y="856" type="line"/>
      <point x="699" y="886"/>
      <point x="713" y="988"/>
      <point x="715" y="1002" type="curve" smooth="yes"/>
      <point x="727" y="1098"/>
      <point x="735" y="1152"/>
      <point x="751" y="1266" type="curve" smooth="yes"/>
      <point x="769" y="1390"/>
      <point x="719" y="1464"/>
      <point x="507" y="1466" type="curve" smooth="yes"/>
      <point x="326" y="1466"/>
      <point x="253" y="1404"/>
      <point x="187" y="1286" type="curve"/>
      <point x="375" y="1246" type="line"/>
      <point x="403" y="1306"/>
      <point x="445" y="1320"/>
      <point x="481" y="1320" type="curve" smooth="yes"/>
      <point x="503" y="1320"/>
      <point x="547" y="1312"/>
      <point x="537" y="1250" type="curve"/>
      <point x="533" y="1210" type="line"/>
      <point x="487" y="1210" type="line" smooth="yes"/>
      <point x="289" y="1210"/>
      <point x="149" y="1114"/>
      <point x="131" y="982" type="curve" smooth="yes"/>
      <point x="115" y="872"/>
      <point x="173" y="796"/>
    </contour>
    <contour>
      <point x="408" y="940" type="curve" smooth="yes"/>
      <point x="365" y="940"/>
      <point x="345" y="964"/>
      <point x="349" y="998" type="curve" smooth="yes"/>
      <point x="357" y="1054"/>
      <point x="413" y="1090"/>
      <point x="479" y="1090" type="curve" smooth="yes"/>
      <point x="515" y="1090" type="line"/>
      <point x="503" y="1002" type="line" smooth="yes"/>
      <point x="501" y="982"/>
      <point x="491" y="974"/>
      <point x="479" y="964" type="curve" smooth="yes"/>
      <point x="463" y="950"/>
      <point x="435" y="940"/>
    </contour>
  </outline>
</glyph>
<glyph name="guillemetleft" format="2">
  <advance width="1078"/>
  <unicode hex="00AB"/>
  <outline>
    <contour>
      <point x="674" y="118" type="line"/>
      <point x="874" y="118" type="line"/>
      <point x="804" y="502" type="line"/>
      <point x="992" y="902" type="line"/>
      <point x="792" y="902" type="line"/>
      <point x="518" y="502" type="line"/>
    </contour>
    <contour>
      <point x="272" y="118" type="line"/>
      <point x="470" y="118" type="line"/>
      <point x="402" y="502" type="line"/>
      <point x="590" y="902" type="line"/>
      <point x="388" y="902" type="line"/>
      <point x="118" y="502" type="line"/>
    </contour>
  </outline>
</glyph>
<glyph name="logicalnot" format="2">
  <advance width="1235"/>
  <unicode hex="00AC"/>
  <outline>
    <contour>
      <point x="120" y="590" type="line"/>
      <point x="1132" y="590" type="line"/>
      <point x="1174" y="866" type="line"/>
      <point x="162" y="866" type="line"/>
    </contour>
    <contour>
      <point x="774" y="274" type="line"/>
      <point x="1084" y="274" type="line"/>
      <point x="1158" y="766" type="line"/>
      <point x="848" y="766" type="line"/>
    </contour>
  </outline>
</glyph>
<glyph name="registered" format="2">
  <advance width="1124"/>
  <unicode hex="00AE"/>
  <outline>
    <contour>
      <point x="552" y="536" type="curve" smooth="yes"/>
      <point x="806" y="536"/>
      <point x="1044" y="742"/>
      <point x="1082" y="1000" type="curve" smooth="yes"/>
      <point x="1122" y="1258"/>
      <point x="946" y="1466"/>
      <point x="692" y="1466" type="curve" smooth="yes"/>
      <point x="434" y="1466"/>
      <point x="198" y="1258"/>
      <point x="158" y="1000" type="curve" smooth="yes"/>
      <point x="120" y="742"/>
      <point x="294" y="536"/>
    </contour>
    <contour>
      <point x="572" y="674" type="curve" smooth="yes"/>
      <point x="380" y="674"/>
      <point x="280" y="802"/>
      <point x="310" y="1000" type="curve" smooth="yes"/>
      <point x="340" y="1198"/>
      <point x="478" y="1328"/>
      <point x="672" y="1328" type="curve" smooth="yes"/>
      <point x="860" y="1328"/>
      <point x="962" y="1198"/>
      <point x="932" y="1000" type="curve" smooth="yes"/>
      <point x="902" y="802"/>
      <point x="762" y="674"/>
    </contour>
    <contour>
      <point x="392" y="768" type="line"/>
      <point x="532" y="768" type="line"/>
      <point x="560" y="960" type="line"/>
      <point x="618" y="960" type="line"/>
      <point x="652" y="768" type="line"/>
      <point x="806" y="768" type="line"/>
      <point x="746" y="976" type="line"/>
      <point x="800" y="998"/>
      <point x="844" y="1042"/>
      <point x="854" y="1100" type="curve" smooth="yes"/>
      <point x="866" y="1182"/>
      <point x="802" y="1228"/>
      <point x="684" y="1228" type="curve" smooth="yes"/>
      <point x="462" y="1228" type="line"/>
    </contour>
    <contour>
      <point x="574" y="1052" type="line"/>
      <point x="586" y="1136" type="line"/>
      <point x="662" y="1136" type="line" smooth="yes"/>
      <point x="688" y="1136"/>
      <point x="712" y="1122"/>
      <point x="708" y="1094" type="curve"/>
      <point x="704" y="1070"/>
      <point x="684" y="1052"/>
      <point x="656" y="1052" type="curve"/>
    </contour>
  </outline>
</glyph>
<glyph name="degree" format="2">
  <advance width="964"/>
  <unicode hex="00B0"/>
  <outline>
    <contour>
      <point x="530" y="962" type="curve" smooth="yes"/>
      <point x="730" y="962"/>
      <point x="904" y="1108"/>
      <point x="936" y="1316" type="curve" smooth="yes"/>
      <point x="966" y="1522"/>
      <point x="838" y="1672"/>
      <point x="638" y="1672" type="curve" smooth="yes"/>
      <point x="436" y="1672"/>
      <point x="264" y="1522"/>
      <point x="232" y="1316" type="curve" smooth="yes"/>
      <point x="200" y="1108"/>
      <point x="328" y="962"/>
    </contour>
    <contour>
      <point x="560" y="1168" type="curve" smooth="yes"/>
      <point x="474" y="1168"/>
      <point x="432" y="1228"/>
      <point x="442" y="1314" type="curve" smooth="yes"/>
      <point x="454" y="1398"/>
      <point x="518" y="1458"/>
      <point x="602" y="1458" type="curve" smooth="yes"/>
      <point x="686" y="1458"/>
      <point x="732" y="1398"/>
      <point x="718" y="1314" type="curve" smooth="yes"/>
      <point x="706" y="1228"/>
      <point x="642" y="1168"/>
    </contour>
  </outline>
</glyph>
<glyph name="plusminus" format="2">
  <advance width="1243"/>
  <unicode hex="00B1"/>
  <outline>
    <contour>
      <point x="468" y="406" type="line"/>
      <point x="742" y="406" type="line"/>
      <point x="898" y="1424" type="line"/>
      <point x="622" y="1424" type="line"/>
    </contour>
    <contour>
      <point x="42" y="30" type="line"/>
      <point x="1054" y="30" type="line"/>
      <point x="1094" y="304" type="line"/>
      <point x="84" y="304" type="line"/>
    </contour>
    <contour>
      <point x="154" y="776" type="line"/>
      <point x="1166" y="776" type="line"/>
      <point x="1208" y="1052" type="line"/>
      <point x="196" y="1052" type="line"/>
    </contour>
  </outline>
</glyph>
<glyph name="micro" format="2">
  <advance width="1251"/>
  <unicode hex="00B5"/>
  <outline>
    <contour>
      <point x="-29" y="-330" type="line"/>
      <point x="368" y="-330" type="line"/>
      <point x="429" y="68" type="line"/>
      <point x="473" y="60"/>
      <point x="523" y="64"/>
      <point x="566" y="78" type="curve" smooth="yes"/>
      <point x="616" y="94"/>
      <point x="662" y="124"/>
      <point x="694" y="164" type="curve"/>
      <point x="671" y="0" type="line"/>
      <point x="1059" y="0" type="line"/>
      <point x="1227" y="1060" type="line"/>
      <point x="824" y="1060" type="line"/>
      <point x="734" y="458" type="line"/>
      <point x="721" y="394"/>
      <point x="666" y="352"/>
      <point x="599" y="352" type="curve" smooth="yes"/>
      <point x="523" y="352"/>
      <point x="479" y="394"/>
      <point x="486" y="458" type="curve"/>
      <point x="578" y="1060" type="line"/>
      <point x="181" y="1060" type="line"/>
    </contour>
  </outline>
</glyph>
<glyph name="paragraph" format="2">
  <advance width="1266"/>
  <unicode hex="00B6"/>
  <outline>
    <contour>
      <point x="349" y="-166" type="line"/>
      <point x="576" y="-166" type="line"/>
      <point x="791" y="1234" type="line"/>
      <point x="919" y="1234" type="line"/>
      <point x="706" y="-166" type="line"/>
      <point x="935" y="-166" type="line"/>
      <point x="1147" y="1234" type="line"/>
      <point x="1275" y="1234" type="line"/>
      <point x="1307" y="1446" type="line"/>
      <point x="662" y="1446" type="line" smooth="yes"/>
      <point x="363" y="1446"/>
      <point x="167" y="1264"/>
      <point x="131" y="1024" type="curve" smooth="yes"/>
      <point x="89" y="746"/>
      <point x="267" y="624"/>
      <point x="465" y="600" type="curve"/>
    </contour>
  </outline>
</glyph>
<glyph name="periodcentered" format="2">
  <advance width="575"/>
  <unicode hex="00B7"/>
  <outline>
    <contour>
      <point x="95" y="554" type="line"/>
      <point x="455" y="554" type="line"/>
      <point x="509" y="902" type="line"/>
      <point x="149" y="902" type="line"/>
    </contour>
  </outline>
</glyph>
<glyph name="ordmasculine" format="2">
  <advance width="748"/>
  <unicode hex="00BA"/>
  <outline>
    <contour>
      <point x="411" y="796" type="curve" smooth="yes"/>
      <point x="596" y="796"/>
      <point x="747" y="934"/>
      <point x="774" y="1128" type="curve" smooth="yes"/>
      <point x="802" y="1324"/>
      <point x="694" y="1466"/>
      <point x="508" y="1466" type="curve" smooth="yes"/>
      <point x="329" y="1466"/>
      <point x="176" y="1330"/>
      <point x="146" y="1128" type="curve" smooth="yes"/>
      <point x="119" y="934"/>
      <point x="228" y="796"/>
    </contour>
    <contour>
      <point x="434" y="952" type="curve" smooth="yes"/>
      <point x="376" y="952"/>
      <point x="356" y="1006"/>
      <point x="373" y="1132" type="curve" smooth="yes"/>
      <point x="392" y="1260"/>
      <point x="426" y="1314"/>
      <point x="486" y="1314" type="curve" smooth="yes"/>
      <point x="546" y="1314"/>
      <point x="566" y="1260"/>
      <point x="548" y="1132" type="curve" smooth="yes"/>
      <point x="530" y="1006"/>
      <point x="495" y="952"/>
    </contour>
  </outline>
</glyph>
<glyph name="guillemetright" format="2">
  <advance width="1078"/>
  <unicode hex="00BB"/>
  <outline>
    <contour>
      <point x="484" y="118" type="line"/>
      <point x="686" y="118" type="line"/>
      <point x="956" y="502" type="line"/>
      <point x="806" y="902" type="line"/>
      <point x="604" y="902" type="line"/>
      <point x="672" y="502" type="line"/>
    </contour>
    <contour>
      <point x="84" y="118" type="line"/>
      <point x="282" y="118" type="line"/>
      <point x="554" y="502" type="line"/>
      <point x="404" y="902" type="line"/>
      <point x="202" y="902" type="line"/>
      <point x="268" y="502" type="line"/>
    </contour>
  </outline>
</glyph>
<glyph name="questiondown" format="2">
  <advance width="1133"/>
  <unicode hex="00BF"/>
  <outline>
    <contour>
      <point x="454" y="-342" type="curve" smooth="yes"/>
      <point x="724" y="-342"/>
      <point x="926" y="-214"/>
      <point x="1044" y="24" type="curve"/>
      <point x="730" y="92" type="line"/>
      <point x="674" y="-14"/>
      <point x="582" y="-78"/>
      <point x="494" y="-78" type="curve" smooth="yes"/>
      <point x="426" y="-78"/>
      <point x="372" y="-38"/>
      <point x="380" y="16" type="curve" smooth="yes"/>
      <point x="402" y="172"/>
      <point x="708" y="230"/>
      <point x="750" y="528" type="curve"/>
      <point x="444" y="528" type="line"/>
      <point x="412" y="310"/>
      <point x="42" y="312"/>
      <point x="-4" y="-6" type="curve" smooth="yes"/>
      <point x="-28" y="-184"/>
      <point x="112" y="-342"/>
    </contour>
    <contour>
      <point x="410" y="650" type="line"/>
      <point x="820" y="650" type="line"/>
      <point x="874" y="1034" type="line"/>
      <point x="464" y="1034" type="line"/>
    </contour>
  </outline>
</glyph>
<glyph name="AE" format="2">
  <advance width="2189"/>
  <unicode hex="00C6"/>
  <anchor x="1519" y="1446" name="top"/>
  <outline>
    <contour>
      <point x="-73" y="0" type="line"/>
      <point x="313" y="0" type="line"/>
      <point x="491" y="280" type="line"/>
      <point x="929" y="280" type="line"/>
      <point x="887" y="0" type="line"/>
      <point x="2023" y="0" type="line"/>
      <point x="2071" y="320" type="line"/>
      <point x="1377" y="320" type="line"/>
      <point x="1415" y="570" type="line"/>
      <point x="1980" y="570" type="line"/>
      <point x="2028" y="884" type="line"/>
      <point x="1461" y="884" type="line"/>
      <point x="1499" y="1128" type="line"/>
      <point x="2175" y="1128" type="line"/>
      <point x="2225" y="1446" type="line"/>
      <point x="891" y="1446" type="line"/>
    </contour>
    <contour>
      <point x="683" y="612" type="line"/>
      <point x="1069" y="1202" type="line"/>
      <point x="978" y="612" type="line"/>
    </contour>
  </outline>
</glyph>
<glyph name="Ccedilla" format="2">
  <advance width="1485"/>
  <unicode hex="00C7"/>
  <anchor x="693" y="0" name="_bottom"/>
  <anchor x="693" y="0" name="bottom"/>
  <anchor x="911" y="1446" name="top"/>
  <outline>
    <contour>
      <point x="637" y="-438" type="curve" smooth="yes"/>
      <point x="773" y="-438"/>
      <point x="905" y="-372"/>
      <point x="921" y="-268" type="curve" smooth="yes"/>
      <point x="931" y="-194"/>
      <point x="885" y="-104"/>
      <point x="723" y="-104" type="curve"/>
      <point x="781" y="10" type="line"/>
      <point x="625" y="10" type="line"/>
      <point x="525" y="-162" type="line" smooth="yes"/>
      <point x="511" y="-184"/>
      <point x="521" y="-186"/>
      <point x="541" y="-186" type="curve" smooth="yes"/>
      <point x="675" y="-186"/>
      <point x="713" y="-214"/>
      <point x="707" y="-262" type="curve" smooth="yes"/>
      <point x="701" y="-294"/>
      <point x="661" y="-314"/>
      <point x="607" y="-314" type="curve" smooth="yes"/>
      <point x="549" y="-314"/>
      <point x="489" y="-288"/>
      <point x="447" y="-262" type="curve"/>
      <point x="381" y="-380" type="line"/>
      <point x="451" y="-426"/>
      <point x="543" y="-438"/>
    </contour>
    <component base="C"/>
  </outline>
</glyph>
<glyph name="Eth" format="2">
  <advance width="1634"/>
  <unicode hex="00D0"/>
  <anchor x="673" y="0" name="bottom"/>
  <anchor x="923" y="724" name="center"/>
  <anchor x="1134" y="1446" name="top"/>
  <outline>
    <contour>
      <point x="78" y="572" type="line"/>
      <point x="938" y="572" type="line"/>
      <point x="978" y="846" type="line"/>
      <point x="118" y="846" type="line"/>
    </contour>
    <component base="D" xOffset="146"/>
  </outline>
</glyph>
<glyph name="multiply" format="2">
  <advance width="1217"/>
  <unicode hex="00D7"/>
  <outline>
    <contour>
      <point x="257" y="230" type="line"/>
      <point x="1179" y="1032" type="line"/>
      <point x="1015" y="1228" type="line"/>
      <point x="97" y="426" type="line"/>
    </contour>
    <contour>
      <point x="859" y="230" type="line"/>
      <point x="1083" y="426" type="line"/>
      <point x="407" y="1228" type="line"/>
      <point x="187" y="1032" type="line"/>
    </contour>
  </outline>
</glyph>
<glyph name="Oslash" format="2">
  <advance width="1600"/>
  <unicode hex="00D8"/>
  <anchor x="928" y="1446" name="top"/>
  <outline>
    <contour>
      <point x="106" y="-28" type="line"/>
      <point x="284" y="122" type="line"/>
      <point x="386" y="32"/>
      <point x="528" y="-20"/>
      <point x="708" y="-20" type="curve" smooth="yes"/>
      <point x="1130" y="-20"/>
      <point x="1446" y="272"/>
      <point x="1514" y="720" type="curve" smooth="yes"/>
      <point x="1538" y="884"/>
      <point x="1524" y="1026"/>
      <point x="1474" y="1140" type="curve"/>
      <point x="1672" y="1312" type="line"/>
      <point x="1546" y="1472" type="line"/>
      <point x="1358" y="1314" type="line"/>
      <point x="1258" y="1412"/>
      <point x="1114" y="1466"/>
      <point x="932" y="1466" type="curve" smooth="yes"/>
      <point x="512" y="1466"/>
      <point x="190" y="1172"/>
      <point x="122" y="720" type="curve" smooth="yes"/>
      <point x="96" y="552"/>
      <point x="112" y="408"/>
      <point x="162" y="292" type="curve"/>
      <point x="-24" y="134" type="line"/>
    </contour>
    <contour>
      <point x="754" y="284" type="curve" smooth="yes"/>
      <point x="668" y="284"/>
      <point x="614" y="314"/>
      <point x="586" y="380" type="curve"/>
      <point x="1062" y="790" type="line"/>
      <point x="1044" y="670"/>
      <point x="1024" y="576"/>
      <point x="998" y="502" type="curve" smooth="yes"/>
      <point x="944" y="348"/>
      <point x="866" y="284"/>
    </contour>
    <contour>
      <point x="572" y="640" type="line"/>
      <point x="586" y="740"/>
      <point x="603" y="824"/>
      <point x="626" y="894" type="curve" smooth="yes"/>
      <point x="682" y="1084"/>
      <point x="764" y="1166"/>
      <point x="888" y="1166" type="curve" smooth="yes"/>
      <point x="972" y="1166"/>
      <point x="1028" y="1132"/>
      <point x="1052" y="1052" type="curve"/>
    </contour>
  </outline>
</glyph>
<glyph name="Thorn" format="2">
  <advance width="1415"/>
  <unicode hex="00DE"/>
  <outline>
    <contour>
      <point x="62" y="0" type="line"/>
      <point x="450" y="0" type="line"/>
      <point x="489" y="276" type="line"/>
      <point x="753" y="276" type="line" smooth="yes"/>
      <point x="1083" y="276"/>
      <point x="1345" y="444"/>
      <point x="1385" y="727" type="curve" smooth="yes"/>
      <point x="1427" y="1032"/>
      <point x="1211" y="1186"/>
      <point x="881" y="1186" type="curve" smooth="yes"/>
      <point x="617" y="1186" type="line"/>
      <point x="654" y="1446" type="line"/>
      <point x="266" y="1446" type="line"/>
    </contour>
    <contour>
      <point x="533" y="588" type="line"/>
      <point x="573" y="875" type="line"/>
      <point x="837" y="874" type="line" smooth="yes"/>
      <point x="902" y="874"/>
      <point x="991" y="817"/>
      <point x="979" y="727" type="curve" smooth="yes"/>
      <point x="966" y="637"/>
      <point x="862" y="588"/>
      <point x="797" y="588" type="curve" smooth="yes"/>
    </contour>
  </outline>
</glyph>
<glyph name="germandbls" format="2">
  <advance width="1231"/>
  <unicode hex="00DF"/>
  <outline>
    <contour>
      <point x="675" y="-20" type="curve" smooth="yes"/>
      <point x="930" y="-20"/>
      <point x="1107" y="108"/>
      <point x="1142" y="350" type="curve" smooth="yes"/>
      <point x="1177" y="610"/>
      <point x="1003" y="702"/>
      <point x="817" y="800" type="curve" smooth="yes"/>
      <point x="808" y="804"/>
      <point x="806" y="810"/>
      <point x="806" y="816" type="curve" smooth="yes"/>
      <point x="808" y="820"/>
      <point x="812" y="826"/>
      <point x="817" y="828" type="curve" smooth="yes"/>
      <point x="1016" y="910"/>
      <point x="1098" y="996"/>
      <point x="1115" y="1132" type="curve" smooth="yes"/>
      <point x="1146" y="1340"/>
      <point x="1001" y="1446"/>
      <point x="737" y="1446" type="curve" smooth="yes"/>
      <point x="354" y="1446"/>
      <point x="205" y="1202"/>
      <point x="163" y="968" type="curve"/>
      <point x="29" y="0" type="line"/>
      <point x="381" y="0" type="line"/>
      <point x="527" y="1044" type="line" smooth="yes"/>
      <point x="539" y="1132"/>
      <point x="598" y="1204"/>
      <point x="691" y="1204" type="curve" smooth="yes"/>
      <point x="768" y="1204"/>
      <point x="799" y="1160"/>
      <point x="791" y="1108" type="curve" smooth="yes"/>
      <point x="783" y="1044"/>
      <point x="724" y="998"/>
      <point x="663" y="940" type="curve" smooth="yes"/>
      <point x="609" y="888"/>
      <point x="556" y="820"/>
      <point x="539" y="718" type="curve" smooth="yes"/>
      <point x="520" y="576"/>
      <point x="591" y="486"/>
      <point x="699" y="430" type="curve" smooth="yes"/>
      <point x="785" y="386"/>
      <point x="827" y="364"/>
      <point x="819" y="308" type="curve" smooth="yes"/>
      <point x="812" y="246"/>
      <point x="757" y="220"/>
      <point x="701" y="220" type="curve" smooth="yes"/>
      <point x="638" y="220"/>
      <point x="600" y="254"/>
      <point x="573" y="276" type="curve"/>
      <point x="443" y="44" type="line"/>
      <point x="493" y="8"/>
      <point x="565" y="-20"/>
    </contour>
  </outline>
</glyph>
<glyph name="ae" format="2">
  <advance width="1817"/>
  <unicode hex="00E6"/>
  <anchor x="978" y="1034" name="top"/>
  <anchor x="1174" y="0" name="bottom"/>
  <anchor x="1430" y="50" name="ogonek"/>
  <outline>
    <contour>
      <point x="348" y="-20" type="curve" smooth="yes"/>
      <point x="596" y="-20"/>
      <point x="719" y="58"/>
      <point x="791" y="197" type="curve"/>
      <point x="1098" y="732" type="line"/>
      <point x="1125" y="922"/>
      <point x="1034" y="1054"/>
      <point x="674" y="1054" type="curve" smooth="yes"/>
      <point x="408" y="1054"/>
      <point x="179" y="956"/>
      <point x="133" y="712" type="curve"/>
      <point x="448" y="712" type="line"/>
      <point x="490" y="782"/>
      <point x="568" y="800"/>
      <point x="621" y="802" type="curve" smooth="yes"/>
      <point x="699" y="804"/>
      <point x="732" y="774"/>
      <point x="723" y="708" type="curve" smooth="yes"/>
      <point x="717" y="664" type="line"/>
      <point x="637" y="664" type="line" smooth="yes"/>
      <point x="261" y="664"/>
      <point x="68" y="534"/>
      <point x="37" y="310" type="curve" smooth="yes"/>
      <point x="7" y="96"/>
      <point x="153" y="-20"/>
    </contour>
    <contour>
      <point x="519" y="226" type="curve" smooth="yes"/>
      <point x="452" y="226"/>
      <point x="397" y="272"/>
      <point x="408" y="350" type="curve" smooth="yes"/>
      <point x="422" y="452"/>
      <point x="567" y="480"/>
      <point x="628" y="480" type="curve" smooth="yes"/>
      <point x="691" y="480" type="line"/>
      <point x="673" y="350" type="line"/>
      <point x="661" y="284"/>
      <point x="594" y="226"/>
    </contour>
    <component base="e" xOffset="656"/>
  </outline>
</glyph>
<glyph name="ccedilla" format="2">
  <advance width="1096"/>
  <unicode hex="00E7"/>
  <anchor x="496" y="0" name="_bottom"/>
  <anchor x="496" y="0" name="bottom"/>
  <anchor x="657" y="1034" name="top"/>
  <outline>
    <contour>
      <point x="440" y="-438" type="curve" smooth="yes"/>
      <point x="576" y="-438"/>
      <point x="708" y="-372"/>
      <point x="724" y="-268" type="curve" smooth="yes"/>
      <point x="734" y="-194"/>
      <point x="688" y="-104"/>
      <point x="526" y="-104" type="curve"/>
      <point x="584" y="10" type="line"/>
      <point x="428" y="10" type="line"/>
      <point x="328" y="-162" type="line" smooth="yes"/>
      <point x="314" y="-184"/>
      <point x="324" y="-186"/>
      <point x="344" y="-186" type="curve" smooth="yes"/>
      <point x="478" y="-186"/>
      <point x="516" y="-214"/>
      <point x="510" y="-262" type="curve" smooth="yes"/>
      <point x="504" y="-294"/>
      <point x="464" y="-314"/>
      <point x="410" y="-314" type="curve" smooth="yes"/>
      <point x="352" y="-314"/>
      <point x="292" y="-288"/>
      <point x="250" y="-262" type="curve"/>
      <point x="184" y="-380" type="line"/>
      <point x="254" y="-426"/>
      <point x="346" y="-438"/>
    </contour>
    <component base="c"/>
  </outline>
</glyph>
<glyph name="eth" format="2">
  <advance width="1173"/>
  <unicode hex="00F0"/>
  <outline>
    <contour>
      <point x="523" y="-20" type="curve" smooth="yes"/>
      <point x="944" y="-20"/>
      <point x="1127" y="341"/>
      <point x="1127" y="685" type="curve" smooth="yes"/>
      <point x="1127" y="991"/>
      <point x="975" y="1307"/>
      <point x="734" y="1481" type="curve"/>
      <point x="441" y="1481" type="line"/>
      <point x="628" y="1262"/>
      <point x="721" y="1070"/>
      <point x="721" y="905" type="curve"/>
      <point x="920" y="724" type="line"/>
      <point x="920" y="912"/>
      <point x="815" y="1014"/>
      <point x="621" y="1014" type="curve" smooth="yes"/>
      <point x="201" y="1014"/>
      <point x="55" y="663"/>
      <point x="55" y="445" type="curve" smooth="yes"/>
      <point x="55" y="163"/>
      <point x="238" y="-20"/>
    </contour>
    <contour>
      <point x="555" y="262" type="curve" smooth="yes"/>
      <point x="478" y="262"/>
      <point x="436" y="324"/>
      <point x="436" y="433" type="curve" smooth="yes"/>
      <point x="436" y="549"/>
      <point x="478" y="747"/>
      <point x="623" y="747" type="curve" smooth="yes"/>
      <point x="701" y="747"/>
      <point x="741" y="689"/>
      <point x="741" y="583" type="curve" smooth="yes"/>
      <point x="741" y="468"/>
      <point x="697" y="262"/>
    </contour>
    <contour>
      <point x="380" y="1072" type="line"/>
      <point x="1164" y="1291" type="line"/>
      <point x="1138" y="1446" type="line"/>
      <point x="355" y="1227" type="line"/>
    </contour>
  </outline>
</glyph>
<glyph name="divide" format="2">
  <advance width="1235"/>
  <unicode hex="00F7"/>
  <outline>
    <contour>
      <point x="120" y="590" type="line"/>
      <point x="1132" y="590" type="line"/>
      <point x="1174" y="866" type="line"/>
      <point x="162" y="866" type="line"/>
    </contour>
    <contour>
      <point x="372" y="118" type="line"/>
      <point x="740" y="118" type="line"/>
      <point x="794" y="474" type="line"/>
      <point x="426" y="474" type="line"/>
    </contour>
    <contour>
      <point x="504" y="982" type="line"/>
      <point x="872" y="982" type="line"/>
      <point x="926" y="1338" type="line"/>
      <point x="558" y="1338" type="line"/>
    </contour>
  </outline>
</glyph>
<glyph name="oslash" format="2">
  <advance width="1192"/>
  <unicode hex="00F8"/>
  <anchor x="568" y="1034" name="top"/>
  <anchor x="516" y="0" name="bottom"/>
  <anchor x="989" y="668" name="horn"/>
  <anchor x="676" y="20" name="ogonek"/>
  <outline>
    <contour>
      <point x="118" y="-18" type="line"/>
      <point x="1132" y="926" type="line"/>
      <point x="1018" y="1050" type="line"/>
      <point x="2" y="106" type="line"/>
    </contour>
    <component base="o" xOffset="18"/>
  </outline>
</glyph>
<glyph name="thorn" format="2">
  <advance width="1239"/>
  <unicode hex="00FE"/>
  <outline>
    <contour>
      <point x="-18" y="-322" type="line"/>
      <point x="370" y="-322" type="line"/>
      <point x="431" y="70" type="line" smooth="yes"/>
      <point x="437" y="110"/>
      <point x="442" y="108"/>
      <point x="471" y="80" type="curve" smooth="yes"/>
      <point x="540" y="2"/>
      <point x="616" y="-20"/>
      <point x="704" y="-20" type="curve" smooth="yes"/>
      <point x="920" y="-20"/>
      <point x="1120" y="126"/>
      <point x="1179" y="520" type="curve" smooth="yes"/>
      <point x="1234" y="886"/>
      <point x="1097" y="1054"/>
      <point x="880" y="1054" type="curve" smooth="yes"/>
      <point x="746" y="1054"/>
      <point x="654" y="1002"/>
      <point x="561" y="914" type="curve"/>
      <point x="641" y="1446" type="line"/>
      <point x="250" y="1446" type="line"/>
    </contour>
    <contour>
      <point x="586" y="216" type="curve" smooth="yes"/>
      <point x="524" y="216"/>
      <point x="488" y="248"/>
      <point x="464" y="294" type="curve"/>
      <point x="526" y="708" type="line" smooth="yes"/>
      <point x="536" y="770"/>
      <point x="603" y="818"/>
      <point x="679" y="818" type="curve" smooth="yes"/>
      <point x="780" y="818"/>
      <point x="824" y="758"/>
      <point x="790" y="532" type="curve" smooth="yes"/>
      <point x="752" y="282"/>
      <point x="685" y="216"/>
    </contour>
  </outline>
</glyph>
<glyph name="Hbar" format="2">
  <advance width="1679"/>
  <unicode hex="0126"/>
  <anchor x="766" y="0" name="bottom"/>
  <anchor x="986" y="1446" name="top"/>
  <outline>
    <contour>
      <point x="119" y="1082" type="line"/>
      <point x="1717" y="1082" type="line"/>
      <point x="1747" y="1284" type="line"/>
      <point x="149" y="1284" type="line"/>
    </contour>
    <component base="H" xOffset="72"/>
  </outline>
</glyph>
<glyph name="idotless" format="2">
  <advance width="600"/>
  <unicode hex="0131"/>
  <anchor x="363" y="18" name="ogonek"/>
  <anchor x="385" y="1034" name="top"/>
  <outline>
    <contour>
      <point x="27" y="0" type="line"/>
      <point x="415" y="0" type="line"/>
      <point x="573" y="1034" type="line"/>
      <point x="185" y="1034" type="line"/>
    </contour>
  </outline>
</glyph>
<glyph name="kgreenlandic" format="2">
  <advance width="1246"/>
  <unicode hex="0138"/>
  <outline>
    <contour>
      <point x="27" y="0" type="line"/>
      <point x="415" y="0" type="line"/>
      <point x="459" y="292" type="line"/>
      <point x="615" y="422" type="line"/>
      <point x="728" y="0" type="line"/>
      <point x="1163" y="0" type="line"/>
      <point x="913" y="700" type="line"/>
      <point x="1293" y="1034" type="line"/>
      <point x="913" y="1034" type="line"/>
      <point x="514" y="644" type="line"/>
      <point x="571" y="1034" type="line"/>
      <point x="186" y="1034" type="line"/>
    </contour>
  </outline>
</glyph>
<glyph name="Lslash" format="2">
  <advance width="1243"/>
  <unicode hex="0141"/>
  <anchor x="625" y="0" name="bottom"/>
  <anchor x="888" y="1446" name="caron"/>
  <anchor x="555" y="1446" name="top"/>
  <outline>
    <contour>
      <point x="48" y="538" type="line"/>
      <point x="922" y="786" type="line"/>
      <point x="922" y="1088" type="line"/>
      <point x="48" y="856" type="line"/>
    </contour>
    <component base="L" xOffset="88"/>
  </outline>
</glyph>
<glyph name="lslash" format="2">
  <advance width="865"/>
  <unicode hex="0142"/>
  <anchor x="354" y="0" name="bottom"/>
  <anchor x="793" y="1446" name="caron"/>
  <anchor x="613" y="1530" name="top"/>
  <outline>
    <contour>
      <point x="83" y="284" type="line"/>
      <point x="715" y="698" type="line"/>
      <point x="715" y="1004" type="line"/>
      <point x="83" y="608" type="line"/>
    </contour>
    <component base="l" xOffset="164"/>
  </outline>
</glyph>
<glyph name="Eng" format="2">
  <advance width="1625"/>
  <unicode hex="014A"/>
  <anchor x="730" y="0" name="bottom"/>
  <anchor x="951" y="1446" name="top"/>
  <outline>
    <contour>
      <point x="901" y="-480" type="curve" smooth="yes"/>
      <point x="1221" y="-480"/>
      <point x="1346" y="-356"/>
      <point x="1400" y="0" type="curve" smooth="yes"/>
      <point x="1621" y="1446" type="line"/>
      <point x="1232" y="1446" type="line"/>
      <point x="1111" y="640" type="line"/>
      <point x="673" y="1446" type="line"/>
      <point x="283" y="1446" type="line"/>
      <point x="62" y="0" type="line"/>
      <point x="451" y="0" type="line"/>
      <point x="581" y="862" type="line"/>
      <point x="1020" y="57" type="line"/>
      <point x="1016" y="32" type="line" smooth="yes"/>
      <point x="999" y="-74"/>
      <point x="939" y="-120"/>
      <point x="823" y="-120" type="curve" smooth="yes"/>
      <point x="781" y="-120"/>
      <point x="733" y="-114"/>
      <point x="697" y="-110" type="curve"/>
      <point x="645" y="-460" type="line"/>
      <point x="703" y="-472"/>
      <point x="821" y="-480"/>
    </contour>
  </outline>
</glyph>
<glyph name="eng" format="2">
  <advance width="1146"/>
  <unicode hex="014B"/>
  <outline>
    <contour>
      <point x="562" y="-332" type="curve" smooth="yes"/>
      <point x="775" y="-332"/>
      <point x="947" y="-184"/>
      <point x="981" y="56" type="curve" smooth="yes"/>
      <point x="1077" y="738" type="line" smooth="yes"/>
      <point x="1104" y="930"/>
      <point x="1007" y="1054"/>
      <point x="839" y="1054" type="curve" smooth="yes"/>
      <point x="722" y="1054"/>
      <point x="602" y="976"/>
      <point x="507" y="872" type="curve"/>
      <point x="529" y="1034" type="line"/>
      <point x="180" y="1034" type="line"/>
      <point x="27" y="0" type="line"/>
      <point x="390" y="0" type="line"/>
      <point x="485" y="680" type="line"/>
      <point x="527" y="746"/>
      <point x="573" y="778"/>
      <point x="629" y="778" type="curve" smooth="yes"/>
      <point x="688" y="778"/>
      <point x="719" y="742"/>
      <point x="711" y="684" type="curve" smooth="yes"/>
      <point x="621" y="50" type="line"/>
      <point x="615" y="0"/>
      <point x="587" y="-20"/>
      <point x="531" y="-30" type="curve"/>
      <point x="487" y="-36" type="line"/>
      <point x="449" y="-306" type="line"/>
      <point x="449" y="-306"/>
      <point x="457" y="-332"/>
    </contour>
  </outline>
</glyph>
<glyph name="Scedilla" format="2">
  <advance width="1441"/>
  <unicode hex="015E"/>
  <anchor x="650" y="0" name="_bottom"/>
  <anchor x="650" y="0" name="bottom"/>
  <anchor x="870" y="1446" name="top"/>
  <outline>
    <contour>
      <point x="594" y="-438" type="curve" smooth="yes"/>
      <point x="730" y="-438"/>
      <point x="862" y="-372"/>
      <point x="878" y="-268" type="curve" smooth="yes"/>
      <point x="888" y="-194"/>
      <point x="842" y="-104"/>
      <point x="680" y="-104" type="curve"/>
      <point x="738" y="10" type="line"/>
      <point x="582" y="10" type="line"/>
      <point x="482" y="-162" type="line" smooth="yes"/>
      <point x="468" y="-184"/>
      <point x="478" y="-186"/>
      <point x="498" y="-186" type="curve" smooth="yes"/>
      <point x="632" y="-186"/>
      <point x="670" y="-214"/>
      <point x="664" y="-262" type="curve" smooth="yes"/>
      <point x="658" y="-294"/>
      <point x="618" y="-314"/>
      <point x="564" y="-314" type="curve" smooth="yes"/>
      <point x="506" y="-314"/>
      <point x="446" y="-288"/>
      <point x="404" y="-262" type="curve"/>
      <point x="338" y="-380" type="line"/>
      <point x="408" y="-426"/>
      <point x="500" y="-438"/>
    </contour>
    <component base="S"/>
  </outline>
</glyph>
<glyph name="Tcedilla" format="2">
  <advance width="1269"/>
  <unicode hex="0162"/>
  <anchor x="564" y="0" name="_bottom"/>
  <anchor x="564" y="0" name="bottom"/>
  <anchor x="784" y="1446" name="top"/>
  <outline>
    <contour>
      <point x="508" y="-438" type="curve" smooth="yes"/>
      <point x="644" y="-438"/>
      <point x="776" y="-372"/>
      <point x="792" y="-268" type="curve" smooth="yes"/>
      <point x="802" y="-194"/>
      <point x="756" y="-104"/>
      <point x="594" y="-104" type="curve"/>
      <point x="652" y="10" type="line"/>
      <point x="496" y="10" type="line"/>
      <point x="396" y="-162" type="line" smooth="yes"/>
      <point x="382" y="-184"/>
      <point x="392" y="-186"/>
      <point x="412" y="-186" type="curve" smooth="yes"/>
      <point x="546" y="-186"/>
      <point x="584" y="-214"/>
      <point x="578" y="-262" type="curve" smooth="yes"/>
      <point x="572" y="-294"/>
      <point x="532" y="-314"/>
      <point x="478" y="-314" type="curve" smooth="yes"/>
      <point x="420" y="-314"/>
      <point x="360" y="-288"/>
      <point x="318" y="-262" type="curve"/>
      <point x="252" y="-380" type="line"/>
      <point x="322" y="-426"/>
      <point x="414" y="-438"/>
    </contour>
    <component base="T"/>
  </outline>
</glyph>
<glyph name="tcedilla" format="2">
  <advance width="880"/>
  <unicode hex="0163"/>
  <anchor x="425" y="18" name="_bottom"/>
  <anchor x="425" y="18" name="bottom"/>
  <anchor x="675" y="1586" name="caron"/>
  <anchor x="429" y="516" name="center"/>
  <outline>
    <contour>
      <point x="369" y="-420" type="curve" smooth="yes"/>
      <point x="505" y="-420"/>
      <point x="637" y="-354"/>
      <point x="653" y="-250" type="curve" smooth="yes"/>
      <point x="663" y="-176"/>
      <point x="617" y="-86"/>
      <point x="455" y="-86" type="curve"/>
      <point x="513" y="28" type="line"/>
      <point x="357" y="28" type="line"/>
      <point x="257" y="-144" type="line" smooth="yes"/>
      <point x="243" y="-166"/>
      <point x="253" y="-168"/>
      <point x="273" y="-168" type="curve" smooth="yes"/>
      <point x="407" y="-168"/>
      <point x="445" y="-196"/>
      <point x="439" y="-244" type="curve" smooth="yes"/>
      <point x="433" y="-276"/>
      <point x="393" y="-296"/>
      <point x="339" y="-296" type="curve" smooth="yes"/>
      <point x="281" y="-296"/>
      <point x="221" y="-270"/>
      <point x="179" y="-244" type="curve"/>
      <point x="113" y="-362" type="line"/>
      <point x="183" y="-408"/>
      <point x="275" y="-420"/>
    </contour>
    <component base="t"/>
  </outline>
</glyph>
<glyph name="Tbar" format="2">
  <advance width="1269"/>
  <unicode hex="0166"/>
  <anchor x="564" y="0" name="bottom"/>
  <anchor x="784" y="1446" name="top"/>
  <outline>
    <contour>
      <point x="198" y="548" type="line"/>
      <point x="1052" y="548" type="line"/>
      <point x="1092" y="822" type="line"/>
      <point x="238" y="822" type="line"/>
    </contour>
    <component base="T"/>
  </outline>
</glyph>
<glyph name="tbar" format="2">
  <advance width="927"/>
  <unicode hex="0167"/>
  <anchor x="435" y="18" name="bottom"/>
  <anchor x="685" y="1586" name="caron"/>
  <anchor x="439" y="516" name="center"/>
  <outline>
    <contour>
      <point x="50" y="450" type="line"/>
      <point x="773" y="450" type="line"/>
      <point x="804" y="660" type="line"/>
      <point x="81" y="660" type="line"/>
    </contour>
    <component base="t" xOffset="10"/>
  </outline>
</glyph>
<glyph name="Uogonek" format="2">
  <advance width="1492"/>
  <unicode hex="0172"/>
  <anchor x="797" y="0" name="_ogonek"/>
  <anchor x="675" y="0" name="bottom"/>
  <anchor x="1394" y="1094" name="horn"/>
  <anchor x="797" y="0" name="ogonek"/>
  <anchor x="894" y="1446" name="top"/>
  <outline>
    <contour>
      <point x="577" y="-360" type="curve" smooth="yes"/>
      <point x="675" y="-360"/>
      <point x="771" y="-332"/>
      <point x="815" y="-306" type="curve"/>
      <point x="839" y="-142" type="line"/>
      <point x="787" y="-170"/>
      <point x="745" y="-192"/>
      <point x="687" y="-192" type="curve" smooth="yes"/>
      <point x="651" y="-192"/>
      <point x="637" y="-174"/>
      <point x="641" y="-136" type="curve" smooth="yes"/>
      <point x="649" y="-92"/>
      <point x="687" y="-56"/>
      <point x="841" y="-8" type="curve"/>
      <point x="575" y="-8" type="line"/>
      <point x="417" y="-62"/>
      <point x="377" y="-124"/>
      <point x="367" y="-190" type="curve" smooth="yes"/>
      <point x="349" y="-306"/>
      <point x="435" y="-360"/>
    </contour>
    <component base="U"/>
  </outline>
</glyph>
<glyph name="Schwa" format="2">
  <advance width="1566"/>
  <unicode hex="018F"/>
  <outline>
    <contour>
      <point x="703" y="-20" type="curve" smooth="yes"/>
      <point x="1103" y="-20"/>
      <point x="1439" y="218"/>
      <point x="1513" y="742" type="curve" smooth="yes"/>
      <point x="1578" y="1208"/>
      <point x="1349" y="1466"/>
      <point x="911" y="1466" type="curve" smooth="yes"/>
      <point x="486" y="1466"/>
      <point x="177" y="1172"/>
      <point x="143" y="932" type="curve"/>
      <point x="577" y="932" type="line"/>
      <point x="589" y="1015"/>
      <point x="702" y="1108"/>
      <point x="852" y="1108" type="curve" smooth="yes"/>
      <point x="1002" y="1108"/>
      <point x="1083" y="1008"/>
      <point x="1058" y="828" type="curve"/>
      <point x="129" y="828" type="line"/>
      <point x="43" y="221"/>
      <point x="303" y="-20"/>
    </contour>
    <contour>
      <point x="750" y="314" type="curve" smooth="yes"/>
      <point x="611" y="314"/>
      <point x="545" y="408"/>
      <point x="566" y="556" type="curve"/>
      <point x="1015" y="554" type="line"/>
      <point x="995" y="408"/>
      <point x="902" y="314"/>
    </contour>
  </outline>
</glyph>
<glyph name="florin" format="2">
  <advance width="1165"/>
  <unicode hex="0192"/>
  <outline>
    <contour>
      <point x="-100" y="-336" type="line"/>
      <point x="182" y="-336" type="line" smooth="yes"/>
      <point x="372" y="-336"/>
      <point x="524" y="-230"/>
      <point x="580" y="-60" type="curve" smooth="yes"/>
      <point x="852" y="770" type="line"/>
      <point x="1036" y="770" type="line"/>
      <point x="1124" y="1034" type="line"/>
      <point x="926" y="1034" type="line"/>
      <point x="946" y="1094" type="line" smooth="yes"/>
      <point x="964" y="1148"/>
      <point x="1020" y="1194"/>
      <point x="1066" y="1194" type="curve" smooth="yes"/>
      <point x="1186" y="1194" type="line"/>
      <point x="1266" y="1446" type="line"/>
      <point x="990" y="1446" type="line" smooth="yes"/>
      <point x="802" y="1446"/>
      <point x="652" y="1342"/>
      <point x="594" y="1172" type="curve" smooth="yes"/>
      <point x="550" y="1034" type="line"/>
      <point x="382" y="1034" type="line"/>
      <point x="296" y="770" type="line"/>
      <point x="464" y="770" type="line"/>
      <point x="224" y="40" type="line" smooth="yes"/>
      <point x="192" y="-60"/>
      <point x="166" y="-82"/>
      <point x="98" y="-82" type="curve" smooth="yes"/>
      <point x="-24" y="-82" type="line"/>
    </contour>
  </outline>
</glyph>
<glyph name="uhorn" format="2">
  <advance width="1520"/>
  <unicode hex="01B0"/>
  <anchor x="522" y="0" name="bottom"/>
  <anchor x="1074" y="714" name="horn"/>
  <anchor x="973" y="20" name="ogonek"/>
  <anchor x="677" y="1034" name="top"/>
  <anchor x="1312" y="894" name="topright"/>
  <outline>
    <contour>
      <point x="406" y="-20" type="curve" smooth="yes"/>
      <point x="506" y="-20"/>
      <point x="674" y="6"/>
      <point x="741" y="212" type="curve"/>
      <point x="757" y="0" type="line"/>
      <point x="1045" y="0" type="line"/>
      <point x="1144" y="708" type="line"/>
      <point x="1438" y="691"/>
      <point x="1532" y="809"/>
      <point x="1582" y="1112" type="curve"/>
      <point x="1348" y="1112" type="line"/>
      <point x="1302" y="918"/>
      <point x="1261" y="893"/>
      <point x="1170" y="891" type="curve"/>
      <point x="1190" y="1034" type="line"/>
      <point x="804" y="1034" type="line"/>
      <point x="709" y="360" type="line" smooth="yes"/>
      <point x="701" y="300"/>
      <point x="646" y="254"/>
      <point x="568" y="254" type="curve" smooth="yes"/>
      <point x="489" y="254"/>
      <point x="450" y="300"/>
      <point x="458" y="360" type="curve" smooth="yes"/>
      <point x="553" y="1034" type="line"/>
      <point x="163" y="1034" type="line"/>
      <point x="61" y="306" type="line" smooth="yes"/>
      <point x="32" y="98"/>
      <point x="239" y="-20"/>
    </contour>
  </outline>
</glyph>
<glyph name="Oogonek" format="2">
  <advance width="1564"/>
  <unicode hex="01EA"/>
  <anchor x="885" y="20" name="_ogonek"/>
  <anchor x="704" y="0" name="bottom"/>
  <anchor x="1354" y="1094" name="horn"/>
  <anchor x="885" y="20" name="ogonek"/>
  <anchor x="902" y="1446" name="top"/>
  <outline>
    <contour>
      <point x="665" y="-340" type="curve" smooth="yes"/>
      <point x="763" y="-340"/>
      <point x="859" y="-312"/>
      <point x="903" y="-286" type="curve"/>
      <point x="927" y="-122" type="line"/>
      <point x="875" y="-150"/>
      <point x="833" y="-172"/>
      <point x="775" y="-172" type="curve" smooth="yes"/>
      <point x="739" y="-172"/>
      <point x="725" y="-154"/>
      <point x="729" y="-116" type="curve" smooth="yes"/>
      <point x="737" y="-72"/>
      <point x="775" y="-36"/>
      <point x="929" y="12" type="curve"/>
      <point x="663" y="12" type="line"/>
      <point x="505" y="-42"/>
      <point x="465" y="-104"/>
      <point x="455" y="-170" type="curve" smooth="yes"/>
      <point x="437" y="-286"/>
      <point x="523" y="-340"/>
    </contour>
    <component base="O"/>
  </outline>
</glyph>
<glyph name="oogonek" format="2">
  <advance width="1164"/>
  <unicode hex="01EB"/>
  <anchor x="658" y="20" name="_ogonek"/>
  <anchor x="498" y="0" name="bottom"/>
  <anchor x="971" y="668" name="horn"/>
  <anchor x="658" y="20" name="ogonek"/>
  <anchor x="660" y="1034" name="top"/>
  <outline>
    <contour>
      <point x="438" y="-340" type="curve" smooth="yes"/>
      <point x="536" y="-340"/>
      <point x="632" y="-312"/>
      <point x="676" y="-286" type="curve"/>
      <point x="700" y="-122" type="line"/>
      <point x="648" y="-150"/>
      <point x="606" y="-172"/>
      <point x="548" y="-172" type="curve" smooth="yes"/>
      <point x="512" y="-172"/>
      <point x="498" y="-154"/>
      <point x="502" y="-116" type="curve" smooth="yes"/>
      <point x="510" y="-72"/>
      <point x="548" y="-36"/>
      <point x="702" y="12" type="curve"/>
      <point x="436" y="12" type="line"/>
      <point x="278" y="-42"/>
      <point x="238" y="-104"/>
      <point x="228" y="-170" type="curve" smooth="yes"/>
      <point x="210" y="-286"/>
      <point x="296" y="-340"/>
    </contour>
    <component base="o"/>
  </outline>
</glyph>
<glyph name="jdotless" format="2">
  <advance width="633"/>
  <unicode hex="0237"/>
  <anchor x="411" y="1034" name="top"/>
  <outline>
    <contour>
      <point x="-9" y="-332" type="curve"/>
      <point x="267" y="-332"/>
      <point x="419" y="-200"/>
      <point x="459" y="56" type="curve" smooth="yes"/>
      <point x="606" y="1034" type="line"/>
      <point x="219" y="1034" type="line"/>
      <point x="70" y="56" type="line"/>
      <point x="64" y="14"/>
      <point x="39" y="-12"/>
      <point x="-37" y="-28" type="curve"/>
      <point x="-98" y="-38" type="line"/>
      <point x="-135" y="-298" type="line"/>
      <point x="-135" y="-298"/>
      <point x="-111" y="-332"/>
    </contour>
  </outline>
</glyph>
<glyph name="commaturnedmod" format="2">
  <advance width="580"/>
  <unicode hex="02BB"/>
  <outline>
    <contour>
      <point x="145" y="834" type="line"/>
      <point x="497" y="834" type="line"/>
      <point x="547" y="1170" type="line"/>
      <point x="385" y="1188" type="line"/>
      <point x="389" y="1210" type="line"/>
      <point x="401" y="1288"/>
      <point x="483" y="1336"/>
      <point x="547" y="1346" type="curve"/>
      <point x="575" y="1350" type="line"/>
      <point x="591" y="1450" type="line"/>
      <point x="391" y="1490"/>
      <point x="217" y="1308"/>
      <point x="191" y="1132" type="curve"/>
    </contour>
  </outline>
</glyph>
<glyph name="apostrophemod" format="2">
  <advance width="669"/>
  <unicode hex="02BC"/>
  <outline>
    <contour>
      <point x="145" y="840" type="line"/>
      <point x="337" y="800"/>
      <point x="538" y="982"/>
      <point x="590" y="1158" type="curve"/>
      <point x="681" y="1456" type="line"/>
      <point x="332" y="1456" type="line"/>
      <point x="231" y="1120" type="line"/>
      <point x="389" y="1102" type="line"/>
      <point x="382" y="1080" type="line"/>
      <point x="358" y="1002"/>
      <point x="269" y="954"/>
      <point x="204" y="944" type="curve"/>
      <point x="176" y="940" type="line"/>
    </contour>
  </outline>
</glyph>
<glyph name="acutecomb" format="2">
  <unicode hex="0301"/>
  <anchor x="222" y="1034" name="_top"/>
  <outline>
    <contour>
      <point x="100" y="1155" type="line"/>
      <point x="378" y="1155" type="line"/>
      <point x="736" y="1446" type="line"/>
      <point x="347" y="1446" type="line"/>
    </contour>
  </outline>
</glyph>
<glyph name="circumflexcomb" format="2">
  <unicode hex="0302"/>
  <anchor x="502" y="1034" name="_top"/>
  <outline>
    <contour>
      <point x="114" y="1155" type="line"/>
      <point x="378" y="1155" type="line"/>
      <point x="520" y="1304" type="line"/>
      <point x="644" y="1155" type="line"/>
      <point x="922" y="1155" type="line"/>
      <point x="654" y="1446" type="line"/>
      <point x="390" y="1446" type="line"/>
    </contour>
  </outline>
</glyph>
<glyph name="tildecomb" format="2">
  <unicode hex="0303"/>
  <anchor x="536" y="1034" name="_top"/>
  <outline>
    <contour>
      <point x="235" y="1172" type="line"/>
      <point x="305" y="1226"/>
      <point x="349" y="1244"/>
      <point x="417" y="1244" type="curve" smooth="yes"/>
      <point x="527" y="1244"/>
      <point x="605" y="1184"/>
      <point x="721" y="1184" type="curve" smooth="yes"/>
      <point x="815" y="1184"/>
      <point x="907" y="1224"/>
      <point x="961" y="1266" type="curve"/>
      <point x="951" y="1472" type="line"/>
      <point x="903" y="1436"/>
      <point x="827" y="1390"/>
      <point x="751" y="1390" type="curve" smooth="yes"/>
      <point x="659" y="1390"/>
      <point x="561" y="1456"/>
      <point x="439" y="1456" type="curve" smooth="yes"/>
      <point x="335" y="1456"/>
      <point x="269" y="1408"/>
      <point x="207" y="1350" type="curve"/>
    </contour>
  </outline>
</glyph>
<glyph name="macroncomb" format="2">
  <unicode hex="0304"/>
  <anchor x="511" y="1034" name="_top"/>
  <outline>
    <contour>
      <point x="144" y="1178" type="line"/>
      <point x="940" y="1178" type="line"/>
      <point x="976" y="1416" type="line"/>
      <point x="180" y="1416" type="line"/>
    </contour>
  </outline>
</glyph>
<glyph name="brevecomb" format="2">
  <unicode hex="0306"/>
  <anchor x="501" y="1034" name="_top"/>
  <outline>
    <contour>
      <point x="519" y="1156" type="curve" smooth="yes"/>
      <point x="695" y="1156"/>
      <point x="867" y="1250"/>
      <point x="955" y="1446" type="curve"/>
      <point x="745" y="1446" type="line"/>
      <point x="697" y="1378"/>
      <point x="633" y="1330"/>
      <point x="545" y="1330" type="curve" smooth="yes"/>
      <point x="459" y="1330"/>
      <point x="409" y="1378"/>
      <point x="381" y="1446" type="curve"/>
      <point x="171" y="1446" type="line"/>
      <point x="199" y="1244"/>
      <point x="347" y="1156"/>
    </contour>
  </outline>
</glyph>
<glyph name="dotaccentcomb" format="2">
  <unicode hex="0307"/>
  <anchor x="262" y="1034" name="_top"/>
  <outline>
    <contour>
      <point x="100" y="1155" type="line"/>
      <point x="458" y="1155" type="line"/>
      <point x="502" y="1446" type="line"/>
      <point x="144" y="1446" type="line"/>
    </contour>
  </outline>
</glyph>
<glyph name="dieresiscomb" format="2">
  <unicode hex="0308"/>
  <anchor x="534" y="1034" name="_top"/>
  <outline>
    <contour>
      <point x="636" y="1155" type="line"/>
      <point x="994" y="1155" type="line"/>
      <point x="1038" y="1446" type="line"/>
      <point x="680" y="1446" type="line"/>
    </contour>
    <contour>
      <point x="100" y="1155" type="line"/>
      <point x="458" y="1155" type="line"/>
      <point x="502" y="1446" type="line"/>
      <point x="144" y="1446" type="line"/>
    </contour>
  </outline>
</glyph>
<glyph name="hookabovecomb" format="2">
  <unicode hex="0309"/>
  <anchor x="653" y="1034" name="_top"/>
  <anchor x="577" y="1198" name="_topviet"/>
  <outline>
    <contour>
      <point x="749" y="1134" type="line"/>
      <point x="911" y="1222"/>
      <point x="953" y="1348"/>
      <point x="893" y="1472" type="curve" smooth="yes"/>
      <point x="843" y="1576"/>
      <point x="703" y="1606"/>
      <point x="561" y="1522" type="curve"/>
      <point x="623" y="1396" type="line"/>
      <point x="669" y="1424"/>
      <point x="725" y="1418"/>
      <point x="741" y="1382" type="curve" smooth="yes"/>
      <point x="761" y="1336"/>
      <point x="739" y="1294"/>
      <point x="687" y="1264" type="curve"/>
    </contour>
  </outline>
</glyph>
<glyph name="ringcomb" format="2">
  <unicode hex="030A"/>
  <anchor x="334" y="1012" name="_top"/>
  <outline>
    <contour>
      <point x="348" y="1096" type="curve" smooth="yes"/>
      <point x="472" y="1096"/>
      <point x="590" y="1196"/>
      <point x="608" y="1324" type="curve" smooth="yes"/>
      <point x="628" y="1448"/>
      <point x="542" y="1548"/>
      <point x="416" y="1548" type="curve" smooth="yes"/>
      <point x="292" y="1548"/>
      <point x="174" y="1450"/>
      <point x="156" y="1328" type="curve" smooth="yes"/>
      <point x="136" y="1198"/>
      <point x="220" y="1096"/>
    </contour>
    <contour>
      <point x="366" y="1226" type="curve" smooth="yes"/>
      <point x="314" y="1226"/>
      <point x="276" y="1272"/>
      <point x="284" y="1322" type="curve" smooth="yes"/>
      <point x="292" y="1374"/>
      <point x="342" y="1414"/>
      <point x="394" y="1414" type="curve" smooth="yes"/>
      <point x="446" y="1414"/>
      <point x="480" y="1374"/>
      <point x="472" y="1322" type="curve" smooth="yes"/>
      <point x="464" y="1272"/>
      <point x="418" y="1226"/>
    </contour>
  </outline>
</glyph>
<glyph name="caroncomb" format="2">
  <unicode hex="030C"/>
  <anchor x="512" y="1034" name="_top"/>
  <outline>
    <contour>
      <point x="390" y="1155" type="line"/>
      <point x="656" y="1155" type="line"/>
      <point x="966" y="1448" type="line"/>
      <point x="688" y="1448" type="line"/>
      <point x="541" y="1284" type="line"/>
      <point x="422" y="1448" type="line"/>
      <point x="158" y="1448" type="line"/>
    </contour>
  </outline>
</glyph>
<glyph name="dblgravecomb" format="2">
  <unicode hex="030F"/>
  <anchor x="774" y="1034" name="_top"/>
  <outline>
    <contour>
      <point x="430" y="1155" type="line"/>
      <point x="696" y="1155" type="line"/>
      <point x="481" y="1446" type="line"/>
      <point x="141" y="1446" type="line"/>
    </contour>
    <contour>
      <point x="851" y="1155" type="line"/>
      <point x="1116" y="1155" type="line"/>
      <point x="951" y="1446" type="line"/>
      <point x="624" y="1446" type="line"/>
    </contour>
  </outline>
</glyph>
<glyph name="breveinvertedcomb" format="2">
  <unicode hex="0311"/>
  <anchor x="472" y="1034" name="_top"/>
  <outline>
    <contour>
      <point x="119.558" y="1155" type="curve"/>
      <point x="329.558" y="1155" type="line"/>
      <point x="376.672" y="1223"/>
      <point x="440.164" y="1271"/>
      <point x="526.164" y="1271" type="curve" smooth="yes"/>
      <point x="614.164" y="1271"/>
      <point x="664.672" y="1223"/>
      <point x="693.558" y="1155" type="curve"/>
      <point x="903.558" y="1155" type="line"/>
      <point x="870.65" y="1351"/>
      <point x="725.072" y="1445"/>
      <point x="549.072" y="1445" type="curve" smooth="yes"/>
      <point x="377.072" y="1445"/>
      <point x="204.336" y="1357"/>
    </contour>
  </outline>
</glyph>
<glyph name="commaturnedabovecomb" format="2">
  <unicode hex="0312"/>
  <anchor x="669" y="1034" name="_top"/>
  <outline>
    <contour>
      <point x="555" y="1155" type="line"/>
      <point x="807" y="1155" type="line"/>
      <point x="835" y="1355" type="line"/>
      <point x="713" y="1355" type="line"/>
      <point x="873" y="1539" type="line"/>
      <point x="741" y="1539" type="line"/>
      <point x="585" y="1371" type="line"/>
    </contour>
  </outline>
</glyph>
<glyph name="commaaccentcomb" format="2">
  <unicode hex="0326"/>
  <anchor x="99" y="0" name="_bottom"/>
  <outline>
    <contour>
      <point x="-132" y="-495" type="line"/>
      <point x="-4" y="-495" type="line"/>
      <point x="207" y="-271" type="line"/>
      <point x="233" y="-91" type="line"/>
      <point x="-71" y="-91" type="line"/>
      <point x="-102" y="-309" type="line"/>
      <point x="-8" y="-323" type="line"/>
    </contour>
  </outline>
</glyph>
<glyph name="cedillacomb" format="2">
  <unicode hex="0327"/>
  <anchor x="222" y="0" name="_bottom"/>
  <outline>
    <contour>
      <point x="166" y="-438" type="curve" smooth="yes"/>
      <point x="302" y="-438"/>
      <point x="434" y="-372"/>
      <point x="450" y="-268" type="curve" smooth="yes"/>
      <point x="460" y="-194"/>
      <point x="414" y="-104"/>
      <point x="252" y="-104" type="curve"/>
      <point x="310" y="10" type="line"/>
      <point x="154" y="10" type="line"/>
      <point x="54" y="-162" type="line" smooth="yes"/>
      <point x="40" y="-184"/>
      <point x="50" y="-186"/>
      <point x="70" y="-186" type="curve" smooth="yes"/>
      <point x="204" y="-186"/>
      <point x="242" y="-214"/>
      <point x="236" y="-262" type="curve" smooth="yes"/>
      <point x="230" y="-294"/>
      <point x="190" y="-314"/>
      <point x="136" y="-314" type="curve" smooth="yes"/>
      <point x="78" y="-314"/>
      <point x="18" y="-288"/>
      <point x="-24" y="-262" type="curve"/>
      <point x="-90" y="-380" type="line"/>
      <point x="-20" y="-426"/>
      <point x="72" y="-438"/>
    </contour>
  </outline>
</glyph>
<glyph name="ogonekcomb" format="2">
  <unicode hex="0328"/>
  <anchor x="375" y="20" name="_ogonek"/>
  <outline>
    <contour>
      <point x="155" y="-340" type="curve" smooth="yes"/>
      <point x="253" y="-340"/>
      <point x="349" y="-312"/>
      <point x="393" y="-286" type="curve"/>
      <point x="417" y="-122" type="line"/>
      <point x="365" y="-150"/>
      <point x="323" y="-172"/>
      <point x="265" y="-172" type="curve" smooth="yes"/>
      <point x="229" y="-172"/>
      <point x="215" y="-154"/>
      <point x="219" y="-116" type="curve" smooth="yes"/>
      <point x="227" y="-72"/>
      <point x="265" y="-36"/>
      <point x="419" y="12" type="curve"/>
      <point x="153" y="12" type="line"/>
      <point x="-5" y="-42"/>
      <point x="-45" y="-104"/>
      <point x="-55" y="-170" type="curve" smooth="yes"/>
      <point x="-73" y="-286"/>
      <point x="13" y="-340"/>
    </contour>
  </outline>
</glyph>
<glyph name="pi" format="2">
  <advance width="1379"/>
  <unicode hex="03C0"/>
  <outline>
    <contour>
      <point x="19" y="0" type="curve"/>
      <point x="385" y="0" type="line"/>
      <point x="475" y="192"/>
      <point x="583" y="572"/>
      <point x="611" y="770" type="curve"/>
      <point x="827" y="770" type="line"/>
      <point x="719" y="0" type="line"/>
      <point x="1091" y="0" type="line"/>
      <point x="1199" y="770" type="line"/>
      <point x="1355" y="770" type="line"/>
      <point x="1391" y="1034" type="line"/>
      <point x="113" y="1034" type="line"/>
      <point x="77" y="770" type="line"/>
      <point x="219" y="770" type="line" smooth="yes"/>
      <point x="231" y="770"/>
      <point x="235" y="762"/>
      <point x="233" y="750" type="curve" smooth="yes"/>
      <point x="207" y="566"/>
      <point x="107" y="224"/>
    </contour>
  </outline>
</glyph>
<glyph name="endash" format="2">
  <advance width="1248"/>
  <unicode hex="2013"/>
  <outline>
    <contour>
      <point x="94" y="356" type="line"/>
      <point x="1105" y="356" type="line"/>
      <point x="1147" y="630" type="line"/>
      <point x="136" y="630" type="line"/>
    </contour>
  </outline>
</glyph>
<glyph name="emdash" format="2">
  <advance width="2355"/>
  <unicode hex="2014"/>
  <outline>
    <contour>
      <point x="328" y="356" type="line"/>
      <point x="1981" y="356" type="line"/>
      <point x="2020" y="630" type="line"/>
      <point x="367" y="630" type="line"/>
    </contour>
  </outline>
</glyph>
<glyph name="quoteright" format="2">
  <advance width="583"/>
  <unicode hex="2019"/>
  <outline>
    <contour>
      <point x="140" y="802" type="line"/>
      <point x="268" y="802" type="line"/>
      <point x="548" y="1148" type="line"/>
      <point x="594" y="1446" type="line"/>
      <point x="242" y="1446" type="line"/>
      <point x="190" y="1110" type="line"/>
      <point x="304" y="1096" type="line"/>
    </contour>
  </outline>
</glyph>
<glyph name="quotedblleft" format="2">
  <advance width="1067"/>
  <unicode hex="201C"/>
  <outline>
    <contour>
      <point x="588" y="825.786" type="line"/>
      <point x="940" y="825.786" type="line"/>
      <point x="992" y="1165.089" type="line"/>
      <point x="878" y="1179.226" type="line"/>
      <point x="1042" y="1476.116" type="line"/>
      <point x="914" y="1476.116" type="line"/>
      <point x="634" y="1126.715" type="line"/>
    </contour>
    <contour>
      <point x="93" y="825.786" type="line"/>
      <point x="445" y="825.786" type="line"/>
      <point x="497" y="1165.089" type="line"/>
      <point x="383" y="1179.226" type="line"/>
      <point x="547" y="1476.116" type="line"/>
      <point x="419" y="1476.116" type="line"/>
      <point x="139" y="1126.715" type="line"/>
    </contour>
  </outline>
</glyph>
<glyph name="dagger" format="2">
  <advance width="1154"/>
  <unicode hex="2020"/>
  <outline>
    <contour>
      <point x="257" y="-322" type="line"/>
      <point x="615" y="-322" type="line"/>
      <point x="705" y="750" type="line"/>
      <point x="1065" y="694" type="line"/>
      <point x="1115" y="1022" type="line"/>
      <point x="751" y="972" type="line"/>
      <point x="885" y="1446" type="line"/>
      <point x="521" y="1446" type="line"/>
      <point x="511" y="972" type="line"/>
      <point x="165" y="1022" type="line"/>
      <point x="115" y="694" type="line"/>
      <point x="489" y="750" type="line"/>
    </contour>
  </outline>
</glyph>
<glyph name="daggerdbl" format="2">
  <advance width="1159"/>
  <unicode hex="2021"/>
  <outline>
    <contour>
      <point x="260" y="-322" type="line"/>
      <point x="624" y="-322" type="line"/>
      <point x="626" y="114" type="line"/>
      <point x="976" y="62" type="line"/>
      <point x="1026" y="390" type="line"/>
      <point x="654" y="336" type="line"/>
      <point x="710" y="708" type="line"/>
      <point x="1066" y="654" type="line"/>
      <point x="1114" y="980" type="line"/>
      <point x="752" y="930" type="line"/>
      <point x="890" y="1446" type="line"/>
      <point x="528" y="1446" type="line"/>
      <point x="512" y="930" type="line"/>
      <point x="164" y="980" type="line"/>
      <point x="116" y="654" type="line"/>
      <point x="486" y="708" type="line"/>
      <point x="428" y="336" type="line"/>
      <point x="76" y="390" type="line"/>
      <point x="26" y="62" type="line"/>
      <point x="390" y="114" type="line"/>
    </contour>
  </outline>
</glyph>
<glyph name="bullet" format="2">
  <advance width="779"/>
  <unicode hex="2022"/>
  <outline>
    <contour>
      <point x="405" y="434" type="curve" smooth="yes"/>
      <point x="571" y="434"/>
      <point x="707" y="570"/>
      <point x="707" y="736" type="curve" smooth="yes"/>
      <point x="707" y="900"/>
      <point x="571" y="1036"/>
      <point x="405" y="1036" type="curve" smooth="yes"/>
      <point x="239" y="1036"/>
      <point x="104" y="900"/>
      <point x="104" y="736" type="curve" smooth="yes"/>
      <point x="104" y="570"/>
      <point x="239" y="434"/>
    </contour>
  </outline>
</glyph>
<glyph name="perthousand" format="2">
  <advance width="2584"/>
  <unicode hex="2030"/>
  <outline>
    <contour>
      <point x="417" y="-8" type="line"/>
      <point x="1608" y="1462" type="line"/>
      <point x="1400" y="1462" type="line"/>
      <point x="207" y="-4" type="line"/>
    </contour>
    <contour>
      <point x="457" y="652" type="curve" smooth="yes"/>
      <point x="705" y="652"/>
      <point x="871" y="917"/>
      <point x="871" y="1115" type="curve" smooth="yes"/>
      <point x="871" y="1305"/>
      <point x="748" y="1468"/>
      <point x="571" y="1468" type="curve" smooth="yes"/>
      <point x="282" y="1468"/>
      <point x="151" y="1135"/>
      <point x="151" y="996" type="curve" smooth="yes"/>
      <point x="151" y="810"/>
      <point x="272" y="652"/>
    </contour>
    <contour>
      <point x="481" y="842" type="curve" smooth="yes"/>
      <point x="427" y="842"/>
      <point x="406" y="880"/>
      <point x="406" y="954" type="curve" smooth="yes"/>
      <point x="406" y="1037"/>
      <point x="428" y="1280"/>
      <point x="543" y="1280" type="curve" smooth="yes"/>
      <point x="595" y="1280"/>
      <point x="616" y="1239"/>
      <point x="616" y="1161" type="curve" smooth="yes"/>
      <point x="616" y="1077"/>
      <point x="600" y="842"/>
    </contour>
    <contour>
      <point x="1271" y="-20" type="curve" smooth="yes"/>
      <point x="1521" y="-20"/>
      <point x="1687" y="247"/>
      <point x="1687" y="446" type="curve" smooth="yes"/>
      <point x="1687" y="633"/>
      <point x="1565" y="798"/>
      <point x="1385" y="798" type="curve" smooth="yes"/>
      <point x="1140" y="798"/>
      <point x="967" y="522"/>
      <point x="967" y="323" type="curve" smooth="yes"/>
      <point x="967" y="138"/>
      <point x="1089" y="-20"/>
    </contour>
    <contour>
      <point x="1295" y="172" type="curve" smooth="yes"/>
      <point x="1243" y="172"/>
      <point x="1223" y="210"/>
      <point x="1223" y="283" type="curve" smooth="yes"/>
      <point x="1223" y="363"/>
      <point x="1244" y="608"/>
      <point x="1357" y="608" type="curve" smooth="yes"/>
      <point x="1409" y="608"/>
      <point x="1430" y="567"/>
      <point x="1430" y="489" type="curve" smooth="yes"/>
      <point x="1430" y="405"/>
      <point x="1414" y="172"/>
    </contour>
    <contour>
      <point x="2055" y="-20" type="curve" smooth="yes"/>
      <point x="2303" y="-20"/>
      <point x="2469" y="248"/>
      <point x="2469" y="446" type="curve" smooth="yes"/>
      <point x="2469" y="634"/>
      <point x="2348" y="798"/>
      <point x="2169" y="798" type="curve" smooth="yes"/>
      <point x="1921" y="798"/>
      <point x="1751" y="521"/>
      <point x="1751" y="323" type="curve" smooth="yes"/>
      <point x="1751" y="138"/>
      <point x="1871" y="-20"/>
    </contour>
    <contour>
      <point x="2079" y="172" type="curve" smooth="yes"/>
      <point x="2026" y="172"/>
      <point x="2006" y="211"/>
      <point x="2006" y="286" type="curve" smooth="yes"/>
      <point x="2006" y="368"/>
      <point x="2027" y="608"/>
      <point x="2141" y="608" type="curve" smooth="yes"/>
      <point x="2192" y="608"/>
      <point x="2212" y="569"/>
      <point x="2212" y="493" type="curve" smooth="yes"/>
      <point x="2212" y="409"/>
      <point x="2198" y="172"/>
    </contour>
  </outline>
</glyph>
<glyph name="guilsinglleft" format="2">
  <advance width="676"/>
  <unicode hex="2039"/>
  <outline>
    <contour>
      <point x="272" y="118" type="line"/>
      <point x="472" y="118" type="line"/>
      <point x="402" y="502" type="line"/>
      <point x="590" y="902" type="line"/>
      <point x="390" y="902" type="line"/>
      <point x="118" y="502" type="line"/>
    </contour>
  </outline>
</glyph>
<glyph name="fraction" format="2">
  <advance width="491"/>
  <unicode hex="2044"/>
  <outline>
    <contour>
      <point x="-215" y="-8" type="line"/>
      <point x="976" y="1462" type="line"/>
      <point x="768" y="1462" type="line"/>
      <point x="-425" y="-4" type="line"/>
    </contour>
  </outline>
</glyph>
<glyph name="colonsign" format="2">
  <advance width="1485"/>
  <unicode hex="20A1"/>
  <anchor x="693" y="0" name="bottom"/>
  <anchor x="911" y="1446" name="top"/>
  <outline>
    <contour>
      <point x="689" y="-20" type="curve" smooth="yes"/>
      <point x="1149" y="-20"/>
      <point x="1313" y="240"/>
      <point x="1399" y="540" type="curve"/>
      <point x="995" y="540" type="line"/>
      <point x="953" y="406"/>
      <point x="855" y="292"/>
      <point x="724" y="292" type="curve" smooth="yes"/>
      <point x="605" y="292"/>
      <point x="526" y="372"/>
      <point x="526" y="574" type="curve" smooth="yes"/>
      <point x="526" y="818"/>
      <point x="602" y="1154"/>
      <point x="853" y="1154" type="curve" smooth="yes"/>
      <point x="987" y="1154"/>
      <point x="1054" y="1070"/>
      <point x="1056" y="936" type="curve"/>
      <point x="1459" y="936" type="line"/>
      <point x="1459" y="1272"/>
      <point x="1250" y="1466"/>
      <point x="915" y="1466" type="curve" smooth="yes"/>
      <point x="380" y="1466"/>
      <point x="106" y="1025"/>
      <point x="106" y="593" type="curve" smooth="yes"/>
      <point x="106" y="231"/>
      <point x="322" y="-20"/>
    </contour>
    <contour>
      <point x="424" y="-122" type="line"/>
      <point x="578" y="-122" type="line"/>
      <point x="898" y="1560" type="line"/>
      <point x="744" y="1560" type="line"/>
    </contour>
    <contour>
      <point x="668" y="-122" type="line"/>
      <point x="822" y="-122" type="line"/>
      <point x="1142" y="1560" type="line"/>
      <point x="988" y="1560" type="line"/>
    </contour>
  </outline>
</glyph>
<glyph name="franc" format="2">
  <advance width="1282"/>
  <unicode hex="20A3"/>
  <outline>
    <contour>
      <point x="31" y="0" type="line"/>
      <point x="471" y="0" type="line"/>
      <point x="555" y="558" type="line"/>
      <point x="983" y="558" type="line"/>
      <point x="1029" y="868" type="line"/>
      <point x="601" y="868" type="line"/>
      <point x="641" y="1128" type="line"/>
      <point x="1303" y="1128" type="line"/>
      <point x="1353" y="1446" type="line"/>
      <point x="251" y="1446" type="line"/>
    </contour>
    <contour>
      <point x="-103" y="212" type="line"/>
      <point x="773" y="212" type="line"/>
      <point x="803" y="410" type="line"/>
      <point x="-73" y="410" type="line"/>
    </contour>
  </outline>
</glyph>
<glyph name="lira" format="2">
  <advance width="1356"/>
  <unicode hex="20A4"/>
  <outline>
    <contour>
      <point x="-23" y="0" type="line"/>
      <point x="719" y="0" type="line" smooth="yes"/>
      <point x="967" y="0"/>
      <point x="1171" y="146"/>
      <point x="1271" y="412" type="curve"/>
      <point x="957" y="476" type="line"/>
      <point x="907" y="364"/>
      <point x="845" y="320"/>
      <point x="737" y="320" type="curve"/>
      <point x="531" y="320" type="line"/>
      <point x="599" y="360"/>
      <point x="651" y="414"/>
      <point x="685" y="478" type="curve"/>
      <point x="905" y="478" type="line"/>
      <point x="935" y="674" type="line"/>
      <point x="727" y="674" type="line"/>
      <point x="733" y="770" type="line"/>
      <point x="949" y="770" type="line"/>
      <point x="978" y="968" type="line"/>
      <point x="753" y="968" type="line" smooth="yes"/>
      <point x="739" y="968"/>
      <point x="733" y="976"/>
      <point x="733" y="992" type="curve" smooth="yes"/>
      <point x="735" y="1012"/>
      <point x="735" y="1030"/>
      <point x="737" y="1046" type="curve" smooth="yes"/>
      <point x="749" y="1122"/>
      <point x="791" y="1166"/>
      <point x="851" y="1166" type="curve" smooth="yes"/>
      <point x="919" y="1166"/>
      <point x="939" y="1104"/>
      <point x="953" y="1038" type="curve"/>
      <point x="1303" y="1134" type="line"/>
      <point x="1241" y="1372"/>
      <point x="1027" y="1466"/>
      <point x="835" y="1466" type="curve" smooth="yes"/>
      <point x="573" y="1466"/>
      <point x="309" y="1332"/>
      <point x="289" y="1064" type="curve"/>
      <point x="281" y="968" type="line"/>
      <point x="125" y="968" type="line"/>
      <point x="95" y="770" type="line"/>
      <point x="279" y="770" type="line"/>
      <point x="275" y="674" type="line"/>
      <point x="81" y="674" type="line"/>
      <point x="51" y="478" type="line"/>
      <point x="253" y="478" type="line" smooth="yes"/>
      <point x="265" y="478"/>
      <point x="271" y="474"/>
      <point x="269" y="462" type="curve" smooth="yes"/>
      <point x="265" y="440"/>
      <point x="261" y="422"/>
      <point x="253" y="406" type="curve" smooth="yes"/>
      <point x="223" y="344"/>
      <point x="163" y="318"/>
      <point x="87" y="318" type="curve" smooth="yes"/>
      <point x="25" y="318" type="line"/>
    </contour>
  </outline>
</glyph>
<glyph name="naira" format="2">
  <advance width="1953"/>
  <unicode hex="20A6"/>
  <anchor x="739.328" y="0" name="bottom"/>
  <anchor x="1178.387" y="1446" name="top"/>
  <outline>
    <contour>
      <point x="75.603" y="0" type="line"/>
      <point x="462.114" y="0" type="line"/>
      <point x="722.116" y="862" type="line"/>
      <point x="1058.274" y="0" type="line"/>
      <point x="1405.04" y="0" type="line"/>
      <point x="1844.099" y="1446" type="line"/>
      <point x="1457.589" y="1446" type="line"/>
      <point x="1215.029" y="640" type="line"/>
      <point x="902.167" y="1446" type="line"/>
      <point x="514.663" y="1446" type="line"/>
    </contour>
    <contour>
      <point x="6" y="420" type="line"/>
      <point x="1912" y="420" type="line"/>
      <point x="1938" y="596" type="line"/>
      <point x="32" y="596" type="line"/>
    </contour>
    <contour>
      <point x="76" y="888" type="line"/>
      <point x="1982" y="888" type="line"/>
      <point x="2010" y="1064" type="line"/>
      <point x="104" y="1064" type="line"/>
    </contour>
  </outline>
</glyph>
<glyph name="won" format="2">
  <advance width="2398"/>
  <unicode hex="20A9"/>
  <anchor x="1405.3954800000001" y="1446" name="top"/>
  <outline>
    <contour>
      <point x="114" y="1122" type="line"/>
      <point x="2440" y="1122" type="line"/>
      <point x="2471" y="1318" type="line"/>
      <point x="145" y="1318" type="line"/>
    </contour>
    <contour>
      <point x="64" y="829" type="line"/>
      <point x="2390" y="829" type="line"/>
      <point x="2418" y="1025" type="line"/>
      <point x="94" y="1025" type="line"/>
    </contour>
    <component base="W" xScale="0.9936" yxScale="0.15178" xOffset="87"/>
  </outline>
</glyph>
<glyph name="dong" format="2">
  <advance width="1123"/>
  <unicode hex="20AB"/>
  <outline>
    <contour>
      <point x="350" y="250" type="curve" smooth="yes"/>
      <point x="460" y="250"/>
      <point x="534" y="288"/>
      <point x="616" y="362" type="curve"/>
      <point x="600" y="266" type="line"/>
      <point x="916" y="266" type="line"/>
      <point x="1096" y="1446" type="line"/>
      <point x="776" y="1446" type="line"/>
      <point x="718" y="1064" type="line" smooth="yes"/>
      <point x="714" y="1040"/>
      <point x="700" y="1040"/>
      <point x="684" y="1052" type="curve" smooth="yes"/>
      <point x="630" y="1116"/>
      <point x="572" y="1134"/>
      <point x="500" y="1134" type="curve" smooth="yes"/>
      <point x="322" y="1134"/>
      <point x="136" y="960"/>
      <point x="94" y="688" type="curve" smooth="yes"/>
      <point x="50" y="398"/>
      <point x="160" y="250"/>
    </contour>
    <contour>
      <point x="52" y="0" type="line"/>
      <point x="876" y="0" type="line"/>
      <point x="902" y="174" type="line"/>
      <point x="78" y="174" type="line"/>
    </contour>
    <contour>
      <point x="510" y="442" type="curve" smooth="yes"/>
      <point x="426" y="442"/>
      <point x="390" y="506"/>
      <point x="418" y="690" type="curve" smooth="yes"/>
      <point x="446" y="878"/>
      <point x="510" y="936"/>
      <point x="584" y="936" type="curve" smooth="yes"/>
      <point x="634" y="936"/>
      <point x="660" y="914"/>
      <point x="686" y="874" type="curve"/>
      <point x="638" y="550" type="line" smooth="yes"/>
      <point x="628" y="486"/>
      <point x="574" y="442"/>
    </contour>
    <contour>
      <point x="548" y="1192" type="line"/>
      <point x="1176" y="1192" type="line"/>
      <point x="1200" y="1348" type="line"/>
      <point x="572" y="1348" type="line"/>
    </contour>
  </outline>
</glyph>
<glyph name="euro" format="2">
  <advance width="1399"/>
  <unicode hex="20AC"/>
  <outline>
    <contour>
      <point x="720" y="-20" type="curve" smooth="yes"/>
      <point x="932" y="-20"/>
      <point x="1134" y="94"/>
      <point x="1262" y="238" type="curve"/>
      <point x="1090" y="452" type="line"/>
      <point x="1034" y="380"/>
      <point x="918" y="300"/>
      <point x="820" y="300" type="curve" smooth="yes"/>
      <point x="698" y="300"/>
      <point x="600" y="414"/>
      <point x="650" y="736" type="curve" smooth="yes"/>
      <point x="698" y="1054"/>
      <point x="808" y="1166"/>
      <point x="939" y="1166" type="curve" smooth="yes"/>
      <point x="1036" y="1166"/>
      <point x="1082" y="1098"/>
      <point x="1126" y="1032" type="curve"/>
      <point x="1418" y="1220" type="line"/>
      <point x="1334" y="1370"/>
      <point x="1166" y="1466"/>
      <point x="948" y="1466" type="curve" smooth="yes"/>
      <point x="580" y="1466"/>
      <point x="272" y="1182"/>
      <point x="204" y="742" type="curve" smooth="yes"/>
      <point x="138" y="302"/>
      <point x="356" y="-20"/>
    </contour>
    <contour>
      <point x="12" y="458" type="line"/>
      <point x="906" y="458" type="line"/>
      <point x="936" y="656" type="line"/>
      <point x="42" y="656" type="line"/>
    </contour>
    <contour>
      <point x="64" y="790" type="line"/>
      <point x="958" y="790" type="line"/>
      <point x="988" y="986" type="line"/>
      <point x="92" y="986" type="line"/>
    </contour>
  </outline>
</glyph>
<glyph name="rupeeIndian" format="2">
  <advance width="1392"/>
  <unicode hex="20B9"/>
  <outline>
    <contour>
      <point x="613" y="0" type="line"/>
      <point x="1091" y="0" type="line"/>
      <point x="917" y="632" type="line" smooth="yes"/>
      <point x="913" y="648"/>
      <point x="915" y="664"/>
      <point x="927" y="668" type="curve" smooth="yes"/>
      <point x="1087" y="728"/>
      <point x="1213" y="866"/>
      <point x="1239" y="1044" type="curve" smooth="yes"/>
      <point x="1277" y="1296"/>
      <point x="1081" y="1446"/>
      <point x="711" y="1446" type="curve" smooth="yes"/>
      <point x="199" y="1446" type="line"/>
      <point x="171" y="1256" type="line"/>
      <point x="613" y="1256" type="line" smooth="yes"/>
      <point x="741" y="1256"/>
      <point x="807" y="1198"/>
      <point x="787" y="1058" type="curve" smooth="yes"/>
      <point x="767" y="932"/>
      <point x="705" y="870"/>
      <point x="565" y="870" type="curve" smooth="yes"/>
      <point x="113" y="870" type="line"/>
      <point x="71" y="598" type="line"/>
      <point x="497" y="598" type="line"/>
    </contour>
    <contour>
      <point x="129" y="976" type="line"/>
      <point x="1391" y="976" type="line"/>
      <point x="1419" y="1152" type="line"/>
      <point x="155" y="1152" type="line"/>
    </contour>
    <contour>
      <point x="173" y="1270" type="line"/>
      <point x="1437" y="1270" type="line"/>
      <point x="1463" y="1446" type="line"/>
      <point x="199" y="1446" type="line"/>
    </contour>
  </outline>
</glyph>
<glyph name="liraTurkish" format="2">
  <advance width="1459"/>
  <unicode hex="20BA"/>
  <outline>
    <contour>
      <point x="217" y="0" type="line"/>
      <point x="531" y="0" type="line" smooth="yes"/>
      <point x="1033" y="0"/>
      <point x="1279" y="266"/>
      <point x="1423" y="542" type="curve"/>
      <point x="1099" y="612" type="line"/>
      <point x="1005" y="434"/>
      <point x="877" y="326"/>
      <point x="751" y="320" type="curve" smooth="yes"/>
      <point x="707" y="320" type="line"/>
      <point x="877" y="1446" type="line"/>
      <point x="435" y="1446" type="line"/>
    </contour>
    <contour>
      <point x="111" y="368" type="line"/>
      <point x="1083" y="706" type="line"/>
      <point x="1045" y="892" type="line"/>
      <point x="73" y="554" type="line"/>
    </contour>
    <contour>
      <point x="119" y="678" type="line"/>
      <point x="1095" y="1018" type="line"/>
      <point x="1055" y="1202" type="line"/>
      <point x="79" y="864" type="line"/>
    </contour>
  </outline>
</glyph>
<glyph name="literSign" format="2">
  <advance width="1260"/>
  <unicode hex="2113"/>
  <outline>
    <contour>
      <point x="610" y="-20" type="curve" smooth="yes"/>
      <point x="944" y="-20"/>
      <point x="1105" y="197"/>
      <point x="1153" y="292" type="curve"/>
      <point x="1044" y="438" type="line"/>
      <point x="928" y="327"/>
      <point x="821" y="262"/>
      <point x="716" y="262" type="curve" smooth="yes"/>
      <point x="589" y="262"/>
      <point x="577" y="306"/>
      <point x="601" y="440" type="curve"/>
      <point x="876" y="643"/>
      <point x="1107" y="805"/>
      <point x="1147" y="1088" type="curve" smooth="yes"/>
      <point x="1175" y="1291"/>
      <point x="1102" y="1466"/>
      <point x="811" y="1466" type="curve" smooth="yes"/>
      <point x="528" y="1466"/>
      <point x="319" y="1303"/>
      <point x="269" y="951" type="curve" smooth="yes"/>
      <point x="211" y="550" type="line"/>
      <point x="27" y="422" type="line"/>
      <point x="83" y="218" type="line"/>
      <point x="185" y="291" type="line"/>
      <point x="211" y="89"/>
      <point x="341" y="-20"/>
    </contour>
    <contour>
      <point x="635" y="762" type="curve"/>
      <point x="669" y="963" type="line" smooth="yes"/>
      <point x="700" y="1181"/>
      <point x="769" y="1248"/>
      <point x="844" y="1248" type="curve" smooth="yes"/>
      <point x="903" y="1248"/>
      <point x="916" y="1209"/>
      <point x="907" y="1148" type="curve" smooth="yes"/>
      <point x="888" y="1011"/>
      <point x="790" y="894"/>
    </contour>
  </outline>
</glyph>
<glyph name="published" format="2">
  <advance width="1678"/>
  <unicode hex="2117"/>
  <outline>
    <contour>
      <point x="745" y="-20" type="curve" smooth="yes"/>
      <point x="1151" y="-20"/>
      <point x="1533" y="310"/>
      <point x="1597" y="724" type="curve" smooth="yes"/>
      <point x="1659" y="1132"/>
      <point x="1377" y="1466"/>
      <point x="969" y="1466" type="curve" smooth="yes"/>
      <point x="563" y="1466"/>
      <point x="181" y="1132"/>
      <point x="119" y="724" type="curve" smooth="yes"/>
      <point x="57" y="310"/>
      <point x="337" y="-20"/>
    </contour>
    <contour>
      <point x="775" y="178" type="curve" smooth="yes"/>
      <point x="455" y="178"/>
      <point x="285" y="390"/>
      <point x="337" y="724" type="curve" smooth="yes"/>
      <point x="387" y="1054"/>
      <point x="621" y="1272"/>
      <point x="941" y="1272" type="curve" smooth="yes"/>
      <point x="1257" y="1272"/>
      <point x="1429" y="1054"/>
      <point x="1379" y="724" type="curve" smooth="yes"/>
      <point x="1329" y="390"/>
      <point x="1091" y="178"/>
    </contour>
    <contour>
      <point x="501" y="340" type="line"/>
      <point x="735" y="340" type="line"/>
      <point x="773" y="586" type="line"/>
      <point x="937" y="586" type="line" smooth="yes"/>
      <point x="1107" y="586"/>
      <point x="1235" y="676"/>
      <point x="1261" y="842" type="curve" smooth="yes"/>
      <point x="1289" y="1026"/>
      <point x="1159" y="1108"/>
      <point x="991" y="1108" type="curve" smooth="yes"/>
      <point x="617" y="1108" type="line"/>
    </contour>
    <contour>
      <point x="797" y="750" type="line"/>
      <point x="827" y="940" type="line"/>
      <point x="951" y="940" type="line" smooth="yes"/>
      <point x="997" y="940"/>
      <point x="1033" y="912"/>
      <point x="1023" y="846" type="curve" smooth="yes"/>
      <point x="1013" y="786"/>
      <point x="979" y="750"/>
      <point x="929" y="750" type="curve" smooth="yes"/>
    </contour>
  </outline>
</glyph>
<glyph name="servicemark" format="2">
  <advance width="2087"/>
  <unicode hex="2120"/>
  <anchor x="406.25" y="0" name="bottom"/>
  <anchor x="543.75" y="903.75" name="top"/>
  <outline>
    <contour>
      <point x="939.75" y="0" type="line"/>
      <point x="1181.625" y="0" type="line"/>
      <point x="1281" y="655" type="line"/>
      <point x="1357.25" y="0" type="line"/>
      <point x="1531.625" y="0" type="line"/>
      <point x="1805.375" y="655" type="line"/>
      <point x="1706.625" y="0" type="line"/>
      <point x="1949.125" y="0" type="line"/>
      <point x="2084.75" y="903.75" type="line"/>
      <point x="1727.875" y="903.75" type="line"/>
      <point x="1497.875" y="352.5" type="line"/>
      <point x="1436" y="903.75" type="line"/>
      <point x="1076.625" y="903.75" type="line"/>
    </contour>
    <contour>
      <point x="408.75" y="-12.5" type="curve" smooth="yes"/>
      <point x="634.375" y="-12.5"/>
      <point x="820" y="102.5"/>
      <point x="843.125" y="256.25" type="curve" smooth="yes"/>
      <point x="856.25" y="346.25"/>
      <point x="865.625" y="508.75"/>
      <point x="611.25" y="553.75" type="curve" smooth="yes"/>
      <point x="475.625" y="577.5" type="line" smooth="yes"/>
      <point x="399.375" y="591.25"/>
      <point x="382.5" y="615"/>
      <point x="388.75" y="656.25" type="curve" smooth="yes"/>
      <point x="393.75" y="688.75"/>
      <point x="428.125" y="727.5"/>
      <point x="522.5" y="727.5" type="curve" smooth="yes"/>
      <point x="606.875" y="727.5"/>
      <point x="652.5" y="700"/>
      <point x="648.75" y="630" type="curve"/>
      <point x="894.375" y="630" type="line"/>
      <point x="900" y="778.75"/>
      <point x="765.625" y="915"/>
      <point x="545" y="915" type="curve" smooth="yes"/>
      <point x="338.75" y="915"/>
      <point x="151.25" y="808.75"/>
      <point x="125" y="626.25" type="curve" smooth="yes"/>
      <point x="105" y="472.5"/>
      <point x="183.75" y="382.5"/>
      <point x="321.875" y="360" type="curve" smooth="yes"/>
      <point x="457.5" y="336.25" type="line" smooth="yes"/>
      <point x="531.875" y="323.75"/>
      <point x="604.375" y="311.25"/>
      <point x="596.25" y="256.25" type="curve" smooth="yes"/>
      <point x="586.25" y="192.5"/>
      <point x="511.25" y="173.75"/>
      <point x="435" y="173.75" type="curve" smooth="yes"/>
      <point x="351.25" y="173.75"/>
      <point x="301.25" y="211.25"/>
      <point x="297.5" y="275" type="curve"/>
      <point x="46.25" y="275" type="line"/>
      <point x="31.875" y="73.75"/>
      <point x="220" y="-12.5"/>
    </contour>
  </outline>
</glyph>
<glyph name="Ohm" format="2">
  <advance width="1530"/>
  <unicode hex="2126"/>
  <outline>
    <contour>
      <point x="1" y="0" type="line"/>
      <point x="639" y="0" type="line"/>
      <point x="681" y="280" type="line"/>
      <point x="579" y="360"/>
      <point x="507" y="538"/>
      <point x="543" y="780" type="curve" smooth="yes"/>
      <point x="591" y="1096"/>
      <point x="743" y="1196"/>
      <point x="871" y="1196" type="curve" smooth="yes"/>
      <point x="1007" y="1196"/>
      <point x="1105" y="1084"/>
      <point x="1061" y="790" type="curve" smooth="yes"/>
      <point x="1019" y="518"/>
      <point x="889" y="358"/>
      <point x="773" y="280" type="curve"/>
      <point x="729" y="0" type="line"/>
      <point x="1365" y="0" type="line"/>
      <point x="1415" y="328" type="line"/>
      <point x="1165" y="328" type="line"/>
      <point x="1361" y="478"/>
      <point x="1473" y="634"/>
      <point x="1505" y="838" type="curve" smooth="yes"/>
      <point x="1549" y="1134"/>
      <point x="1381" y="1504"/>
      <point x="919" y="1504" type="curve" smooth="yes"/>
      <point x="473" y="1504"/>
      <point x="165" y="1164"/>
      <point x="115" y="836" type="curve" smooth="yes"/>
      <point x="81" y="608"/>
      <point x="179" y="434"/>
      <point x="291" y="328" type="curve"/>
      <point x="51" y="328" type="line"/>
    </contour>
  </outline>
</glyph>
<glyph name="partialdiff" format="2">
  <advance width="1233"/>
  <unicode hex="2202"/>
  <outline>
    <contour>
      <point x="496" y="-20" type="curve" smooth="yes"/>
      <point x="886" y="-20"/>
      <point x="1114" y="276"/>
      <point x="1180" y="708" type="curve" smooth="yes"/>
      <point x="1258" y="1226"/>
      <point x="1028" y="1466"/>
      <point x="666" y="1466" type="curve" smooth="yes"/>
      <point x="448" y="1466"/>
      <point x="282" y="1374"/>
      <point x="222" y="1330" type="curve"/>
      <point x="290" y="1106" type="line"/>
      <point x="352" y="1142"/>
      <point x="436" y="1190"/>
      <point x="564" y="1190" type="curve" smooth="yes"/>
      <point x="826" y="1190"/>
      <point x="880" y="980"/>
      <point x="866" y="878" type="curve" smooth="yes"/>
      <point x="862" y="856"/>
      <point x="856" y="836"/>
      <point x="828" y="862" type="curve" smooth="yes"/>
      <point x="780" y="906"/>
      <point x="726" y="952"/>
      <point x="594" y="952" type="curve" smooth="yes"/>
      <point x="308" y="952"/>
      <point x="102" y="734"/>
      <point x="63" y="464" type="curve" smooth="yes"/>
      <point x="21" y="190"/>
      <point x="168" y="-20"/>
    </contour>
    <contour>
      <point x="532" y="246" type="line" smooth="yes"/>
      <point x="450" y="246"/>
      <point x="398" y="310"/>
      <point x="418" y="448" type="curve" smooth="yes"/>
      <point x="440" y="592"/>
      <point x="528" y="704"/>
      <point x="632" y="704" type="curve" smooth="yes"/>
      <point x="708" y="704"/>
      <point x="756" y="650"/>
      <point x="776" y="598" type="curve" smooth="yes"/>
      <point x="786" y="576"/>
      <point x="786" y="566"/>
      <point x="776" y="528" type="curve" smooth="yes"/>
      <point x="734" y="362"/>
      <point x="650" y="246"/>
      <point x="534" y="246" type="curve" smooth="yes"/>
    </contour>
  </outline>
</glyph>
<glyph name="emptyset" format="2">
  <advance width="1230"/>
  <unicode hex="2205"/>
  <outline>
    <contour>
      <point x="132" y="210" type="line"/>
      <point x="1222" y="1104" type="line"/>
      <point x="1126" y="1226" type="line"/>
      <point x="34" y="334" type="line"/>
    </contour>
    <contour>
      <point x="562" y="246" type="curve" smooth="yes"/>
      <point x="826" y="246"/>
      <point x="1074" y="462"/>
      <point x="1114" y="728" type="curve" smooth="yes"/>
      <point x="1154" y="992"/>
      <point x="972" y="1208"/>
      <point x="708" y="1208" type="curve" smooth="yes"/>
      <point x="446" y="1208"/>
      <point x="198" y="992"/>
      <point x="158" y="728" type="curve" smooth="yes"/>
      <point x="118" y="462"/>
      <point x="300" y="246"/>
    </contour>
    <contour>
      <point x="588" y="410" type="curve" smooth="yes"/>
      <point x="414" y="410"/>
      <point x="294" y="552"/>
      <point x="322" y="728" type="curve" smooth="yes"/>
      <point x="348" y="900"/>
      <point x="510" y="1044"/>
      <point x="684" y="1044" type="curve" smooth="yes"/>
      <point x="858" y="1044"/>
      <point x="978" y="900"/>
      <point x="952" y="728" type="curve" smooth="yes"/>
      <point x="924" y="552"/>
      <point x="762" y="410"/>
    </contour>
  </outline>
</glyph>
<glyph name="increment" format="2">
  <advance width="1654"/>
  <unicode hex="2206"/>
  <outline>
    <contour>
      <point x="-43" y="0" type="line"/>
      <point x="1551" y="0" type="line"/>
      <point x="993" y="1446" type="line"/>
    </contour>
    <contour>
      <point x="563" y="318" type="line"/>
      <point x="891" y="772" type="line"/>
      <point x="1059" y="318" type="line"/>
    </contour>
  </outline>
</glyph>
<glyph name="product" format="2">
  <advance width="1467"/>
  <unicode hex="220F"/>
  <outline>
    <contour>
      <point x="116" y="0" type="line"/>
      <point x="512" y="0" type="line"/>
      <point x="682" y="1132" type="line"/>
      <point x="932" y="1132" type="line"/>
      <point x="760" y="0" type="line"/>
      <point x="1154" y="0" type="line"/>
      <point x="1326" y="1132" type="line"/>
      <point x="1490" y="1132" type="line"/>
      <point x="1538" y="1446" type="line"/>
      <point x="174" y="1446" type="line"/>
      <point x="126" y="1132" type="line"/>
      <point x="288" y="1132" type="line"/>
    </contour>
  </outline>
</glyph>
<glyph name="summation" format="2">
  <advance width="1220"/>
  <unicode hex="2211"/>
  <outline>
    <contour>
      <point x="-13" y="0" type="line"/>
      <point x="1063" y="0" type="line"/>
      <point x="1113" y="324" type="line"/>
      <point x="537" y="324" type="line"/>
      <point x="981" y="760" type="line"/>
      <point x="703" y="1140" type="line"/>
      <point x="1201" y="1140" type="line"/>
      <point x="1247" y="1446" type="line"/>
      <point x="225" y="1446" type="line"/>
      <point x="187" y="1190" type="line"/>
      <point x="495" y="714" type="line"/>
      <point x="21" y="228" type="line"/>
    </contour>
  </outline>
</glyph>
<glyph name="minus" format="2">
  <advance width="1235"/>
  <unicode hex="2212"/>
  <outline>
    <contour>
      <point x="120" y="590" type="line"/>
      <point x="1132" y="590" type="line"/>
      <point x="1174" y="866" type="line"/>
      <point x="162" y="866" type="line"/>
    </contour>
  </outline>
</glyph>
<glyph name="divisionslash" format="2">
  <advance width="1247"/>
  <unicode hex="2215"/>
  <outline>
    <contour>
      <point x="1300" y="1462" type="line"/>
      <point x="1087" y="1462" type="line"/>
      <point x="7" y="-4" type="line"/>
      <point x="222" y="-8" type="line"/>
    </contour>
  </outline>
</glyph>
<glyph name="bulletoperator" format="2">
  <advance width="770"/>
  <unicode hex="2219"/>
  <outline>
    <contour>
      <point x="372" y="550" type="curve" smooth="yes"/>
      <point x="472" y="550"/>
      <point x="566" y="632"/>
      <point x="580" y="732" type="curve" smooth="yes"/>
      <point x="596" y="832"/>
      <point x="526" y="914"/>
      <point x="428" y="914" type="curve" smooth="yes"/>
      <point x="328" y="914"/>
      <point x="234" y="832"/>
      <point x="220" y="732" type="curve" smooth="yes"/>
      <point x="204" y="632"/>
      <point x="274" y="550"/>
    </contour>
  </outline>
</glyph>
<glyph name="radical" format="2">
  <advance width="1468"/>
  <unicode hex="221A"/>
  <outline>
    <contour>
      <point x="416" y="-322" type="line"/>
      <point x="802" y="-322" type="line"/>
      <point x="1618" y="1652" type="line"/>
      <point x="1300" y="1652" type="line"/>
      <point x="656" y="24" type="line"/>
      <point x="508" y="748" type="line"/>
      <point x="40" y="590" type="line"/>
      <point x="84" y="382" type="line"/>
      <point x="256" y="442" type="line"/>
    </contour>
  </outline>
</glyph>
<glyph name="infinity" format="2">
  <advance width="1686"/>
  <unicode hex="221E"/>
  <outline>
    <contour>
      <point x="395" y="154" type="curve" smooth="yes"/>
      <point x="603" y="154"/>
      <point x="745" y="324"/>
      <point x="791" y="364" type="curve" smooth="yes"/>
      <point x="811" y="386"/>
      <point x="817" y="382"/>
      <point x="831" y="364" type="curve" smooth="yes"/>
      <point x="911" y="250"/>
      <point x="981" y="154"/>
      <point x="1147" y="154" type="curve" smooth="yes"/>
      <point x="1347" y="154"/>
      <point x="1541" y="298"/>
      <point x="1579" y="546" type="curve" smooth="yes"/>
      <point x="1581" y="550" type="line" smooth="yes"/>
      <point x="1615" y="776"/>
      <point x="1483" y="920"/>
      <point x="1281" y="920" type="curve" smooth="yes"/>
      <point x="1107" y="920"/>
      <point x="993" y="812"/>
      <point x="905" y="726" type="curve" smooth="yes"/>
      <point x="879" y="702"/>
      <point x="871" y="700"/>
      <point x="853" y="726" type="curve" smooth="yes"/>
      <point x="771" y="834"/>
      <point x="705" y="920"/>
      <point x="537" y="920" type="curve" smooth="yes"/>
      <point x="315" y="920"/>
      <point x="129" y="766"/>
      <point x="93" y="536" type="curve" smooth="yes"/>
      <point x="59" y="304"/>
      <point x="203" y="154"/>
    </contour>
    <contour>
      <point x="453" y="380" type="line" smooth="yes"/>
      <point x="369" y="380"/>
      <point x="315" y="446"/>
      <point x="329" y="542" type="curve" smooth="yes"/>
      <point x="343" y="634"/>
      <point x="413" y="700"/>
      <point x="499" y="700" type="curve" smooth="yes"/>
      <point x="575" y="700"/>
      <point x="625" y="650"/>
      <point x="669" y="568" type="curve" smooth="yes"/>
      <point x="683" y="534"/>
      <point x="685" y="528"/>
      <point x="661" y="500" type="curve" smooth="yes"/>
      <point x="615" y="448"/>
      <point x="533" y="380"/>
      <point x="457" y="380" type="curve" smooth="yes"/>
    </contour>
    <contour>
      <point x="1185" y="380" type="curve" smooth="yes"/>
      <point x="1145" y="380"/>
      <point x="1071" y="396"/>
      <point x="1007" y="508" type="curve" smooth="yes"/>
      <point x="997" y="526"/>
      <point x="991" y="548"/>
      <point x="1017" y="574" type="curve" smooth="yes"/>
      <point x="1075" y="632"/>
      <point x="1147" y="700"/>
      <point x="1225" y="700" type="curve" smooth="yes"/>
      <point x="1227" y="700" type="line" smooth="yes"/>
      <point x="1315" y="700"/>
      <point x="1357" y="624"/>
      <point x="1345" y="540" type="curve" smooth="yes"/>
      <point x="1333" y="464"/>
      <point x="1273" y="380"/>
    </contour>
  </outline>
</glyph>
<glyph name="integral" format="2">
  <advance width="1005"/>
  <unicode hex="222B"/>
  <outline>
    <contour>
      <point x="126" y="-344" type="curve" smooth="yes"/>
      <point x="422" y="-344"/>
      <point x="576" y="-152"/>
      <point x="636" y="242" type="curve" smooth="yes"/>
      <point x="668" y="444"/>
      <point x="696" y="836"/>
      <point x="742" y="1148" type="curve" smooth="yes"/>
      <point x="766" y="1298"/>
      <point x="800" y="1344"/>
      <point x="868" y="1344" type="curve" smooth="yes"/>
      <point x="926" y="1344"/>
      <point x="964" y="1324"/>
      <point x="992" y="1310" type="curve"/>
      <point x="1110" y="1622" type="line"/>
      <point x="1076" y="1646"/>
      <point x="1000" y="1672"/>
      <point x="896" y="1672" type="curve" smooth="yes"/>
      <point x="596" y="1672"/>
      <point x="446" y="1482"/>
      <point x="388" y="1102" type="curve" smooth="yes"/>
      <point x="358" y="902"/>
      <point x="328" y="482"/>
      <point x="282" y="186" type="curve" smooth="yes"/>
      <point x="258" y="26"/>
      <point x="222" y="-16"/>
      <point x="156" y="-16" type="curve" smooth="yes"/>
      <point x="100" y="-16"/>
      <point x="62" y="2"/>
      <point x="38" y="16" type="curve"/>
      <point x="-84" y="-296" type="line"/>
      <point x="-46" y="-320"/>
      <point x="26" y="-344"/>
    </contour>
  </outline>
</glyph>
